<svg width="1366" height="801" viewBox="0 0 1366 801" fill="none" xmlns="http://www.w3.org/2000/svg">
<path d="M27.324 401.322C27.324 402.618 27.072 403.797 26.568 404.859C26.046 405.903 25.245 406.74 24.165 407.37C23.085 408 21.708 408.315 20.034 408.315L8.1 408.315L8.1 406.047L20.061 406.047C21.897 406.047 23.229 405.606 24.057 404.724C24.885 403.842 25.299 402.69 25.299 401.268C25.299 399.846 24.885 398.703 24.057 397.839C23.229 396.975 21.897 396.543 20.061 396.543L8.1 396.543L8.1 394.275L20.034 394.275C21.708 394.275 23.085 394.59 24.165 395.22C25.245 395.85 26.046 396.696 26.568 397.758C27.072 398.82 27.324 400.008 27.324 401.322ZM27 390.57L13.608 390.57L13.608 388.518L16.011 388.383C15.165 387.951 14.499 387.33 14.013 386.52C13.527 385.71 13.284 384.792 13.284 383.766C13.284 382.182 13.77 380.922 14.742 379.986C15.696 379.032 17.172 378.555 19.17 378.555L27 378.555L27 380.823L19.413 380.823C16.623 380.823 15.228 381.975 15.228 384.279C15.228 385.431 15.651 386.394 16.497 387.168C17.325 387.924 18.513 388.302 20.061 388.302L27 388.302L27 390.57ZM10.638 373.741C10.638 374.191 10.494 374.569 10.206 374.875C9.9 375.163 9.522 375.307 9.072 375.307C8.64 375.307 8.28 375.163 7.992 374.875C7.704 374.569 7.56 374.191 7.56 373.741C7.56 373.309 7.704 372.94 7.992 372.634C8.28 372.328 8.64 372.175 9.072 372.175C9.522 372.175 9.9 372.328 10.206 372.634C10.494 372.94 10.638 373.309 10.638 373.741ZM27 374.875L13.608 374.875L13.608 372.607L27 372.607L27 374.875ZM27 363.366C27 364.59 26.703 365.553 26.109 366.255C25.515 366.957 24.444 367.308 22.896 367.308L15.525 367.308L15.525 369.63L13.608 369.63L13.608 367.308L10.395 367.011L10.395 365.04L13.608 365.04L13.608 361.098L15.525 361.098L15.525 365.04L22.896 365.04C23.742 365.04 24.318 364.869 24.624 364.527C24.912 364.185 25.056 363.582 25.056 362.718L25.056 361.314L27 361.314L27 363.366ZM27.324 353.087C27.324 354.689 26.919 356.021 26.109 357.083C25.299 358.145 24.201 358.766 22.815 358.946L22.815 356.624C23.517 356.48 24.129 356.111 24.651 355.517C25.155 354.905 25.407 354.086 25.407 353.06C25.407 352.106 25.209 351.404 24.813 350.954C24.399 350.504 23.913 350.279 23.355 350.279C22.545 350.279 22.005 350.576 21.735 351.17C21.465 351.746 21.222 352.565 21.006 353.627C20.862 354.347 20.655 355.067 20.385 355.787C20.115 356.507 19.737 357.11 19.251 357.596C18.747 358.082 18.09 358.325 17.28 358.325C16.11 358.325 15.156 357.893 14.418 357.029C13.662 356.147 13.284 354.959 13.284 353.465C13.284 352.043 13.644 350.882 14.364 349.982C15.066 349.064 16.074 348.533 17.388 348.389L17.388 350.63C16.704 350.72 16.173 351.017 15.795 351.521C15.399 352.007 15.201 352.664 15.201 353.492C15.201 354.302 15.372 354.932 15.714 355.382C16.056 355.814 16.506 356.03 17.064 356.03C17.604 356.03 18.027 355.751 18.333 355.193C18.639 354.617 18.9 353.843 19.116 352.871C19.296 352.043 19.521 351.26 19.791 350.522C20.043 349.766 20.43 349.154 20.952 348.686C21.456 348.2 22.194 347.957 23.166 347.957C24.372 347.939 25.371 348.398 26.163 349.334C26.937 350.252 27.324 351.503 27.324 353.087ZM27.324 331.47C27.324 332.73 27.036 333.864 26.46 334.872C25.884 335.88 25.074 336.681 24.03 337.275C22.968 337.851 21.726 338.139 20.304 338.139C18.882 338.139 17.649 337.842 16.605 337.248C15.543 336.654 14.724 335.853 14.148 334.845C13.572 333.819 13.284 332.676 13.284 331.416C13.284 330.156 13.572 329.022 14.148 328.014C14.724 327.006 15.543 326.214 16.605 325.638C17.649 325.044 18.882 324.747 20.304 324.747C21.726 324.747 22.968 325.044 24.03 325.638C25.074 326.232 25.884 327.042 26.46 328.068C27.036 329.076 27.324 330.21 27.324 331.47ZM25.38 331.47C25.38 330.696 25.191 329.976 24.813 329.31C24.435 328.644 23.868 328.104 23.112 327.69C22.356 327.276 21.42 327.069 20.304 327.069C19.188 327.069 18.252 327.276 17.496 327.69C16.74 328.086 16.173 328.617 15.795 329.283C15.417 329.949 15.228 330.66 15.228 331.416C15.228 332.19 15.417 332.91 15.795 333.576C16.173 334.242 16.74 334.782 17.496 335.196C18.252 335.61 19.188 335.817 20.304 335.817C21.42 335.817 22.356 335.61 23.112 335.196C23.868 334.782 24.435 334.251 24.813 333.603C25.191 332.937 25.38 332.226 25.38 331.47ZM27 320.864L15.525 320.864L15.525 322.889L13.608 322.889L13.608 320.864L11.286 320.864C9.99 320.864 9.045 320.54 8.451 319.892C7.857 319.244 7.56 318.299 7.56 317.057L7.56 315.707L9.504 315.707L9.504 316.706C9.504 317.39 9.648 317.876 9.936 318.164C10.206 318.452 10.674 318.596 11.34 318.596L13.608 318.596L13.608 315.302L15.525 315.302L15.525 318.596L27 318.596L27 320.864ZM27 305.321L8.1 305.321L8.1 302.675L21.276 295.871L8.1 289.121L8.1 286.448L27 286.448L27 288.716L12.15 288.716L24.3 295.034L24.3 296.735L12.177 303.053L27 303.053L27 305.321ZM27.324 276.575C27.324 277.853 27.036 278.987 26.46 279.977C25.866 280.967 25.047 281.75 24.003 282.326C22.959 282.884 21.726 283.163 20.304 283.163C18.9 283.163 17.676 282.884 16.632 282.326C15.57 281.768 14.751 280.994 14.175 280.004C13.581 278.996 13.284 277.835 13.284 276.521C13.284 275.225 13.581 274.109 14.175 273.173C14.751 272.219 15.516 271.49 16.47 270.986C17.424 270.482 18.45 270.23 19.548 270.23C19.746 270.23 19.944 270.239 20.142 270.257C20.34 270.257 20.565 270.257 20.817 270.257L20.817 280.922C21.843 280.868 22.698 280.634 23.382 280.22C24.048 279.788 24.552 279.257 24.894 278.627C25.236 277.979 25.407 277.295 25.407 276.575C25.407 275.639 25.191 274.856 24.759 274.226C24.327 273.596 23.742 273.137 23.004 272.849L23.004 270.608C24.246 270.968 25.281 271.661 26.109 272.687C26.919 273.695 27.324 274.991 27.324 276.575ZM15.201 276.575C15.201 277.655 15.534 278.618 16.2 279.464C16.848 280.292 17.802 280.769 19.062 280.895L19.062 272.471C17.856 272.525 16.911 272.939 16.227 273.713C15.543 274.487 15.201 275.441 15.201 276.575ZM27.324 262.769C27.324 263.885 27.135 264.812 26.757 265.55C26.379 266.288 25.875 266.837 25.245 267.197C24.615 267.557 23.931 267.737 23.193 267.737C21.825 267.737 20.772 267.215 20.034 266.171C19.296 265.127 18.927 263.705 18.927 261.905L18.927 258.287L18.765 258.287C17.595 258.287 16.713 258.593 16.119 259.205C15.507 259.817 15.201 260.636 15.201 261.662C15.201 262.544 15.426 263.309 15.876 263.957C16.308 264.587 16.947 264.983 17.793 265.145L17.793 267.467C16.821 267.377 16.002 267.053 15.336 266.495C14.67 265.919 14.166 265.208 13.824 264.362C13.464 263.516 13.284 262.616 13.284 261.662C13.284 259.79 13.788 258.386 14.796 257.45C15.786 256.496 17.109 256.019 18.765 256.019L27 256.019L27 258.044L24.597 258.179C25.353 258.557 26.001 259.115 26.541 259.853C27.063 260.573 27.324 261.545 27.324 262.769ZM25.407 262.418C25.407 261.554 25.182 260.816 24.732 260.204C24.282 259.574 23.697 259.097 22.977 258.773C22.257 258.449 21.501 258.287 20.709 258.287L20.682 258.287L20.682 261.716C20.682 263.048 20.916 263.993 21.384 264.551C21.834 265.091 22.401 265.361 23.085 265.361C23.787 265.361 24.354 265.109 24.786 264.605C25.2 264.083 25.407 263.354 25.407 262.418ZM27.324 247.486C27.324 249.088 26.919 250.42 26.109 251.482C25.299 252.544 24.201 253.165 22.815 253.345L22.815 251.023C23.517 250.879 24.129 250.51 24.651 249.916C25.155 249.304 25.407 248.485 25.407 247.459C25.407 246.505 25.209 245.803 24.813 245.353C24.399 244.903 23.913 244.678 23.355 244.678C22.545 244.678 22.005 244.975 21.735 245.569C21.465 246.145 21.222 246.964 21.006 248.026C20.862 248.746 20.655 249.466 20.385 250.186C20.115 250.906 19.737 251.509 19.251 251.995C18.747 252.481 18.09 252.724 17.28 252.724C16.11 252.724 15.156 252.292 14.418 251.428C13.662 250.546 13.284 249.358 13.284 247.864C13.284 246.442 13.644 245.281 14.364 244.381C15.066 243.463 16.074 242.932 17.388 242.788L17.388 245.029C16.704 245.119 16.173 245.416 15.795 245.92C15.399 246.406 15.201 247.063 15.201 247.891C15.201 248.701 15.372 249.331 15.714 249.781C16.056 250.213 16.506 250.429 17.064 250.429C17.604 250.429 18.027 250.15 18.333 249.592C18.639 249.016 18.9 248.242 19.116 247.27C19.296 246.442 19.521 245.659 19.791 244.921C20.043 244.165 20.43 243.553 20.952 243.085C21.456 242.599 22.194 242.356 23.166 242.356C24.372 242.338 25.371 242.797 26.163 243.733C26.937 244.651 27.324 245.902 27.324 247.486ZM27.324 234.229C27.324 235.813 26.847 237.073 25.893 238.009C24.921 238.945 23.436 239.413 21.438 239.413L13.608 239.413L13.608 237.145L21.195 237.145C23.985 237.145 25.38 236.002 25.38 233.716C25.38 232.546 24.966 231.583 24.138 230.827C23.292 230.053 22.095 229.666 20.547 229.666L13.608 229.666L13.608 227.398L27 227.398L27 229.45L24.597 229.612C25.443 230.026 26.109 230.647 26.595 231.475C27.081 232.285 27.324 233.203 27.324 234.229ZM27 223.665L13.608 223.665L13.608 221.613L16.173 221.424C15.291 221.01 14.589 220.38 14.067 219.534C13.545 218.688 13.284 217.644 13.284 216.402L15.66 216.402L15.66 217.023C15.66 217.815 15.804 218.544 16.092 219.21C16.362 219.876 16.83 220.407 17.496 220.803C18.162 221.199 19.08 221.397 20.25 221.397L27 221.397L27 223.665ZM27.324 208.337C27.324 209.615 27.036 210.749 26.46 211.739C25.866 212.729 25.047 213.512 24.003 214.088C22.959 214.646 21.726 214.925 20.304 214.925C18.9 214.925 17.676 214.646 16.632 214.088C15.57 213.53 14.751 212.756 14.175 211.766C13.581 210.758 13.284 209.597 13.284 208.283C13.284 206.987 13.581 205.871 14.175 204.935C14.751 203.981 15.516 203.252 16.47 202.748C17.424 202.244 18.45 201.992 19.548 201.992C19.746 201.992 19.944 202.001 20.142 202.019C20.34 202.019 20.565 202.019 20.817 202.019L20.817 212.684C21.843 212.63 22.698 212.396 23.382 211.982C24.048 211.55 24.552 211.019 24.894 210.389C25.236 209.741 25.407 209.057 25.407 208.337C25.407 207.401 25.191 206.618 24.759 205.988C24.327 205.358 23.742 204.899 23.004 204.611L23.004 202.37C24.246 202.73 25.281 203.423 26.109 204.449C26.919 205.457 27.324 206.753 27.324 208.337ZM15.201 208.337C15.201 209.417 15.534 210.38 16.2 211.226C16.848 212.054 17.802 212.531 19.062 212.657L19.062 204.233C17.856 204.287 16.911 204.701 16.227 205.475C15.543 206.249 15.201 207.203 15.201 208.337Z" fill="#4B494E"/>
<path d="M59 1L59 610" stroke="#C6C6C5" stroke-width="0.7" stroke-linecap="round"/>
<path d="M79.2721 28V11.638L76.2211 12.313V10.747L80.0281 9.1H81.5671V28H79.2721ZM92.9276 28.324C91.2536 28.324 89.8046 27.919 88.5806 27.109C87.3746 26.281 86.4476 25.138 85.7996 23.68C85.1516 22.204 84.8276 20.494 84.8276 18.55C84.8276 16.606 85.1516 14.905 85.7996 13.447C86.4476 11.971 87.3746 10.828 88.5806 10.018C89.8046 9.19 91.2536 8.776 92.9276 8.776C94.6016 8.776 96.0416 9.19 97.2476 10.018C98.4536 10.828 99.3806 11.971 100.029 13.447C100.677 14.905 101.001 16.606 101.001 18.55C101.001 20.494 100.677 22.204 100.029 23.68C99.3806 25.138 98.4536 26.281 97.2476 27.109C96.0416 27.919 94.6016 28.324 92.9276 28.324ZM92.9276 26.326C94.0256 26.326 95.0066 26.02 95.8706 25.408C96.7526 24.778 97.4366 23.887 97.9226 22.735C98.4266 21.565 98.6786 20.17 98.6786 18.55C98.6786 16.93 98.4266 15.544 97.9226 14.392C97.4366 13.24 96.7526 12.358 95.8706 11.746C95.0066 11.116 94.0256 10.801 92.9276 10.801C91.8116 10.801 90.8216 11.116 89.9576 11.746C89.0936 12.358 88.4096 13.24 87.9056 14.392C87.4016 15.544 87.1496 16.93 87.1496 18.55C87.1496 20.17 87.4016 21.565 87.9056 22.735C88.4096 23.887 89.0936 24.778 89.9576 25.408C90.8216 26.02 91.8116 26.326 92.9276 26.326ZM111.648 28.324C109.974 28.324 108.525 27.919 107.301 27.109C106.095 26.281 105.168 25.138 104.52 23.68C103.872 22.204 103.548 20.494 103.548 18.55C103.548 16.606 103.872 14.905 104.52 13.447C105.168 11.971 106.095 10.828 107.301 10.018C108.525 9.19 109.974 8.776 111.648 8.776C113.322 8.776 114.762 9.19 115.968 10.018C117.174 10.828 118.101 11.971 118.749 13.447C119.397 14.905 119.721 16.606 119.721 18.55C119.721 20.494 119.397 22.204 118.749 23.68C118.101 25.138 117.174 26.281 115.968 27.109C114.762 27.919 113.322 28.324 111.648 28.324ZM111.648 26.326C112.746 26.326 113.727 26.02 114.591 25.408C115.473 24.778 116.157 23.887 116.643 22.735C117.147 21.565 117.399 20.17 117.399 18.55C117.399 16.93 117.147 15.544 116.643 14.392C116.157 13.24 115.473 12.358 114.591 11.746C113.727 11.116 112.746 10.801 111.648 10.801C110.532 10.801 109.542 11.116 108.678 11.746C107.814 12.358 107.13 13.24 106.626 14.392C106.122 15.544 105.87 16.93 105.87 18.55C105.87 20.17 106.122 21.565 106.626 22.735C107.13 23.887 107.814 24.778 108.678 25.408C109.542 26.02 110.532 26.326 111.648 26.326Z" fill="#949294"/>
<path d="M83.5075 92.1018C82.3195 92.1018 81.3025 91.8678 80.4565 91.3998C79.6105 90.9318 78.9355 90.3108 78.4315 89.5368C77.9455 88.7448 77.6485 87.8718 77.5405 86.9178H79.6465C79.8265 87.9438 80.2585 88.7358 80.9425 89.2938C81.6265 89.8518 82.4905 90.1308 83.5345 90.1308C84.9745 90.1308 86.1715 89.4648 87.1255 88.1328C88.0795 86.7828 88.5925 84.6858 88.6645 81.8418C88.2325 82.6878 87.5395 83.4258 86.5855 84.0558C85.6495 84.6678 84.5155 84.9738 83.1835 84.9738C82.1215 84.9738 81.1135 84.7218 80.1595 84.2178C79.2055 83.7138 78.4315 83.0118 77.8375 82.1118C77.2435 81.1938 76.9465 80.1228 76.9465 78.8988C76.9465 77.8368 77.2075 76.8198 77.7295 75.8478C78.2695 74.8758 79.0255 74.0838 79.9975 73.4718C80.9695 72.8598 82.1305 72.5538 83.4805 72.5538C84.8485 72.5538 86.0005 72.8148 86.9365 73.3368C87.8725 73.8408 88.6195 74.5248 89.1775 75.3888C89.7535 76.2528 90.1675 77.2248 90.4195 78.3048C90.6895 79.3668 90.8245 80.4558 90.8245 81.5718C90.8245 83.6598 90.5365 85.4958 89.9605 87.0798C89.3845 88.6458 88.5475 89.8788 87.4495 90.7788C86.3695 91.6608 85.0555 92.1018 83.5075 92.1018ZM83.6425 83.0028C84.4885 83.0028 85.2445 82.8138 85.9105 82.4358C86.5765 82.0398 87.1075 81.5178 87.5035 80.8698C87.8995 80.2218 88.0975 79.5198 88.0975 78.7638C88.0975 77.9538 87.8995 77.2338 87.5035 76.6038C87.1075 75.9558 86.5765 75.4518 85.9105 75.0918C85.2445 74.7318 84.4885 74.5518 83.6425 74.5518C82.7965 74.5518 82.0405 74.7318 81.3745 75.0918C80.7085 75.4518 80.1865 75.9558 79.8085 76.6038C79.4305 77.2338 79.2415 77.9628 79.2415 78.7908C79.2415 80.0688 79.6555 81.0948 80.4835 81.8688C81.3295 82.6248 82.3825 83.0028 83.6425 83.0028ZM101.648 92.1018C99.9743 92.1018 98.5253 91.6968 97.3013 90.8868C96.0953 90.0588 95.1683 88.9158 94.5203 87.4578C93.8723 85.9818 93.5483 84.2718 93.5483 82.3278C93.5483 80.3838 93.8723 78.6828 94.5203 77.2248C95.1683 75.7488 96.0953 74.6058 97.3013 73.7958C98.5253 72.9678 99.9743 72.5538 101.648 72.5538C103.322 72.5538 104.762 72.9678 105.968 73.7958C107.174 74.6058 108.101 75.7488 108.749 77.2248C109.397 78.6828 109.721 80.3838 109.721 82.3278C109.721 84.2718 109.397 85.9818 108.749 87.4578C108.101 88.9158 107.174 90.0588 105.968 90.8868C104.762 91.6968 103.322 92.1018 101.648 92.1018ZM101.648 90.1038C102.746 90.1038 103.727 89.7978 104.591 89.1858C105.473 88.5558 106.157 87.6648 106.643 86.5128C107.147 85.3428 107.399 83.9478 107.399 82.3278C107.399 80.7078 107.147 79.3218 106.643 78.1698C106.157 77.0178 105.473 76.1358 104.591 75.5238C103.727 74.8938 102.746 74.5788 101.648 74.5788C100.532 74.5788 99.5423 74.8938 98.6783 75.5238C97.8143 76.1358 97.1303 77.0178 96.6263 78.1698C96.1223 79.3218 95.8703 80.7078 95.8703 82.3278C95.8703 83.9478 96.1223 85.3428 96.6263 86.5128C97.1303 87.6648 97.8143 88.5558 98.6783 89.1858C99.5423 89.7978 100.532 90.1038 101.648 90.1038Z" fill="#949294"/>
<path d="M84.0348 155.88C82.7928 155.88 81.6768 155.655 80.6868 155.205C79.6968 154.737 78.9138 154.098 78.3378 153.288C77.7798 152.46 77.5008 151.506 77.5008 150.426C77.5008 149.274 77.8338 148.239 78.4998 147.321C79.1838 146.403 80.0838 145.791 81.1998 145.485C80.1738 145.143 79.3818 144.594 78.8238 143.838C78.2658 143.082 77.9868 142.254 77.9868 141.354C77.9868 140.436 78.2298 139.599 78.7158 138.843C79.2018 138.069 79.8948 137.457 80.7948 137.007C81.6948 136.557 82.7748 136.332 84.0348 136.332C85.2948 136.332 86.3748 136.557 87.2748 137.007C88.1748 137.457 88.8678 138.069 89.3538 138.843C89.8398 139.599 90.0828 140.436 90.0828 141.354C90.0828 142.236 89.8038 143.064 89.2458 143.838C88.6878 144.594 87.8958 145.143 86.8698 145.485C87.9858 145.791 88.8768 146.403 89.5428 147.321C90.2268 148.239 90.5688 149.274 90.5688 150.426C90.5688 151.506 90.2808 152.46 89.7048 153.288C89.1468 154.098 88.3728 154.737 87.3828 155.205C86.3928 155.655 85.2768 155.88 84.0348 155.88ZM84.0348 144.675C85.1868 144.675 86.0958 144.387 86.7618 143.811C87.4458 143.217 87.7878 142.443 87.7878 141.489C87.7878 140.427 87.4548 139.626 86.7888 139.086C86.1228 138.546 85.2048 138.276 84.0348 138.276C82.8648 138.276 81.9468 138.546 81.2808 139.086C80.6328 139.626 80.3088 140.427 80.3088 141.489C80.3088 142.443 80.6418 143.217 81.3078 143.811C81.9738 144.387 82.8828 144.675 84.0348 144.675ZM84.0348 153.882C85.4568 153.882 86.5188 153.558 87.2208 152.91C87.9408 152.244 88.3008 151.371 88.3008 150.291C88.3008 149.067 87.9138 148.14 87.1398 147.51C86.3658 146.88 85.3308 146.565 84.0348 146.565C82.7388 146.565 81.7038 146.88 80.9298 147.51C80.1558 148.14 79.7688 149.067 79.7688 150.291C79.7688 151.371 80.1198 152.244 80.8218 152.91C81.5418 153.558 82.6128 153.882 84.0348 153.882ZM101.648 155.88C99.9743 155.88 98.5253 155.475 97.3013 154.665C96.0953 153.837 95.1683 152.694 94.5203 151.236C93.8723 149.76 93.5483 148.05 93.5483 146.106C93.5483 144.162 93.8723 142.461 94.5203 141.003C95.1683 139.527 96.0953 138.384 97.3013 137.574C98.5253 136.746 99.9743 136.332 101.648 136.332C103.322 136.332 104.762 136.746 105.968 137.574C107.174 138.384 108.101 139.527 108.749 141.003C109.397 142.461 109.721 144.162 109.721 146.106C109.721 148.05 109.397 149.76 108.749 151.236C108.101 152.694 107.174 153.837 105.968 154.665C104.762 155.475 103.322 155.88 101.648 155.88ZM101.648 153.882C102.746 153.882 103.727 153.576 104.591 152.964C105.473 152.334 106.157 151.443 106.643 150.291C107.147 149.121 107.399 147.726 107.399 146.106C107.399 144.486 107.147 143.1 106.643 141.948C106.157 140.796 105.473 139.914 104.591 139.302C103.727 138.672 102.746 138.357 101.648 138.357C100.532 138.357 99.5423 138.672 98.6783 139.302C97.8143 139.914 97.1303 140.796 96.6263 141.948C96.1223 143.1 95.8703 144.486 95.8703 146.106C95.8703 147.726 96.1223 149.121 96.6263 150.291C97.1303 151.443 97.8143 152.334 98.6783 152.964C99.5423 153.576 100.532 153.882 101.648 153.882Z" fill="#949294"/>
<path d="M78.816 219.333L86.322 202.377H75.954V200.433H88.644V202.134L81.219 219.333H78.816ZM98.6483 219.657C96.9743 219.657 95.5253 219.252 94.3013 218.442C93.0953 217.614 92.1683 216.471 91.5203 215.013C90.8723 213.537 90.5483 211.827 90.5483 209.883C90.5483 207.939 90.8723 206.238 91.5203 204.78C92.1683 203.304 93.0953 202.161 94.3013 201.351C95.5253 200.523 96.9743 200.109 98.6483 200.109C100.322 200.109 101.762 200.523 102.968 201.351C104.174 202.161 105.101 203.304 105.749 204.78C106.397 206.238 106.721 207.939 106.721 209.883C106.721 211.827 106.397 213.537 105.749 215.013C105.101 216.471 104.174 217.614 102.968 218.442C101.762 219.252 100.322 219.657 98.6483 219.657ZM98.6483 217.659C99.7463 217.659 100.727 217.353 101.591 216.741C102.473 216.111 103.157 215.22 103.643 214.068C104.147 212.898 104.399 211.503 104.399 209.883C104.399 208.263 104.147 206.877 103.643 205.725C103.157 204.573 102.473 203.691 101.591 203.079C100.727 202.449 99.7463 202.134 98.6483 202.134C97.5323 202.134 96.5423 202.449 95.6783 203.079C94.8143 203.691 94.1303 204.573 93.6263 205.725C93.1223 206.877 92.8703 208.263 92.8703 209.883C92.8703 211.503 93.1223 212.898 93.6263 214.068C94.1303 215.22 94.8143 216.111 95.6783 216.741C96.5423 217.353 97.5323 217.659 98.6483 217.659Z" fill="#949294"/>
<path d="M84.0745 283.435C82.7065 283.435 81.5545 283.183 80.6185 282.679C79.6825 282.157 78.9265 281.464 78.3505 280.6C77.7925 279.736 77.3785 278.773 77.1085 277.711C76.8565 276.631 76.7305 275.533 76.7305 274.417C76.7305 272.329 77.0185 270.502 77.5945 268.936C78.1705 267.352 78.9985 266.119 80.0785 265.237C81.1765 264.337 82.4995 263.887 84.0475 263.887C85.2355 263.887 86.2525 264.121 87.0985 264.589C87.9445 265.057 88.6105 265.687 89.0965 266.479C89.6005 267.253 89.9155 268.117 90.0415 269.071H87.9355C87.7375 268.045 87.2965 267.253 86.6125 266.695C85.9285 266.137 85.0645 265.858 84.0205 265.858C82.5985 265.858 81.4015 266.533 80.4295 267.883C79.4755 269.215 78.9625 271.303 78.8905 274.147C79.3225 273.301 80.0065 272.572 80.9425 271.96C81.8965 271.33 83.0395 271.015 84.3715 271.015C85.4515 271.015 86.4595 271.267 87.3955 271.771C88.3495 272.275 89.1235 272.986 89.7175 273.904C90.3115 274.804 90.6085 275.866 90.6085 277.09C90.6085 278.152 90.3475 279.169 89.8255 280.141C89.3035 281.113 88.5475 281.905 87.5575 282.517C86.5855 283.129 85.4245 283.435 84.0745 283.435ZM83.9125 281.437C84.7585 281.437 85.5145 281.257 86.1805 280.897C86.8465 280.537 87.3685 280.042 87.7465 279.412C88.1245 278.764 88.3135 278.026 88.3135 277.198C88.3135 275.92 87.8905 274.903 87.0445 274.147C86.2165 273.373 85.1725 272.986 83.9125 272.986C83.0665 272.986 82.3105 273.184 81.6445 273.58C80.9785 273.958 80.4475 274.471 80.0515 275.119C79.6735 275.767 79.4845 276.469 79.4845 277.225C79.4845 278.035 79.6735 278.764 80.0515 279.412C80.4475 280.042 80.9785 280.537 81.6445 280.897C82.3105 281.257 83.0665 281.437 83.9125 281.437ZM101.648 283.435C99.9743 283.435 98.5253 283.03 97.3013 282.22C96.0953 281.392 95.1683 280.249 94.5203 278.791C93.8723 277.315 93.5483 275.605 93.5483 273.661C93.5483 271.717 93.8723 270.016 94.5203 268.558C95.1683 267.082 96.0953 265.939 97.3013 265.129C98.5253 264.301 99.9743 263.887 101.648 263.887C103.322 263.887 104.762 264.301 105.968 265.129C107.174 265.939 108.101 267.082 108.749 268.558C109.397 270.016 109.721 271.717 109.721 273.661C109.721 275.605 109.397 277.315 108.749 278.791C108.101 280.249 107.174 281.392 105.968 282.22C104.762 283.03 103.322 283.435 101.648 283.435ZM101.648 281.437C102.746 281.437 103.727 281.131 104.591 280.519C105.473 279.889 106.157 278.998 106.643 277.846C107.147 276.676 107.399 275.281 107.399 273.661C107.399 272.041 107.147 270.655 106.643 269.503C106.157 268.351 105.473 267.469 104.591 266.857C103.727 266.227 102.746 265.912 101.648 265.912C100.532 265.912 99.5423 266.227 98.6783 266.857C97.8143 267.469 97.1303 268.351 96.6263 269.503C96.1223 270.655 95.8703 272.041 95.8703 273.661C95.8703 275.281 96.1223 276.676 96.6263 277.846C97.1303 278.998 97.8143 279.889 98.6783 280.519C99.5423 281.131 100.532 281.437 101.648 281.437Z" fill="#949294"/>
<path d="M84.1711 347.213C82.8751 347.213 81.7501 346.979 80.7961 346.511C79.8421 346.043 79.0771 345.404 78.5011 344.594C77.9431 343.766 77.6011 342.83 77.4751 341.786H79.6891C79.9051 342.83 80.4091 343.676 81.2011 344.324C81.9931 344.954 82.9921 345.269 84.1981 345.269C85.0981 345.269 85.8721 345.062 86.5201 344.648C87.1681 344.216 87.6631 343.64 88.0051 342.92C88.3651 342.2 88.5451 341.399 88.5451 340.517C88.5451 339.113 88.1491 337.979 87.3571 337.115C86.5651 336.251 85.5391 335.819 84.2791 335.819C83.2351 335.819 82.3441 336.053 81.6061 336.521C80.8681 336.989 80.3281 337.601 79.9861 338.357H77.8261L79.4461 327.989H89.3551V329.96H81.2011L80.0941 335.711C80.5261 335.189 81.1201 334.757 81.8761 334.415C82.6501 334.073 83.5321 333.902 84.5221 333.902C85.7641 333.902 86.8441 334.19 87.7621 334.766C88.6981 335.342 89.4271 336.125 89.9491 337.115C90.4711 338.105 90.7321 339.23 90.7321 340.49C90.7321 341.696 90.4711 342.812 89.9491 343.838C89.4451 344.864 88.6981 345.683 87.7081 346.295C86.7361 346.907 85.5571 347.213 84.1711 347.213ZM101.648 347.213C99.9743 347.213 98.5253 346.808 97.3013 345.998C96.0953 345.17 95.1683 344.027 94.5203 342.569C93.8723 341.093 93.5483 339.383 93.5483 337.439C93.5483 335.495 93.8723 333.794 94.5203 332.336C95.1683 330.86 96.0953 329.717 97.3013 328.907C98.5253 328.079 99.9743 327.665 101.648 327.665C103.322 327.665 104.762 328.079 105.968 328.907C107.174 329.717 108.101 330.86 108.749 332.336C109.397 333.794 109.721 335.495 109.721 337.439C109.721 339.383 109.397 341.093 108.749 342.569C108.101 344.027 107.174 345.17 105.968 345.998C104.762 346.808 103.322 347.213 101.648 347.213ZM101.648 345.215C102.746 345.215 103.727 344.909 104.591 344.297C105.473 343.667 106.157 342.776 106.643 341.624C107.147 340.454 107.399 339.059 107.399 337.439C107.399 335.819 107.147 334.433 106.643 333.281C106.157 332.129 105.473 331.247 104.591 330.635C103.727 330.005 102.746 329.69 101.648 329.69C100.532 329.69 99.5423 330.005 98.6783 330.635C97.8143 331.247 97.1303 332.129 96.6263 333.281C96.1223 334.433 95.8703 335.819 95.8703 337.439C95.8703 339.059 96.1223 340.454 96.6263 341.624C97.1303 342.776 97.8143 343.667 98.6783 344.297C99.5423 344.909 100.532 345.215 101.648 345.215Z" fill="#949294"/>
<path d="M86.4886 410.667V406.617H76.9036V404.862L86.0836 391.767H88.7296V404.619H91.5376V406.617H88.7296V410.667H86.4886ZM79.4146 404.619H86.5966V394.278L79.4146 404.619ZM101.648 410.991C99.9743 410.991 98.5253 410.586 97.3013 409.776C96.0953 408.948 95.1683 407.805 94.5203 406.347C93.8723 404.871 93.5483 403.161 93.5483 401.217C93.5483 399.273 93.8723 397.572 94.5203 396.114C95.1683 394.638 96.0953 393.495 97.3013 392.685C98.5253 391.857 99.9743 391.443 101.648 391.443C103.322 391.443 104.762 391.857 105.968 392.685C107.174 393.495 108.101 394.638 108.749 396.114C109.397 397.572 109.721 399.273 109.721 401.217C109.721 403.161 109.397 404.871 108.749 406.347C108.101 407.805 107.174 408.948 105.968 409.776C104.762 410.586 103.322 410.991 101.648 410.991ZM101.648 408.993C102.746 408.993 103.727 408.687 104.591 408.075C105.473 407.445 106.157 406.554 106.643 405.402C107.147 404.232 107.399 402.837 107.399 401.217C107.399 399.597 107.147 398.211 106.643 397.059C106.157 395.907 105.473 395.025 104.591 394.413C103.727 393.783 102.746 393.468 101.648 393.468C100.532 393.468 99.5423 393.783 98.6783 394.413C97.8143 395.025 97.1303 395.907 96.6263 397.059C96.1223 398.211 95.8703 399.597 95.8703 401.217C95.8703 402.837 96.1223 404.232 96.6263 405.402C97.1303 406.554 97.8143 407.445 98.6783 408.075C99.5423 408.687 100.532 408.993 101.648 408.993Z" fill="#949294"/>
<path d="M83.2903 474.768C82.0843 474.768 80.9953 474.552 80.0233 474.12C79.0513 473.67 78.2683 473.004 77.6743 472.122C77.0983 471.24 76.7923 470.142 76.7563 468.828H79.0513C79.0693 469.908 79.4473 470.844 80.1853 471.636C80.9233 472.41 81.9583 472.797 83.2903 472.797C84.6223 472.797 85.6213 472.428 86.2873 471.69C86.9713 470.952 87.3133 470.061 87.3133 469.017C87.3133 468.135 87.0973 467.415 86.6653 466.857C86.2513 466.299 85.6843 465.885 84.9643 465.615C84.2623 465.345 83.4883 465.21 82.6423 465.21H81.2383V463.293H82.6423C83.8663 463.293 84.8203 463.014 85.5043 462.456C86.2063 461.898 86.5573 461.115 86.5573 460.107C86.5573 459.261 86.2783 458.568 85.7203 458.028C85.1803 457.47 84.3703 457.191 83.2903 457.191C82.2463 457.191 81.4093 457.506 80.7793 458.136C80.1493 458.748 79.7983 459.522 79.7263 460.458H77.4313C77.4853 459.432 77.7553 458.523 78.2413 457.731C78.7453 456.939 79.4293 456.327 80.2933 455.895C81.1573 455.445 82.1563 455.22 83.2903 455.22C84.5143 455.22 85.5313 455.436 86.3413 455.868C87.1693 456.3 87.7903 456.876 88.2043 457.596C88.6363 458.316 88.8523 459.108 88.8523 459.972C88.8523 460.926 88.5913 461.799 88.0693 462.591C87.5473 463.365 86.7643 463.887 85.7203 464.157C86.8363 464.391 87.7633 464.922 88.5013 465.75C89.2393 466.578 89.6083 467.667 89.6083 469.017C89.6083 470.061 89.3653 471.024 88.8793 471.906C88.4113 472.77 87.7093 473.463 86.7733 473.985C85.8373 474.507 84.6763 474.768 83.2903 474.768ZM100.648 474.768C98.9743 474.768 97.5253 474.363 96.3013 473.553C95.0953 472.725 94.1683 471.582 93.5203 470.124C92.8723 468.648 92.5483 466.938 92.5483 464.994C92.5483 463.05 92.8723 461.349 93.5203 459.891C94.1683 458.415 95.0953 457.272 96.3013 456.462C97.5253 455.634 98.9743 455.22 100.648 455.22C102.322 455.22 103.762 455.634 104.968 456.462C106.174 457.272 107.101 458.415 107.749 459.891C108.397 461.349 108.721 463.05 108.721 464.994C108.721 466.938 108.397 468.648 107.749 470.124C107.101 471.582 106.174 472.725 104.968 473.553C103.762 474.363 102.322 474.768 100.648 474.768ZM100.648 472.77C101.746 472.77 102.727 472.464 103.591 471.852C104.473 471.222 105.157 470.331 105.643 469.179C106.147 468.009 106.399 466.614 106.399 464.994C106.399 463.374 106.147 461.988 105.643 460.836C105.157 459.684 104.473 458.802 103.591 458.19C102.727 457.56 101.746 457.245 100.648 457.245C99.5323 457.245 98.5423 457.56 97.6783 458.19C96.8143 458.802 96.1303 459.684 95.6263 460.836C95.1223 461.988 94.8703 463.374 94.8703 464.994C94.8703 466.614 95.1223 468.009 95.6263 469.179C96.1303 470.331 96.8143 471.222 97.6783 471.852C98.5423 472.464 99.5323 472.77 100.648 472.77Z" fill="#949294"/>
<path d="M76.7928 538.222V536.629C78.0708 535.621 79.2768 534.604 80.4108 533.578C81.5628 532.534 82.5798 531.508 83.4618 530.5C84.3618 529.492 85.0638 528.502 85.5678 527.53C86.0898 526.558 86.3508 525.622 86.3508 524.722C86.3508 524.056 86.2338 523.435 85.9998 522.859C85.7838 522.283 85.4238 521.824 84.9198 521.482C84.4158 521.122 83.7318 520.942 82.8678 520.942C82.0398 520.942 81.3468 521.131 80.7888 521.509C80.2308 521.869 79.8078 522.355 79.5198 522.967C79.2498 523.579 79.1148 524.236 79.1148 524.938H76.9278C76.9278 523.696 77.1888 522.634 77.7108 521.752C78.2328 520.852 78.9438 520.168 79.8438 519.7C80.7438 519.232 81.7608 518.998 82.8948 518.998C84.5688 518.998 85.9368 519.475 86.9988 520.429C88.0788 521.365 88.6188 522.769 88.6188 524.641C88.6188 525.757 88.3398 526.864 87.7818 527.962C87.2238 529.042 86.5128 530.095 85.6488 531.121C84.7848 532.129 83.8578 533.074 82.8678 533.956C81.8958 534.838 80.9868 535.63 80.1408 536.332H89.2668V538.222H76.7928ZM99.6483 538.546C97.9743 538.546 96.5253 538.141 95.3013 537.331C94.0953 536.503 93.1683 535.36 92.5203 533.902C91.8723 532.426 91.5483 530.716 91.5483 528.772C91.5483 526.828 91.8723 525.127 92.5203 523.669C93.1683 522.193 94.0953 521.05 95.3013 520.24C96.5253 519.412 97.9743 518.998 99.6483 518.998C101.322 518.998 102.762 519.412 103.968 520.24C105.174 521.05 106.101 522.193 106.749 523.669C107.397 525.127 107.721 526.828 107.721 528.772C107.721 530.716 107.397 532.426 106.749 533.902C106.101 535.36 105.174 536.503 103.968 537.331C102.762 538.141 101.322 538.546 99.6483 538.546ZM99.6483 536.548C100.746 536.548 101.727 536.242 102.591 535.63C103.473 535 104.157 534.109 104.643 532.957C105.147 531.787 105.399 530.392 105.399 528.772C105.399 527.152 105.147 525.766 104.643 524.614C104.157 523.462 103.473 522.58 102.591 521.968C101.727 521.338 100.746 521.023 99.6483 521.023C98.5323 521.023 97.5423 521.338 96.6783 521.968C95.8143 522.58 95.1303 523.462 94.6263 524.614C94.1223 525.766 93.8703 527.152 93.8703 528.772C93.8703 530.392 94.1223 531.787 94.6263 532.957C95.1303 534.109 95.8143 535 96.6783 535.63C97.5423 536.242 98.5323 536.548 99.6483 536.548Z" fill="#949294"/>
<path d="M78.9928 602V585.638L75.9418 586.313V584.747L79.7488 583.1H81.2878V602H78.9928ZM92.6483 602.324C90.9743 602.324 89.5253 601.919 88.3013 601.109C87.0953 600.281 86.1683 599.138 85.5203 597.68C84.8723 596.204 84.5483 594.494 84.5483 592.55C84.5483 590.606 84.8723 588.905 85.5203 587.447C86.1683 585.971 87.0953 584.828 88.3013 584.018C89.5253 583.19 90.9743 582.776 92.6483 582.776C94.3223 582.776 95.7623 583.19 96.9683 584.018C98.1743 584.828 99.1013 585.971 99.7493 587.447C100.397 588.905 100.721 590.606 100.721 592.55C100.721 594.494 100.397 596.204 99.7493 597.68C99.1013 599.138 98.1743 600.281 96.9683 601.109C95.7623 601.919 94.3223 602.324 92.6483 602.324ZM92.6483 600.326C93.7463 600.326 94.7273 600.02 95.5913 599.408C96.4733 598.778 97.1573 597.887 97.6433 596.735C98.1473 595.565 98.3993 594.17 98.3993 592.55C98.3993 590.93 98.1473 589.544 97.6433 588.392C97.1573 587.24 96.4733 586.358 95.5913 585.746C94.7273 585.116 93.7463 584.801 92.6483 584.801C91.5323 584.801 90.5423 585.116 89.6783 585.746C88.8143 586.358 88.1303 587.24 87.6263 588.392C87.1223 589.544 86.8703 590.93 86.8703 592.55C86.8703 594.17 87.1223 595.565 87.6263 596.735C88.1303 597.887 88.8143 598.778 89.6783 599.408C90.5423 600.02 91.5323 600.326 92.6483 600.326Z" fill="#949294"/>
<path d="M145 618.727L284.302 594.284L415.04 558.732L647.696 512.069L1267.82 326.529" stroke="#EDC161" stroke-width="6" stroke-linecap="round"/>
<path d="M146.044 617.615L287.779 571.508L407.945 526.512L776.807 272.088L912.819 243.202L1035.19 163.764L1272 30.9973" stroke="#5D45DB" stroke-width="6" stroke-linecap="round"/>
<path d="M146.044 617.616L288.667 597.031L543.538 515.805L669.873 485.762L788.285 455.719L910.218 420.113L1029.07 361.141L1155.41 302.168L1266.77 247.646" stroke="#6CB9AD" stroke-width="6" stroke-linecap="round"/>
<path d="M145 618.726L281.799 586.507L411.56 555.954L540.881 529.289L671.522 488.737L781.05 414.299L918.288 358.748L1033.09 279.866L1147.46 252.646L1268.86 198.761" stroke="#FF696D" stroke-width="6" stroke-linecap="round"/>
<path d="M1290.32 338.518C1288.67 338.518 1287.25 338.194 1286.08 337.546C1284.9 336.898 1283.98 336.034 1283.3 334.954C1282.66 333.874 1282.26 332.698 1282.12 331.426H1285.68C1285.9 332.674 1286.41 333.634 1287.23 334.306C1288.04 334.978 1289.09 335.314 1290.36 335.314C1292.11 335.314 1293.55 334.498 1294.68 332.866C1295.83 331.21 1296.44 328.678 1296.52 325.27C1295.94 326.326 1295.04 327.226 1293.82 327.97C1292.62 328.714 1291.22 329.086 1289.64 329.086C1288.22 329.086 1286.89 328.75 1285.64 328.078C1284.4 327.406 1283.39 326.47 1282.62 325.27C1281.85 324.046 1281.47 322.606 1281.47 320.95C1281.47 319.486 1281.83 318.106 1282.55 316.81C1283.27 315.514 1284.28 314.47 1285.57 313.678C1286.89 312.862 1288.45 312.454 1290.25 312.454C1292.1 312.454 1293.66 312.802 1294.93 313.498C1296.2 314.194 1297.22 315.118 1297.99 316.27C1298.76 317.422 1299.31 318.718 1299.65 320.158C1300.01 321.598 1300.19 323.074 1300.19 324.586C1300.19 327.37 1299.79 329.806 1299 331.894C1298.23 333.982 1297.12 335.614 1295.65 336.79C1294.19 337.942 1292.41 338.518 1290.32 338.518ZM1290.5 325.81C1291.51 325.81 1292.41 325.582 1293.2 325.126C1294 324.67 1294.62 324.07 1295.08 323.326C1295.56 322.558 1295.8 321.718 1295.8 320.806C1295.8 319.822 1295.56 318.958 1295.08 318.214C1294.62 317.446 1293.98 316.846 1293.17 316.414C1292.38 315.982 1291.48 315.766 1290.47 315.766C1289.46 315.766 1288.56 315.982 1287.77 316.414C1286.98 316.846 1286.34 317.446 1285.86 318.214C1285.4 318.958 1285.18 319.81 1285.18 320.77C1285.18 322.306 1285.68 323.53 1286.69 324.442C1287.7 325.354 1288.97 325.81 1290.5 325.81ZM1314.69 338.518C1312.41 338.518 1310.44 337.978 1308.79 336.898C1307.15 335.794 1305.89 334.27 1305.01 332.326C1304.14 330.358 1303.71 328.078 1303.71 325.486C1303.71 322.894 1304.14 320.626 1305.01 318.682C1305.89 316.714 1307.15 315.19 1308.79 314.11C1310.44 313.006 1312.41 312.454 1314.69 312.454C1316.97 312.454 1318.93 313.006 1320.56 314.11C1322.19 315.19 1323.44 316.714 1324.3 318.682C1325.19 320.626 1325.63 322.894 1325.63 325.486C1325.63 328.078 1325.19 330.358 1324.3 332.326C1323.44 334.27 1322.19 335.794 1320.56 336.898C1318.93 337.978 1316.97 338.518 1314.69 338.518ZM1314.69 335.098C1316.06 335.098 1317.27 334.714 1318.33 333.946C1319.41 333.178 1320.25 332.074 1320.85 330.634C1321.45 329.194 1321.75 327.478 1321.75 325.486C1321.75 323.494 1321.45 321.778 1320.85 320.338C1320.25 318.898 1319.41 317.794 1318.33 317.026C1317.27 316.258 1316.06 315.874 1314.69 315.874C1313.3 315.874 1312.07 316.258 1311.02 317.026C1309.96 317.794 1309.13 318.898 1308.53 320.338C1307.93 321.778 1307.63 323.494 1307.63 325.486C1307.63 327.478 1307.93 329.194 1308.53 330.634C1309.13 332.074 1309.96 333.178 1311.02 333.946C1312.07 334.714 1313.3 335.098 1314.69 335.098ZM1329.81 338.302C1329.09 338.302 1328.49 338.074 1328.01 337.618C1327.56 337.138 1327.33 336.574 1327.33 335.926C1327.33 335.254 1327.56 334.69 1328.01 334.234C1328.49 333.754 1329.09 333.514 1329.81 333.514C1330.53 333.514 1331.12 333.754 1331.58 334.234C1332.03 334.69 1332.26 335.254 1332.26 335.926C1332.26 336.574 1332.03 337.138 1331.58 337.618C1331.12 338.074 1330.53 338.302 1329.81 338.302ZM1344.41 338.518C1342.56 338.518 1341 338.17 1339.73 337.474C1338.46 336.778 1337.43 335.854 1336.64 334.702C1335.87 333.55 1335.32 332.254 1334.98 330.814C1334.64 329.374 1334.48 327.898 1334.48 326.386C1334.48 323.602 1334.86 321.166 1335.63 319.078C1336.42 316.99 1337.55 315.37 1339.01 314.218C1340.48 313.042 1342.25 312.454 1344.34 312.454C1346 312.454 1347.41 312.778 1348.59 313.426C1349.76 314.074 1350.68 314.938 1351.32 316.018C1352 317.098 1352.4 318.274 1352.55 319.546H1348.98C1348.77 318.298 1348.25 317.338 1347.44 316.666C1346.62 315.994 1345.58 315.658 1344.3 315.658C1342.55 315.658 1341.1 316.486 1339.95 318.142C1338.82 319.774 1338.22 322.294 1338.15 325.702C1338.72 324.646 1339.61 323.746 1340.81 323.002C1342.04 322.258 1343.44 321.886 1345.02 321.886C1346.44 321.886 1347.76 322.222 1348.98 322.894C1350.23 323.566 1351.24 324.514 1352.01 325.738C1352.8 326.938 1353.2 328.366 1353.2 330.022C1353.2 331.486 1352.84 332.866 1352.12 334.162C1351.4 335.458 1350.38 336.514 1349.06 337.33C1347.76 338.122 1346.21 338.518 1344.41 338.518ZM1344.2 335.206C1345.2 335.206 1346.1 334.99 1346.9 334.558C1347.69 334.126 1348.31 333.538 1348.77 332.794C1349.22 332.026 1349.45 331.162 1349.45 330.202C1349.45 328.666 1348.95 327.442 1347.94 326.53C1346.96 325.618 1345.7 325.162 1344.16 325.162C1343.15 325.162 1342.24 325.39 1341.42 325.846C1340.63 326.302 1340.01 326.914 1339.55 327.682C1339.1 328.426 1338.87 329.254 1338.87 330.166C1338.87 331.15 1339.1 332.026 1339.55 332.794C1340.03 333.538 1340.67 334.126 1341.46 334.558C1342.28 334.99 1343.19 335.206 1344.2 335.206Z" fill="#EDC161"/>
<path d="M1284.46 37V16.12L1280.39 17.056V14.248L1285.97 11.8H1288.42V37H1284.46ZM1293.03 37V34.264C1294.66 32.968 1296.22 31.66 1297.71 30.34C1299.2 29.02 1300.52 27.724 1301.67 26.452C1302.85 25.156 1303.77 23.896 1304.44 22.672C1305.12 21.424 1305.45 20.224 1305.45 19.072C1305.45 18.304 1305.32 17.584 1305.06 16.912C1304.79 16.216 1304.36 15.664 1303.76 15.256C1303.16 14.824 1302.36 14.608 1301.35 14.608C1299.84 14.608 1298.7 15.088 1297.93 16.048C1297.18 17.008 1296.82 18.16 1296.85 19.504H1293.14C1293.16 17.728 1293.54 16.24 1294.26 15.04C1295 13.84 1295.98 12.928 1297.21 12.304C1298.46 11.68 1299.86 11.368 1301.42 11.368C1303.8 11.368 1305.69 12.04 1307.11 13.384C1308.55 14.704 1309.27 16.552 1309.27 18.928C1309.27 20.344 1308.92 21.748 1308.22 23.14C1307.55 24.532 1306.66 25.876 1305.56 27.172C1304.48 28.444 1303.32 29.644 1302.07 30.772C1300.82 31.9 1299.63 32.92 1298.5 33.832H1310.02V37H1293.03ZM1322.2 37.432C1320.57 37.432 1319.08 37.144 1317.74 36.568C1316.42 35.968 1315.36 35.068 1314.57 33.868C1313.78 32.668 1313.36 31.168 1313.31 29.368H1317.09C1317.14 30.712 1317.59 31.852 1318.46 32.788C1319.35 33.7 1320.59 34.156 1322.2 34.156C1323.74 34.156 1324.91 33.736 1325.73 32.896C1326.55 32.032 1326.95 30.964 1326.95 29.692C1326.95 28.156 1326.4 27.016 1325.3 26.272C1324.22 25.528 1322.89 25.156 1321.3 25.156H1319.43V21.988H1321.34C1322.75 21.988 1323.89 21.652 1324.76 20.98C1325.65 20.308 1326.09 19.36 1326.09 18.136C1326.09 17.104 1325.74 16.264 1325.05 15.616C1324.37 14.968 1323.41 14.644 1322.17 14.644C1320.87 14.644 1319.85 15.028 1319.11 15.796C1318.36 16.54 1317.95 17.476 1317.88 18.604H1314.1C1314.15 17.14 1314.51 15.868 1315.18 14.788C1315.88 13.708 1316.83 12.868 1318.03 12.268C1319.23 11.668 1320.61 11.368 1322.17 11.368C1323.85 11.368 1325.25 11.668 1326.38 12.268C1327.53 12.844 1328.39 13.636 1328.97 14.644C1329.57 15.628 1329.87 16.708 1329.87 17.884C1329.87 19.228 1329.5 20.404 1328.75 21.412C1328.01 22.42 1327.01 23.092 1325.77 23.428C1327.21 23.74 1328.39 24.448 1329.33 25.552C1330.27 26.632 1330.73 28.036 1330.73 29.764C1330.73 31.156 1330.41 32.44 1329.76 33.616C1329.11 34.768 1328.15 35.692 1326.88 36.388C1325.61 37.084 1324.05 37.432 1322.2 37.432ZM1336.81 37.216C1336.09 37.216 1335.49 36.988 1335.01 36.532C1334.55 36.052 1334.33 35.488 1334.33 34.84C1334.33 34.168 1334.55 33.604 1335.01 33.148C1335.49 32.668 1336.09 32.428 1336.81 32.428C1337.53 32.428 1338.12 32.668 1338.57 33.148C1339.03 33.604 1339.26 34.168 1339.26 34.84C1339.26 35.488 1339.03 36.052 1338.57 36.532C1338.12 36.988 1337.53 37.216 1336.81 37.216ZM1342.74 37V34.264C1344.37 32.968 1345.93 31.66 1347.42 30.34C1348.91 29.02 1350.23 27.724 1351.38 26.452C1352.56 25.156 1353.48 23.896 1354.15 22.672C1354.83 21.424 1355.16 20.224 1355.16 19.072C1355.16 18.304 1355.03 17.584 1354.77 16.912C1354.5 16.216 1354.07 15.664 1353.47 15.256C1352.87 14.824 1352.07 14.608 1351.06 14.608C1349.55 14.608 1348.41 15.088 1347.64 16.048C1346.89 17.008 1346.53 18.16 1346.56 19.504H1342.85C1342.87 17.728 1343.25 16.24 1343.97 15.04C1344.71 13.84 1345.69 12.928 1346.92 12.304C1348.17 11.68 1349.57 11.368 1351.13 11.368C1353.51 11.368 1355.4 12.04 1356.82 13.384C1358.26 14.704 1358.98 16.552 1358.98 18.928C1358.98 20.344 1358.63 21.748 1357.93 23.14C1357.26 24.532 1356.37 25.876 1355.27 27.172C1354.19 28.444 1353.03 29.644 1351.78 30.772C1350.53 31.9 1349.34 32.92 1348.21 33.832H1359.73V37H1342.74Z" fill="#5D45DB"/>
<path d="M1284.46 209.208V188.328L1280.39 189.264V186.456L1285.97 184.008H1288.42V209.208H1284.46ZM1293.03 209.208V206.472C1294.66 205.176 1296.22 203.868 1297.71 202.548C1299.2 201.228 1300.52 199.932 1301.67 198.66C1302.85 197.364 1303.77 196.104 1304.44 194.88C1305.12 193.632 1305.45 192.432 1305.45 191.28C1305.45 190.512 1305.32 189.792 1305.06 189.12C1304.79 188.424 1304.36 187.872 1303.76 187.464C1303.16 187.032 1302.36 186.816 1301.35 186.816C1299.84 186.816 1298.7 187.296 1297.93 188.256C1297.18 189.216 1296.82 190.368 1296.85 191.712H1293.14C1293.16 189.936 1293.54 188.448 1294.26 187.248C1295 186.048 1295.98 185.136 1297.21 184.512C1298.46 183.888 1299.86 183.576 1301.42 183.576C1303.8 183.576 1305.69 184.248 1307.11 185.592C1308.55 186.912 1309.27 188.76 1309.27 191.136C1309.27 192.552 1308.92 193.956 1308.22 195.348C1307.55 196.74 1306.66 198.084 1305.56 199.38C1304.48 200.652 1303.32 201.852 1302.07 202.98C1300.82 204.108 1299.63 205.128 1298.5 206.04H1310.02V209.208H1293.03ZM1322.92 209.64C1321.15 209.64 1319.61 209.328 1318.31 208.704C1317.02 208.056 1315.99 207.18 1315.22 206.076C1314.47 204.948 1314.02 203.676 1313.85 202.26H1317.59C1317.83 203.46 1318.43 204.456 1319.39 205.248C1320.35 206.016 1321.54 206.4 1322.96 206.4C1324.01 206.4 1324.93 206.148 1325.69 205.644C1326.46 205.116 1327.06 204.42 1327.49 203.556C1327.93 202.692 1328.14 201.72 1328.14 200.64C1328.14 198.936 1327.66 197.58 1326.7 196.572C1325.74 195.54 1324.53 195.024 1323.07 195.024C1321.82 195.024 1320.75 195.324 1319.86 195.924C1318.97 196.5 1318.33 197.232 1317.92 198.12H1314.28L1316.44 184.008H1330.05V187.356H1319.32L1318.03 194.088C1318.58 193.464 1319.33 192.948 1320.29 192.54C1321.28 192.108 1322.38 191.892 1323.61 191.892C1325.31 191.892 1326.77 192.288 1328 193.08C1329.22 193.848 1330.16 194.892 1330.81 196.212C1331.48 197.532 1331.81 198.996 1331.81 200.604C1331.81 202.284 1331.45 203.808 1330.73 205.176C1330.01 206.544 1328.98 207.636 1327.64 208.452C1326.32 209.244 1324.75 209.64 1322.92 209.64ZM1337.69 209.424C1336.97 209.424 1336.37 209.196 1335.89 208.74C1335.43 208.26 1335.2 207.696 1335.2 207.048C1335.2 206.376 1335.43 205.812 1335.89 205.356C1336.37 204.876 1336.97 204.636 1337.69 204.636C1338.41 204.636 1339 204.876 1339.45 205.356C1339.91 205.812 1340.14 206.376 1340.14 207.048C1340.14 207.696 1339.91 208.26 1339.45 208.74C1339 209.196 1338.41 209.424 1337.69 209.424ZM1343.62 209.208V206.472C1345.25 205.176 1346.81 203.868 1348.3 202.548C1349.79 201.228 1351.11 199.932 1352.26 198.66C1353.44 197.364 1354.36 196.104 1355.03 194.88C1355.71 193.632 1356.04 192.432 1356.04 191.28C1356.04 190.512 1355.91 189.792 1355.65 189.12C1355.38 188.424 1354.95 187.872 1354.35 187.464C1353.75 187.032 1352.95 186.816 1351.94 186.816C1350.43 186.816 1349.29 187.296 1348.52 188.256C1347.77 189.216 1347.41 190.368 1347.44 191.712H1343.73C1343.75 189.936 1344.13 188.448 1344.85 187.248C1345.59 186.048 1346.57 185.136 1347.8 184.512C1349.05 183.888 1350.45 183.576 1352.01 183.576C1354.39 183.576 1356.28 184.248 1357.7 185.592C1359.14 186.912 1359.86 188.76 1359.86 191.136C1359.86 192.552 1359.51 193.956 1358.81 195.348C1358.14 196.74 1357.25 198.084 1356.15 199.38C1355.07 200.652 1353.91 201.852 1352.66 202.98C1351.41 204.108 1350.22 205.128 1349.09 206.04H1360.61V209.208H1343.62Z" fill="#FF696D"/>
<path d="M1284.46 258.093V237.213L1280.39 238.149V235.341L1285.97 232.893H1288.42V258.093H1284.46ZM1296.13 258.093V237.213L1292.06 238.149V235.341L1297.64 232.893H1300.09V258.093H1296.13ZM1313.99 258.525C1312.22 258.525 1310.68 258.213 1309.38 257.589C1308.09 256.941 1307.06 256.065 1306.29 254.961C1305.54 253.833 1305.09 252.561 1304.92 251.145H1308.66C1308.9 252.345 1309.5 253.341 1310.46 254.133C1311.42 254.901 1312.61 255.285 1314.03 255.285C1315.08 255.285 1316 255.033 1316.76 254.529C1317.53 254.001 1318.13 253.305 1318.56 252.441C1319 251.577 1319.21 250.605 1319.21 249.525C1319.21 247.821 1318.73 246.465 1317.77 245.457C1316.81 244.425 1315.6 243.909 1314.14 243.909C1312.89 243.909 1311.82 244.209 1310.93 244.809C1310.04 245.385 1309.4 246.117 1308.99 247.005H1305.35L1307.51 232.893H1321.12V236.241H1310.39L1309.1 242.973C1309.65 242.349 1310.4 241.833 1311.36 241.425C1312.35 240.993 1313.45 240.777 1314.68 240.777C1316.38 240.777 1317.84 241.173 1319.07 241.965C1320.29 242.733 1321.23 243.777 1321.88 245.097C1322.55 246.417 1322.88 247.881 1322.88 249.489C1322.88 251.169 1322.52 252.693 1321.8 254.061C1321.08 255.429 1320.05 256.521 1318.71 257.337C1317.39 258.129 1315.82 258.525 1313.99 258.525ZM1328.76 258.309C1328.04 258.309 1327.44 258.081 1326.96 257.625C1326.5 257.145 1326.28 256.581 1326.28 255.933C1326.28 255.261 1326.5 254.697 1326.96 254.241C1327.44 253.761 1328.04 253.521 1328.76 253.521C1329.48 253.521 1330.07 253.761 1330.52 254.241C1330.98 254.697 1331.21 255.261 1331.21 255.933C1331.21 256.581 1330.98 257.145 1330.52 257.625C1330.07 258.081 1329.48 258.309 1328.76 258.309ZM1343.26 258.525C1341.63 258.525 1340.14 258.237 1338.8 257.661C1337.48 257.061 1336.42 256.161 1335.63 254.961C1334.84 253.761 1334.42 252.261 1334.37 250.461H1338.15C1338.2 251.805 1338.65 252.945 1339.52 253.881C1340.4 254.793 1341.65 255.249 1343.26 255.249C1344.8 255.249 1345.97 254.829 1346.79 253.989C1347.6 253.125 1348.01 252.057 1348.01 250.785C1348.01 249.249 1347.46 248.109 1346.36 247.365C1345.28 246.621 1343.94 246.249 1342.36 246.249H1340.49V243.081H1342.4C1343.81 243.081 1344.95 242.745 1345.82 242.073C1346.7 241.401 1347.15 240.453 1347.15 239.229C1347.15 238.197 1346.8 237.357 1346.1 236.709C1345.43 236.061 1344.47 235.737 1343.22 235.737C1341.93 235.737 1340.91 236.121 1340.16 236.889C1339.42 237.633 1339.01 238.569 1338.94 239.697H1335.16C1335.21 238.233 1335.57 236.961 1336.24 235.881C1336.94 234.801 1337.88 233.961 1339.08 233.361C1340.28 232.761 1341.66 232.461 1343.22 232.461C1344.9 232.461 1346.31 232.761 1347.44 233.361C1348.59 233.937 1349.45 234.729 1350.03 235.737C1350.63 236.721 1350.93 237.801 1350.93 238.977C1350.93 240.321 1350.56 241.497 1349.81 242.505C1349.07 243.513 1348.07 244.185 1346.82 244.521C1348.26 244.833 1349.45 245.541 1350.39 246.645C1351.32 247.725 1351.79 249.129 1351.79 250.857C1351.79 252.249 1351.47 253.533 1350.82 254.709C1350.17 255.861 1349.21 256.785 1347.94 257.481C1346.67 258.177 1345.11 258.525 1343.26 258.525Z" fill="#6CB9AD"/>
<path d="M168.895 699.118L167.545 698.272C167.371 696.653 167.15 695.091 166.884 693.586C166.611 692.055 166.283 690.648 165.897 689.365C165.522 688.067 165.056 686.946 164.501 686.003C163.955 685.044 163.3 684.326 162.538 683.847C161.974 683.494 161.386 683.263 160.773 683.155C160.171 683.032 159.59 683.093 159.033 683.338C158.46 683.574 157.944 684.057 157.485 684.789C157.045 685.491 156.837 686.178 156.861 686.852C156.869 687.516 157.056 688.132 157.421 688.702C157.796 689.255 158.281 689.719 158.876 690.092L157.714 691.945C156.661 691.285 155.9 690.499 155.431 689.588C154.946 688.668 154.744 687.702 154.826 686.691C154.908 685.68 155.25 684.694 155.853 683.733C156.742 682.315 157.873 681.41 159.246 681.017C160.613 680.6 162.089 680.888 163.675 681.883C164.62 682.476 165.41 683.301 166.043 684.357C166.661 685.404 167.176 686.566 167.586 687.843C167.98 689.11 168.288 690.398 168.509 691.705C168.74 692.997 168.928 694.188 169.073 695.278L173.923 687.547L175.524 688.551L168.895 699.118ZM181.315 679.929C180.425 681.347 179.312 682.359 177.976 682.966C176.633 683.548 175.173 683.725 173.593 683.5C171.998 683.264 170.378 682.63 168.731 681.597C167.084 680.564 165.815 679.385 164.925 678.062C164.019 676.728 163.543 675.336 163.498 673.884C163.447 672.407 163.866 670.959 164.756 669.541C165.645 668.123 166.761 667.123 168.103 666.542C169.43 665.95 170.891 665.773 172.486 666.008C174.065 666.234 175.678 666.863 177.325 667.896C178.972 668.929 180.248 670.113 181.154 671.446C182.045 672.77 182.521 674.162 182.581 675.624C182.627 677.076 182.205 678.511 181.315 679.929ZM179.622 678.867C180.206 677.937 180.468 676.944 180.409 675.886C180.344 674.805 179.952 673.752 179.235 672.728C178.511 671.679 177.464 670.724 176.091 669.863C174.719 669.003 173.411 668.479 172.167 668.294C170.933 668.094 169.823 668.204 168.835 668.626C167.843 669.024 167.054 669.687 166.471 670.617C165.878 671.563 165.619 672.569 165.693 673.635C165.752 674.693 166.136 675.741 166.844 676.78C167.552 677.819 168.592 678.769 169.965 679.63C171.337 680.491 172.653 681.019 173.912 681.213C175.155 681.399 176.274 681.293 177.266 680.895C178.244 680.489 179.029 679.813 179.622 678.867ZM188.062 668.564L174.201 659.869L173.152 662.813L171.825 661.98L172.453 657.88L173.271 656.577L189.281 666.62L188.062 668.564ZM195.593 657.169C194.703 658.587 193.59 659.599 192.254 660.205C190.911 660.787 189.45 660.965 187.871 660.739C186.276 660.504 184.656 659.869 183.009 658.836C181.362 657.803 180.093 656.625 179.202 655.301C178.296 653.968 177.821 652.575 177.776 651.123C177.725 649.646 178.144 648.199 179.033 646.781C179.923 645.363 181.039 644.363 182.381 643.781C183.708 643.19 185.169 643.012 186.764 643.248C188.343 643.473 189.956 644.103 191.603 645.136C193.25 646.169 194.526 647.352 195.432 648.685C196.323 650.009 196.799 651.402 196.859 652.863C196.905 654.316 196.482 655.751 195.593 657.169ZM193.9 656.107C194.484 655.177 194.746 654.183 194.687 653.126C194.622 652.044 194.23 650.991 193.513 649.967C192.789 648.919 191.742 647.964 190.369 647.103C188.997 646.242 187.689 645.719 186.445 645.534C185.211 645.333 184.1 645.444 183.113 645.866C182.12 646.263 181.332 646.927 180.749 647.857C180.156 648.802 179.897 649.808 179.971 650.875C180.03 651.932 180.414 652.98 181.122 654.019C181.83 655.058 182.87 656.008 184.243 656.869C185.615 657.73 186.931 658.258 188.19 658.453C189.433 658.638 190.552 658.532 191.544 658.135C192.522 657.728 193.307 657.052 193.9 656.107Z" fill="#949294"/>
<path d="M299.623 694.397L298.274 693.551C298.099 691.932 297.879 690.37 297.612 688.864C297.34 687.334 297.011 685.927 296.626 684.644C296.25 683.346 295.785 682.225 295.229 681.282C294.683 680.323 294.029 679.605 293.266 679.126C292.702 678.772 292.114 678.541 291.502 678.434C290.899 678.311 290.319 678.372 289.761 678.617C289.189 678.852 288.673 679.336 288.213 680.068C287.773 680.769 287.565 681.457 287.589 682.131C287.597 682.795 287.784 683.411 288.15 683.98C288.525 684.534 289.01 684.998 289.604 685.371L288.442 687.223C287.39 686.563 286.629 685.778 286.159 684.867C285.674 683.947 285.473 682.981 285.554 681.97C285.636 680.959 285.978 679.973 286.581 679.012C287.471 677.594 288.602 676.689 289.974 676.296C291.341 675.879 292.817 676.167 294.403 677.162C295.348 677.755 296.138 678.58 296.772 679.636C297.39 680.682 297.904 681.844 298.314 683.121C298.709 684.389 299.017 685.676 299.238 686.984C299.468 688.276 299.656 689.467 299.801 690.557L304.651 682.826L306.252 683.83L299.623 694.397ZM312.043 675.208C311.154 676.626 310.041 677.638 308.704 678.245C307.362 678.826 305.901 679.004 304.322 678.778C302.727 678.543 301.106 677.909 299.459 676.876C297.812 675.843 296.544 674.664 295.653 673.34C294.747 672.007 294.271 670.614 294.226 669.162C294.175 667.686 294.594 666.238 295.484 664.82C296.374 663.402 297.489 662.402 298.832 661.82C300.159 661.229 301.62 661.051 303.214 661.287C304.794 661.513 306.407 662.142 308.054 663.175C309.701 664.208 310.977 665.391 311.883 666.725C312.774 668.048 313.249 669.441 313.31 670.903C313.355 672.355 312.933 673.79 312.043 675.208ZM310.351 674.146C310.934 673.216 311.196 672.222 311.137 671.165C311.072 670.083 310.681 669.03 309.963 668.007C309.24 666.958 308.192 666.003 306.82 665.142C305.447 664.281 304.139 663.758 302.896 663.573C301.662 663.373 300.551 663.483 299.564 663.905C298.571 664.302 297.783 664.966 297.199 665.896C296.606 666.841 296.347 667.848 296.422 668.914C296.481 669.971 296.865 671.019 297.573 672.059C298.281 673.098 299.321 674.048 300.693 674.909C302.066 675.769 303.381 676.297 304.64 676.492C305.884 676.677 307.002 676.571 307.995 676.174C308.973 675.768 309.758 675.092 310.351 674.146ZM318.79 663.843L304.93 655.148L303.88 658.091L302.554 657.259L303.181 653.159L303.999 651.855L320.01 661.899L318.79 663.843ZM323.12 656.941L309.259 648.246L308.21 651.19L306.883 650.357L307.511 646.257L308.329 644.953L324.339 654.997L323.12 656.941Z" fill="#949294"/>
<path d="M424.572 697.619L423.222 696.773C423.048 695.155 422.827 693.593 422.56 692.087C422.288 690.556 421.96 689.149 421.574 687.866C421.199 686.568 420.733 685.448 420.178 684.504C419.632 683.545 418.977 682.827 418.215 682.349C417.651 681.995 417.063 681.764 416.45 681.656C415.848 681.533 415.267 681.594 414.71 681.839C414.137 682.075 413.621 682.559 413.162 683.29C412.722 683.992 412.514 684.679 412.537 685.353C412.546 686.017 412.733 686.634 413.098 687.203C413.473 687.757 413.958 688.22 414.553 688.593L413.39 690.446C412.338 689.786 411.577 689 411.108 688.089C410.623 687.169 410.421 686.203 410.503 685.192C410.585 684.181 410.927 683.195 411.53 682.235C412.419 680.816 413.55 679.911 414.923 679.518C416.289 679.101 417.766 679.39 419.352 680.384C420.297 680.977 421.086 681.802 421.72 682.858C422.338 683.905 422.853 685.067 423.263 686.344C423.657 687.611 423.965 688.899 424.186 690.206C424.417 691.498 424.605 692.689 424.75 693.779L429.6 686.048L431.201 687.052L424.572 697.619ZM436.992 678.43C436.102 679.848 434.989 680.861 433.653 681.467C432.31 682.049 430.849 682.227 429.27 682.001C427.675 681.765 426.055 681.131 424.408 680.098C422.761 679.065 421.492 677.887 420.601 676.563C419.695 675.23 419.22 673.837 419.175 672.385C419.124 670.908 419.543 669.46 420.432 668.042C421.322 666.624 422.438 665.624 423.78 665.043C425.107 664.452 426.568 664.274 428.163 664.509C429.742 664.735 431.355 665.364 433.002 666.398C434.649 667.431 435.925 668.614 436.831 669.947C437.722 671.271 438.198 672.663 438.258 674.125C438.304 675.577 437.881 677.012 436.992 678.43ZM435.299 677.369C435.883 676.438 436.145 675.445 436.086 674.388C436.021 673.306 435.629 672.253 434.912 671.229C434.188 670.18 433.141 669.225 431.768 668.365C430.396 667.504 429.088 666.981 427.844 666.795C426.61 666.595 425.499 666.706 424.512 667.128C423.519 667.525 422.731 668.188 422.148 669.118C421.555 670.064 421.296 671.07 421.37 672.137C421.429 673.194 421.813 674.242 422.521 675.281C423.229 676.32 424.269 677.27 425.642 678.131C427.014 678.992 428.33 679.52 429.589 679.714C430.832 679.9 431.951 679.794 432.943 679.397C433.921 678.99 434.706 678.314 435.299 677.369ZM443.739 667.065L429.878 658.371L428.829 661.314L427.502 660.482L428.13 656.381L428.948 655.078L444.958 665.121L443.739 667.065ZM446.921 661.993L445.571 661.147C445.396 659.529 445.176 657.966 444.909 656.461C444.637 654.93 444.308 653.523 443.923 652.24C443.547 650.942 443.082 649.822 442.526 648.878C441.98 647.919 441.326 647.201 440.564 646.723C439.999 646.369 439.411 646.138 438.799 646.03C438.196 645.907 437.616 645.968 437.059 646.213C436.486 646.449 435.97 646.932 435.511 647.664C435.071 648.366 434.862 649.053 434.886 649.727C434.895 650.391 435.081 651.007 435.447 651.577C435.822 652.131 436.307 652.594 436.901 652.967L435.739 654.82C434.687 654.16 433.926 653.374 433.456 652.463C432.971 651.543 432.77 650.577 432.852 649.566C432.933 648.555 433.276 647.569 433.878 646.608C434.768 645.19 435.899 644.285 437.271 643.892C438.638 643.475 440.114 643.764 441.7 644.758C442.646 645.351 443.435 646.176 444.069 647.232C444.687 648.279 445.201 649.441 445.611 650.718C446.006 651.985 446.314 653.273 446.535 654.58C446.766 655.872 446.953 657.063 447.099 658.153L451.948 650.422L453.549 651.426L446.921 661.993Z" fill="#949294"/>
<path d="M553.177 697.977L551.828 697.13C551.653 695.512 551.432 693.95 551.166 692.444C550.894 690.913 550.565 689.507 550.18 688.224C549.804 686.926 549.339 685.805 548.783 684.862C548.237 683.903 547.583 683.184 546.82 682.706C546.256 682.352 545.668 682.121 545.056 682.013C544.453 681.89 543.873 681.951 543.315 682.197C542.742 682.432 542.226 682.916 541.767 683.648C541.327 684.349 541.119 685.037 541.143 685.71C541.151 686.374 541.338 686.991 541.704 687.56C542.079 688.114 542.563 688.578 543.158 688.951L541.996 690.803C540.944 690.143 540.183 689.358 539.713 688.447C539.228 687.526 539.026 686.561 539.108 685.55C539.19 684.538 539.532 683.553 540.135 682.592C541.024 681.174 542.156 680.268 543.528 679.876C544.895 679.458 546.371 679.747 547.957 680.742C548.902 681.335 549.692 682.159 550.325 683.216C550.944 684.262 551.458 685.424 551.868 686.701C552.263 687.969 552.571 689.256 552.792 690.564C553.022 691.856 553.21 693.047 553.355 694.136L558.205 686.405L559.806 687.41L553.177 697.977ZM565.597 678.788C564.708 680.206 563.595 681.218 562.258 681.824C560.916 682.406 559.455 682.584 557.875 682.358C556.281 682.123 554.66 681.488 553.013 680.455C551.366 679.422 550.098 678.244 549.207 676.92C548.301 675.587 547.825 674.194 547.78 672.742C547.729 671.265 548.148 669.818 549.038 668.4C549.927 666.982 551.043 665.982 552.386 665.4C553.713 664.809 555.174 664.631 556.768 664.867C558.348 665.092 559.961 665.722 561.608 666.755C563.254 667.788 564.531 668.971 565.437 670.304C566.328 671.628 566.803 673.021 566.864 674.482C566.909 675.935 566.487 677.37 565.597 678.788ZM563.905 677.726C564.488 676.796 564.75 675.802 564.691 674.745C564.626 673.663 564.235 672.61 563.517 671.586C562.794 670.538 561.746 669.583 560.374 668.722C559.001 667.861 557.693 667.338 556.45 667.153C555.215 666.952 554.105 667.063 553.118 667.485C552.125 667.882 551.337 668.546 550.753 669.476C550.16 670.421 549.901 671.427 549.975 672.494C550.035 673.551 550.418 674.599 551.127 675.638C551.835 676.677 552.875 677.627 554.247 678.488C555.619 679.349 556.935 679.877 558.194 680.072C559.438 680.257 560.556 680.151 561.549 679.754C562.526 679.347 563.312 678.671 563.905 677.726ZM572.344 667.423L558.484 658.728L557.434 661.671L556.107 660.839L556.735 656.739L557.553 655.435L573.564 665.479L572.344 667.423ZM579.086 657.285C578.445 658.307 577.684 659.115 576.801 659.708C575.903 660.293 574.923 660.602 573.86 660.636C572.807 660.656 571.714 660.331 570.582 659.664L571.802 657.72C572.726 658.278 573.72 658.455 574.783 658.251C575.831 658.037 576.709 657.366 577.416 656.238C578.124 655.109 578.343 654.067 578.071 653.111C577.81 652.139 577.237 651.376 576.352 650.821C575.605 650.352 574.88 650.153 574.178 650.222C573.485 650.276 572.833 650.537 572.222 651.003C571.62 651.454 571.095 652.038 570.645 652.755L569.899 653.944L568.275 652.926L569.021 651.736C569.671 650.699 569.942 649.743 569.833 648.867C569.733 647.976 569.256 647.262 568.403 646.727C567.686 646.277 566.951 646.145 566.197 646.331C565.437 646.492 564.77 647.03 564.196 647.945C563.641 648.829 563.464 649.705 563.662 650.574C563.846 651.433 564.315 652.141 565.07 652.7L563.85 654.644C563.01 654.053 562.383 653.341 561.971 652.509C561.568 651.661 561.413 650.756 561.506 649.795C561.584 648.824 561.924 647.858 562.527 646.897C563.177 645.86 563.9 645.114 564.697 644.657C565.503 644.185 566.321 643.965 567.151 643.997C567.99 644.014 568.776 644.252 569.508 644.711C570.316 645.218 570.917 645.903 571.31 646.766C571.689 647.619 571.715 648.56 571.389 649.588C572.18 648.767 573.122 648.264 574.216 648.079C575.31 647.893 576.428 648.16 577.572 648.877C578.456 649.432 579.143 650.149 579.632 651.03C580.115 651.885 580.329 652.848 580.274 653.919C580.218 654.989 579.823 656.111 579.086 657.285Z" fill="#949294"/>
<path d="M682.286 697.955L680.937 697.109C680.762 695.49 680.541 693.928 680.275 692.422C680.002 690.892 679.674 689.485 679.289 688.202C678.913 686.904 678.447 685.783 677.892 684.84C677.346 683.881 676.692 683.163 675.929 682.684C675.365 682.33 674.777 682.1 674.164 681.992C673.562 681.869 672.982 681.93 672.424 682.175C671.851 682.41 671.335 682.894 670.876 683.626C670.436 684.328 670.228 685.015 670.252 685.689C670.26 686.353 670.447 686.969 670.812 687.538C671.187 688.092 671.672 688.556 672.267 688.929L671.105 690.781C670.053 690.121 669.292 689.336 668.822 688.425C668.337 687.505 668.135 686.539 668.217 685.528C668.299 684.517 668.641 683.531 669.244 682.57C670.133 681.152 671.264 680.247 672.637 679.854C674.004 679.437 675.48 679.725 677.066 680.72C678.011 681.313 678.801 682.138 679.434 683.194C680.053 684.24 680.567 685.402 680.977 686.679C681.372 687.947 681.679 689.234 681.901 690.542C682.131 691.834 682.319 693.025 682.464 694.115L687.314 686.384L688.915 687.388L682.286 697.955ZM694.706 678.766C693.816 680.184 692.703 681.196 691.367 681.803C690.024 682.384 688.564 682.562 686.984 682.336C685.389 682.101 683.769 681.467 682.122 680.434C680.475 679.401 679.206 678.222 678.316 676.898C677.41 675.565 676.934 674.172 676.889 672.72C676.838 671.244 677.257 669.796 678.147 668.378C679.036 666.96 680.152 665.96 681.494 665.378C682.821 664.787 684.282 664.609 685.877 664.845C687.456 665.071 689.07 665.7 690.716 666.733C692.363 667.766 693.64 668.949 694.546 670.283C695.436 671.606 695.912 672.999 695.972 674.461C696.018 675.913 695.596 677.348 694.706 678.766ZM693.014 677.704C693.597 676.774 693.859 675.78 693.8 674.723C693.735 673.641 693.344 672.588 692.626 671.565C691.903 670.516 690.855 669.561 689.482 668.7C688.11 667.839 686.802 667.316 685.558 667.131C684.324 666.931 683.214 667.041 682.226 667.463C681.234 667.86 680.446 668.524 679.862 669.454C679.269 670.399 679.01 671.406 679.084 672.472C679.144 673.529 679.527 674.577 680.235 675.617C680.943 676.656 681.984 677.606 683.356 678.467C684.728 679.327 686.044 679.855 687.303 680.05C688.547 680.235 689.665 680.129 690.658 679.732C691.635 679.326 692.42 678.65 693.014 677.704ZM701.453 667.401L687.592 658.706L686.543 661.649L685.216 660.817L685.844 656.717L686.662 655.413L702.672 665.457L701.453 667.401ZM709.341 654.827L705.91 652.675L700.816 660.794L699.33 659.862L693.115 645.126L694.521 642.885L705.408 649.715L706.901 647.336L708.593 648.398L707.101 650.776L710.532 652.929L709.341 654.827ZM700.458 657.605L704.275 651.521L695.515 646.026L700.458 657.605Z" fill="#949294"/>
<path d="M811.549 698.111L810.199 697.265C810.025 695.647 809.804 694.085 809.537 692.579C809.265 691.048 808.936 689.641 808.551 688.358C808.176 687.06 807.71 685.94 807.155 684.996C806.609 684.037 805.954 683.319 805.192 682.841C804.628 682.487 804.039 682.256 803.427 682.148C802.824 682.025 802.244 682.086 801.687 682.331C801.114 682.567 800.598 683.051 800.139 683.782C799.699 684.484 799.491 685.171 799.514 685.845C799.523 686.509 799.71 687.126 800.075 687.695C800.45 688.249 800.935 688.712 801.53 689.085L800.367 690.938C799.315 690.278 798.554 689.492 798.085 688.581C797.6 687.661 797.398 686.695 797.48 685.684C797.562 684.673 797.904 683.687 798.506 682.727C799.396 681.308 800.527 680.403 801.9 680.01C803.266 679.593 804.743 679.882 806.329 680.876C807.274 681.469 808.063 682.294 808.697 683.35C809.315 684.397 809.83 685.559 810.24 686.836C810.634 688.103 810.942 689.391 811.163 690.698C811.394 691.99 811.582 693.181 811.727 694.271L816.577 686.54L818.178 687.544L811.549 698.111ZM823.969 678.922C823.079 680.34 821.966 681.353 820.63 681.959C819.287 682.541 817.826 682.719 816.247 682.493C814.652 682.257 813.031 681.623 811.385 680.59C809.738 679.557 808.469 678.379 807.578 677.055C806.672 675.722 806.197 674.329 806.151 672.877C806.101 671.4 806.52 669.952 807.409 668.534C808.299 667.116 809.415 666.116 810.757 665.535C812.084 664.944 813.545 664.766 815.14 665.001C816.719 665.227 818.332 665.857 819.979 666.89C821.626 667.923 822.902 669.106 823.808 670.439C824.699 671.763 825.175 673.155 825.235 674.617C825.281 676.069 824.858 677.504 823.969 678.922ZM822.276 677.861C822.86 676.93 823.122 675.937 823.063 674.88C822.998 673.798 822.606 672.745 821.889 671.721C821.165 670.672 820.118 669.717 818.745 668.857C817.373 667.996 816.065 667.473 814.821 667.287C813.587 667.087 812.476 667.198 811.489 667.62C810.496 668.017 809.708 668.68 809.125 669.61C808.532 670.556 808.272 671.562 808.347 672.629C808.406 673.686 808.79 674.734 809.498 675.773C810.206 676.812 811.246 677.762 812.619 678.623C813.991 679.484 815.307 680.012 816.566 680.206C817.809 680.392 818.928 680.286 819.92 679.889C820.898 679.482 821.683 678.806 822.276 677.861ZM830.716 667.557L816.855 658.863L815.806 661.806L814.479 660.974L815.107 656.873L815.925 655.57L831.935 665.613L830.716 667.557ZM837.745 656.962C837.056 658.06 836.26 658.889 835.356 659.448C834.453 660.008 833.505 660.316 832.513 660.374C831.515 660.406 830.54 660.199 829.589 659.751L830.765 657.875C831.765 658.247 832.749 658.27 833.719 657.943C834.674 657.607 835.471 656.928 836.112 655.906C836.59 655.144 836.826 654.378 836.82 653.609C836.798 652.831 836.573 652.106 836.145 651.433C835.727 650.746 835.144 650.167 834.397 649.699C833.207 648.953 832.036 648.686 830.883 648.897C829.731 649.109 828.819 649.749 828.15 650.816C827.595 651.7 827.32 652.58 827.324 653.453C827.328 654.327 827.56 655.11 828.019 655.801L826.871 657.631L818.949 650.749L824.214 642.355L825.884 643.403L821.551 650.31L825.834 654.304C825.622 653.66 825.572 652.928 825.684 652.106C825.805 651.268 826.129 650.43 826.655 649.591C827.315 648.539 828.133 647.778 829.109 647.306C830.094 646.819 831.145 646.618 832.261 646.702C833.377 646.785 834.469 647.162 835.536 647.832C836.558 648.473 837.364 649.287 837.956 650.274C838.557 651.246 838.854 652.314 838.846 653.478C838.848 654.627 838.481 655.788 837.745 656.962Z" fill="#949294"/>
<path d="M941.189 698.09L939.84 697.243C939.665 695.625 939.444 694.063 939.178 692.557C938.905 691.027 938.577 689.62 938.192 688.337C937.816 687.039 937.35 685.918 936.795 684.975C936.249 684.016 935.595 683.297 934.832 682.819C934.268 682.465 933.68 682.234 933.067 682.127C932.465 682.003 931.885 682.064 931.327 682.31C930.754 682.545 930.238 683.029 929.779 683.761C929.339 684.462 929.131 685.15 929.155 685.823C929.163 686.487 929.35 687.104 929.715 687.673C930.09 688.227 930.575 688.691 931.17 689.064L930.008 690.916C928.956 690.256 928.195 689.471 927.725 688.56C927.24 687.64 927.038 686.674 927.12 685.663C927.202 684.652 927.544 683.666 928.147 682.705C929.036 681.287 930.167 680.382 931.54 679.989C932.907 679.571 934.383 679.86 935.969 680.855C936.914 681.448 937.704 682.273 938.337 683.329C938.956 684.375 939.47 685.537 939.88 686.814C940.275 688.082 940.582 689.369 940.804 690.677C941.034 691.969 941.222 693.16 941.367 694.249L946.217 686.519L947.818 687.523L941.189 698.09ZM953.609 678.901C952.72 680.319 951.606 681.331 950.27 681.938C948.928 682.519 947.467 682.697 945.887 682.471C944.293 682.236 942.672 681.602 941.025 680.568C939.378 679.535 938.109 678.357 937.219 677.033C936.313 675.7 935.837 674.307 935.792 672.855C935.741 671.378 936.16 669.931 937.05 668.513C937.939 667.095 939.055 666.095 940.397 665.513C941.724 664.922 943.185 664.744 944.78 664.98C946.36 665.206 947.973 665.835 949.619 666.868C951.266 667.901 952.543 669.084 953.449 670.418C954.339 671.741 954.815 673.134 954.876 674.596C954.921 676.048 954.499 677.483 953.609 678.901ZM951.917 677.839C952.5 676.909 952.762 675.915 952.703 674.858C952.638 673.776 952.247 672.723 951.529 671.699C950.806 670.651 949.758 669.696 948.385 668.835C947.013 667.974 945.705 667.451 944.461 667.266C943.227 667.065 942.117 667.176 941.13 667.598C940.137 667.995 939.349 668.659 938.765 669.589C938.172 670.534 937.913 671.54 937.987 672.607C938.047 673.664 938.43 674.712 939.138 675.751C939.846 676.791 940.887 677.741 942.259 678.601C943.631 679.462 944.947 679.99 946.206 680.185C947.45 680.37 948.568 680.264 949.561 679.867C950.538 679.46 951.324 678.784 951.917 677.839ZM960.356 667.536L946.495 658.841L945.446 661.784L944.119 660.952L944.747 656.852L945.565 655.548L961.576 665.592L960.356 667.536ZM967.586 656.621C966.859 657.78 966.033 658.621 965.109 659.147C964.169 659.662 963.18 659.934 962.142 659.963C961.114 659.977 960.078 659.816 959.035 659.48C957.986 659.119 956.989 658.643 956.044 658.05C954.275 656.94 952.88 655.725 951.86 654.405C950.824 653.075 950.22 651.719 950.046 650.335C949.867 648.927 950.189 647.567 951.012 646.256C951.643 645.249 952.382 644.512 953.228 644.044C954.074 643.576 954.962 643.347 955.891 643.356C956.814 643.34 957.714 643.533 958.589 643.933L957.469 645.717C956.495 645.339 955.59 645.292 954.754 645.575C953.918 645.858 953.222 646.441 952.667 647.326C951.912 648.53 951.847 649.903 952.474 651.444C953.096 652.96 954.592 654.504 956.963 656.076C956.476 655.261 956.222 654.294 956.201 653.176C956.174 652.033 956.515 650.897 957.222 649.769C957.796 648.854 958.545 648.134 959.47 647.609C960.404 647.069 961.417 646.791 962.511 646.776C963.589 646.751 964.646 647.063 965.683 647.714C966.583 648.278 967.305 649.04 967.851 649.998C968.397 650.957 968.667 652.018 968.659 653.182C968.661 654.331 968.303 655.477 967.586 656.621ZM965.807 655.696C966.257 654.979 966.506 654.243 966.555 653.488C966.604 652.732 966.462 652.027 966.129 651.372C965.781 650.708 965.256 650.155 964.555 649.715C963.472 649.036 962.386 648.854 961.296 649.169C960.2 649.459 959.318 650.138 958.648 651.205C958.199 651.922 957.965 652.668 957.946 653.442C957.912 654.207 958.065 654.93 958.403 655.609C958.751 656.274 959.246 656.807 959.886 657.209C960.572 657.639 961.29 657.867 962.04 657.891C962.784 657.89 963.486 657.703 964.144 657.33C964.803 656.958 965.358 656.413 965.807 655.696Z" fill="#949294"/>
<path d="M1070.87 697.149L1069.53 696.303C1069.35 694.685 1069.13 693.123 1068.86 691.617C1068.59 690.086 1068.26 688.679 1067.88 687.397C1067.5 686.098 1067.04 684.978 1066.48 684.034C1065.93 683.076 1065.28 682.357 1064.52 681.879C1063.95 681.525 1063.37 681.294 1062.75 681.186C1062.15 681.063 1061.57 681.124 1061.01 681.369C1060.44 681.605 1059.92 682.089 1059.46 682.821C1059.02 683.522 1058.82 684.209 1058.84 684.883C1058.85 685.547 1059.04 686.164 1059.4 686.733C1059.78 687.287 1060.26 687.75 1060.86 688.123L1059.69 689.976C1058.64 689.316 1057.88 688.53 1057.41 687.62C1056.93 686.699 1056.72 685.733 1056.81 684.722C1056.89 683.711 1057.23 682.725 1057.83 681.765C1058.72 680.347 1059.85 679.441 1061.23 679.048C1062.59 678.631 1064.07 678.92 1065.65 679.914C1066.6 680.507 1067.39 681.332 1068.02 682.388C1068.64 683.435 1069.16 684.597 1069.57 685.874C1069.96 687.141 1070.27 688.429 1070.49 689.736C1070.72 691.028 1070.91 692.219 1071.05 693.309L1075.9 685.578L1077.5 686.583L1070.87 697.149ZM1083.29 677.96C1082.41 679.378 1081.29 680.391 1079.96 680.997C1078.61 681.579 1077.15 681.757 1075.57 681.531C1073.98 681.295 1072.36 680.661 1070.71 679.628C1069.06 678.595 1067.79 677.417 1066.9 676.093C1066 674.76 1065.52 673.367 1065.48 671.915C1065.43 670.438 1065.85 668.991 1066.74 667.572C1067.62 666.154 1068.74 665.155 1070.08 664.573C1071.41 663.982 1072.87 663.804 1074.47 664.039C1076.05 664.265 1077.66 664.895 1079.3 665.928C1080.95 666.961 1082.23 668.144 1083.13 669.477C1084.02 670.801 1084.5 672.194 1084.56 673.655C1084.61 675.107 1084.18 676.542 1083.29 677.96ZM1081.6 676.899C1082.19 675.969 1082.45 674.975 1082.39 673.918C1082.32 672.836 1081.93 671.783 1081.21 670.759C1080.49 669.71 1079.44 668.756 1078.07 667.895C1076.7 667.034 1075.39 666.511 1074.15 666.325C1072.91 666.125 1071.8 666.236 1070.82 666.658C1069.82 667.055 1069.03 667.718 1068.45 668.649C1067.86 669.594 1067.6 670.6 1067.67 671.667C1067.73 672.724 1068.12 673.772 1068.82 674.811C1069.53 675.85 1070.57 676.8 1071.94 677.661C1073.32 678.522 1074.63 679.05 1075.89 679.245C1077.14 679.43 1078.25 679.324 1079.25 678.927C1080.22 678.52 1081.01 677.844 1081.6 676.899ZM1090.04 666.596L1076.18 657.901L1075.13 660.844L1073.8 660.012L1074.43 655.911L1075.25 654.608L1091.26 664.651L1090.04 666.596ZM1094.21 659.945L1083.84 644.576L1078.33 653.359L1076.68 652.326L1083.43 641.576L1084.87 642.48L1095.49 657.91L1094.21 659.945Z" fill="#949294"/>
<path d="M1199.13 698.067L1197.78 697.22C1197.6 695.602 1197.38 694.04 1197.12 692.534C1196.84 691.003 1196.52 689.597 1196.13 688.314C1195.76 687.016 1195.29 685.895 1194.73 684.951C1194.19 683.993 1193.53 683.274 1192.77 682.796C1192.21 682.442 1191.62 682.211 1191.01 682.103C1190.4 681.98 1189.82 682.041 1189.27 682.286C1188.69 682.522 1188.18 683.006 1187.72 683.738C1187.28 684.439 1187.07 685.127 1187.09 685.8C1187.1 686.464 1187.29 687.081 1187.65 687.65C1188.03 688.204 1188.51 688.667 1189.11 689.041L1187.95 690.893C1186.9 690.233 1186.13 689.448 1185.66 688.537C1185.18 687.616 1184.98 686.651 1185.06 685.639C1185.14 684.628 1185.48 683.642 1186.09 682.682C1186.98 681.264 1188.11 680.358 1189.48 679.966C1190.85 679.548 1192.32 679.837 1193.91 680.832C1194.85 681.425 1195.64 682.249 1196.28 683.306C1196.9 684.352 1197.41 685.514 1197.82 686.791C1198.21 688.059 1198.52 689.346 1198.74 690.654C1198.97 691.946 1199.16 693.137 1199.31 694.226L1204.16 686.495L1205.76 687.5L1199.13 698.067ZM1211.55 678.878C1210.66 680.296 1209.55 681.308 1208.21 681.914C1206.87 682.496 1205.41 682.674 1203.83 682.448C1202.23 682.213 1200.61 681.578 1198.96 680.545C1197.32 679.512 1196.05 678.334 1195.16 677.01C1194.25 675.677 1193.78 674.284 1193.73 672.832C1193.68 671.355 1194.1 669.908 1194.99 668.49C1195.88 667.072 1196.99 666.072 1198.34 665.49C1199.66 664.899 1201.12 664.721 1202.72 664.957C1204.3 665.182 1205.91 665.812 1207.56 666.845C1209.21 667.878 1210.48 669.061 1211.39 670.394C1212.28 671.718 1212.75 673.111 1212.82 674.572C1212.86 676.024 1212.44 677.46 1211.55 678.878ZM1209.86 677.816C1210.44 676.886 1210.7 675.892 1210.64 674.835C1210.58 673.753 1210.19 672.7 1209.47 671.676C1208.75 670.628 1207.7 669.673 1206.32 668.812C1204.95 667.951 1203.64 667.428 1202.4 667.243C1201.17 667.042 1200.06 667.153 1199.07 667.575C1198.08 667.972 1197.29 668.636 1196.7 669.566C1196.11 670.511 1195.85 671.517 1195.93 672.584C1195.99 673.641 1196.37 674.689 1197.08 675.728C1197.79 676.767 1198.83 677.717 1200.2 678.578C1201.57 679.439 1202.89 679.967 1204.15 680.162C1205.39 680.347 1206.51 680.241 1207.5 679.844C1208.48 679.437 1209.26 678.761 1209.86 677.816ZM1218.3 667.513L1204.43 658.818L1203.39 661.761L1202.06 660.929L1202.69 656.829L1203.5 655.525L1219.52 665.569L1218.3 667.513ZM1225.22 657.078C1224.56 658.13 1223.78 658.956 1222.87 659.555C1221.95 660.145 1220.99 660.469 1220 660.526C1219 660.559 1218.05 660.288 1217.13 659.715C1216.16 659.102 1215.46 658.27 1215.03 657.218C1214.62 656.151 1214.58 655.063 1214.91 653.955C1214.08 654.643 1213.19 655.022 1212.25 655.093C1211.32 655.164 1210.47 654.96 1209.7 654.482C1208.93 653.994 1208.35 653.343 1207.97 652.53C1207.57 651.707 1207.42 650.795 1207.51 649.793C1207.61 648.792 1207.99 647.757 1208.66 646.69C1209.33 645.622 1210.1 644.827 1210.96 644.304C1211.82 643.781 1212.7 643.519 1213.62 643.518C1214.52 643.508 1215.35 643.747 1216.13 644.235C1216.88 644.704 1217.43 645.38 1217.79 646.264C1218.14 647.139 1218.18 648.101 1217.92 649.152C1218.78 648.369 1219.77 647.94 1220.9 647.864C1222.04 647.772 1223.1 648.032 1224.08 648.644C1224.99 649.218 1225.65 649.969 1226.04 650.897C1226.43 651.8 1226.56 652.796 1226.43 653.883C1226.29 654.961 1225.88 656.026 1225.22 657.078ZM1215.73 651.123C1216.34 650.147 1216.58 649.224 1216.45 648.354C1216.31 647.459 1215.84 646.758 1215.03 646.251C1214.13 645.687 1213.27 645.543 1212.46 645.82C1211.65 646.098 1210.93 646.732 1210.31 647.723C1209.69 648.714 1209.43 649.635 1209.53 650.486C1209.65 651.322 1210.15 652.022 1211.05 652.587C1211.86 653.094 1212.69 653.223 1213.55 652.974C1214.39 652.716 1215.12 652.099 1215.73 651.123ZM1223.53 656.016C1224.29 654.811 1224.58 653.74 1224.4 652.801C1224.22 651.837 1223.67 651.068 1222.76 650.494C1221.72 649.844 1220.73 649.679 1219.78 650C1218.84 650.32 1218.02 651.03 1217.33 652.128C1216.64 653.226 1216.36 654.27 1216.48 655.26C1216.61 656.251 1217.19 657.071 1218.22 657.722C1219.14 658.295 1220.06 658.462 1221 658.221C1221.93 657.956 1222.78 657.221 1223.53 656.016Z" fill="#949294"/>
<path d="M1328.74 698.09L1327.39 697.243C1327.22 695.625 1327 694.063 1326.73 692.557C1326.46 691.027 1326.13 689.62 1325.74 688.337C1325.37 687.039 1324.9 685.918 1324.35 684.975C1323.8 684.016 1323.15 683.297 1322.38 682.819C1321.82 682.465 1321.23 682.234 1320.62 682.127C1320.02 682.003 1319.44 682.064 1318.88 682.31C1318.31 682.545 1317.79 683.029 1317.33 683.761C1316.89 684.462 1316.68 685.15 1316.71 685.823C1316.71 686.487 1316.9 687.104 1317.27 687.673C1317.64 688.227 1318.13 688.691 1318.72 689.064L1317.56 690.916C1316.51 690.256 1315.75 689.471 1315.28 688.56C1314.79 687.64 1314.59 686.674 1314.67 685.663C1314.75 684.652 1315.1 683.666 1315.7 682.705C1316.59 681.287 1317.72 680.382 1319.09 679.989C1320.46 679.571 1321.93 679.86 1323.52 680.855C1324.47 681.448 1325.26 682.273 1325.89 683.329C1326.51 684.375 1327.02 685.537 1327.43 686.814C1327.83 688.082 1328.13 689.369 1328.36 690.677C1328.59 691.969 1328.77 693.16 1328.92 694.249L1333.77 686.519L1335.37 687.523L1328.74 698.09ZM1341.16 678.901C1340.27 680.319 1339.16 681.331 1337.82 681.938C1336.48 682.519 1335.02 682.697 1333.44 682.471C1331.84 682.236 1330.22 681.602 1328.58 680.568C1326.93 679.535 1325.66 678.357 1324.77 677.033C1323.86 675.7 1323.39 674.307 1323.34 672.855C1323.29 671.378 1323.71 669.931 1324.6 668.513C1325.49 667.095 1326.61 666.095 1327.95 665.513C1329.28 664.922 1330.74 664.744 1332.33 664.98C1333.91 665.206 1335.52 665.835 1337.17 666.868C1338.82 667.901 1340.09 669.084 1341 670.418C1341.89 671.741 1342.37 673.134 1342.43 674.596C1342.47 676.048 1342.05 677.483 1341.16 678.901ZM1339.47 677.839C1340.05 676.909 1340.31 675.915 1340.25 674.858C1340.19 673.776 1339.8 672.723 1339.08 671.699C1338.36 670.651 1337.31 669.696 1335.94 668.835C1334.56 667.974 1333.26 667.451 1332.01 667.266C1330.78 667.065 1329.67 667.176 1328.68 667.598C1327.69 667.995 1326.9 668.659 1326.32 669.589C1325.72 670.534 1325.46 671.54 1325.54 672.607C1325.6 673.664 1325.98 674.712 1326.69 675.751C1327.4 676.791 1328.44 677.741 1329.81 678.601C1331.18 679.462 1332.5 679.99 1333.76 680.185C1335 680.37 1336.12 680.264 1337.11 679.867C1338.09 679.46 1338.88 678.784 1339.47 677.839ZM1347.91 667.536L1334.05 658.841L1333 661.784L1331.67 660.952L1332.3 656.852L1333.12 655.548L1349.13 665.592L1347.91 667.536ZM1354.84 657.101C1354.2 658.107 1353.47 658.845 1352.62 659.312C1351.77 659.78 1350.89 660.022 1349.97 660.038C1349.04 660.029 1348.14 659.816 1347.27 659.401L1348.39 657.617C1349.36 658.01 1350.26 658.065 1351.09 657.782C1351.93 657.499 1352.63 656.915 1353.18 656.031C1353.95 654.811 1354.02 653.443 1353.4 651.927C1352.76 650.401 1351.26 648.852 1348.89 647.28C1349.37 648.096 1349.63 649.075 1349.66 650.218C1349.68 651.336 1349.33 652.459 1348.63 653.588C1348.06 654.487 1347.31 655.207 1346.38 655.748C1345.44 656.288 1344.44 656.57 1343.36 656.595C1342.27 656.611 1341.2 656.293 1340.17 655.643C1339.27 655.078 1338.54 654.317 1338 653.358C1337.46 652.384 1337.19 651.323 1337.19 650.174C1337.19 649.026 1337.54 647.88 1338.26 646.736C1338.99 645.577 1339.82 644.74 1340.76 644.224C1341.69 643.699 1342.66 643.43 1343.69 643.416C1344.73 643.388 1345.77 643.553 1346.82 643.914C1347.86 644.25 1348.86 644.714 1349.8 645.307C1351.57 646.416 1352.98 647.636 1354.01 648.966C1355.03 650.286 1355.63 651.65 1355.81 653.059C1355.98 654.442 1355.66 655.79 1354.84 657.101ZM1347.2 652.151C1347.65 651.435 1347.89 650.694 1347.92 649.929C1347.94 649.154 1347.78 648.427 1347.44 647.747C1347.11 647.067 1346.62 646.527 1345.98 646.125C1345.29 645.694 1344.58 645.479 1343.83 645.48C1343.07 645.471 1342.36 645.653 1341.7 646.026C1341.04 646.399 1340.49 646.944 1340.04 647.66C1339.59 648.377 1339.34 649.113 1339.29 649.869C1339.24 650.624 1339.39 651.334 1339.74 651.999C1340.07 652.654 1340.59 653.201 1341.29 653.641C1342.38 654.32 1343.46 654.515 1344.56 654.225C1345.65 653.91 1346.53 653.219 1347.2 652.151Z" fill="#949294"/>
<path d="M364.5 737H196" stroke="#EDC161" stroke-width="6" stroke-linecap="round"/>
<path d="M246.078 791L237.886 768.6H242.27L248.606 786.808L254.974 768.6H259.294L251.102 791H246.078ZM265.302 791.384C263.937 791.384 262.817 791.171 261.942 790.744C261.067 790.296 260.417 789.709 259.99 788.984C259.563 788.259 259.35 787.459 259.35 786.584C259.35 785.112 259.926 783.917 261.078 783C262.23 782.083 263.958 781.624 266.262 781.624H270.294V781.24C270.294 780.152 269.985 779.352 269.366 778.84C268.747 778.328 267.979 778.072 267.062 778.072C266.23 778.072 265.505 778.275 264.886 778.68C264.267 779.064 263.883 779.64 263.734 780.408H259.734C259.841 779.256 260.225 778.253 260.886 777.4C261.569 776.547 262.443 775.896 263.51 775.448C264.577 774.979 265.771 774.744 267.094 774.744C269.355 774.744 271.137 775.309 272.438 776.44C273.739 777.571 274.39 779.171 274.39 781.24V791H270.902L270.518 788.44C270.049 789.293 269.387 789.997 268.534 790.552C267.702 791.107 266.625 791.384 265.302 791.384ZM266.23 788.184C267.403 788.184 268.31 787.8 268.95 787.032C269.611 786.264 270.027 785.315 270.198 784.184H266.71C265.622 784.184 264.843 784.387 264.374 784.792C263.905 785.176 263.67 785.656 263.67 786.232C263.67 786.851 263.905 787.331 264.374 787.672C264.843 788.013 265.462 788.184 266.23 788.184ZM278.299 791V767.96H282.395V791H278.299ZM292.532 791.384C290.548 791.384 289.012 790.765 287.924 789.528C286.857 788.291 286.324 786.477 286.324 784.088V775.128H290.388V783.704C290.388 785.069 290.665 786.115 291.22 786.84C291.775 787.565 292.649 787.928 293.844 787.928C294.975 787.928 295.903 787.523 296.628 786.712C297.375 785.901 297.748 784.771 297.748 783.32V775.128H301.844V791H298.228L297.908 788.312C297.417 789.251 296.703 789.997 295.764 790.552C294.847 791.107 293.769 791.384 292.532 791.384ZM313.761 791.384C312.161 791.384 310.742 791.043 309.505 790.36C308.267 789.677 307.297 788.717 306.593 787.48C305.889 786.243 305.537 784.813 305.537 783.192C305.537 781.549 305.878 780.088 306.561 778.808C307.265 777.528 308.225 776.536 309.441 775.832C310.678 775.107 312.129 774.744 313.793 774.744C315.35 774.744 316.726 775.085 317.921 775.768C319.115 776.451 320.043 777.389 320.705 778.584C321.387 779.757 321.729 781.069 321.729 782.52C321.729 782.755 321.718 783 321.697 783.256C321.697 783.512 321.686 783.779 321.665 784.056H309.601C309.686 785.293 310.113 786.264 310.881 786.968C311.67 787.672 312.619 788.024 313.729 788.024C314.561 788.024 315.254 787.843 315.809 787.48C316.385 787.096 316.811 786.605 317.089 786.008H321.249C320.95 787.011 320.449 787.928 319.745 788.76C319.062 789.571 318.209 790.211 317.185 790.68C316.182 791.149 315.041 791.384 313.761 791.384ZM313.793 778.072C312.79 778.072 311.905 778.36 311.137 778.936C310.369 779.491 309.878 780.344 309.665 781.496H317.569C317.505 780.451 317.121 779.619 316.417 779C315.713 778.381 314.838 778.072 313.793 778.072Z" fill="#4B494E"/>
<path d="M633 737H464.5" stroke="#5D45DB" stroke-width="6" stroke-linecap="round"/>
<path d="M514.578 791L506.386 768.6H510.77L517.106 786.808L523.474 768.6H527.794L519.602 791H514.578ZM533.802 791.384C532.437 791.384 531.317 791.171 530.442 790.744C529.567 790.296 528.917 789.709 528.49 788.984C528.063 788.259 527.85 787.459 527.85 786.584C527.85 785.112 528.426 783.917 529.578 783C530.73 782.083 532.458 781.624 534.762 781.624H538.794V781.24C538.794 780.152 538.485 779.352 537.866 778.84C537.247 778.328 536.479 778.072 535.562 778.072C534.73 778.072 534.005 778.275 533.386 778.68C532.767 779.064 532.383 779.64 532.234 780.408H528.234C528.341 779.256 528.725 778.253 529.386 777.4C530.069 776.547 530.943 775.896 532.01 775.448C533.077 774.979 534.271 774.744 535.594 774.744C537.855 774.744 539.637 775.309 540.938 776.44C542.239 777.571 542.89 779.171 542.89 781.24V791H539.402L539.018 788.44C538.549 789.293 537.887 789.997 537.034 790.552C536.202 791.107 535.125 791.384 533.802 791.384ZM534.73 788.184C535.903 788.184 536.81 787.8 537.45 787.032C538.111 786.264 538.527 785.315 538.698 784.184H535.21C534.122 784.184 533.343 784.387 532.874 784.792C532.405 785.176 532.17 785.656 532.17 786.232C532.17 786.851 532.405 787.331 532.874 787.672C533.343 788.013 533.962 788.184 534.73 788.184ZM546.799 791V767.96H550.895V791H546.799ZM561.032 791.384C559.048 791.384 557.512 790.765 556.424 789.528C555.357 788.291 554.824 786.477 554.824 784.088V775.128H558.888V783.704C558.888 785.069 559.165 786.115 559.72 786.84C560.275 787.565 561.149 787.928 562.344 787.928C563.475 787.928 564.403 787.523 565.128 786.712C565.875 785.901 566.248 784.771 566.248 783.32V775.128H570.344V791H566.728L566.408 788.312C565.917 789.251 565.203 789.997 564.264 790.552C563.347 791.107 562.269 791.384 561.032 791.384ZM582.261 791.384C580.661 791.384 579.242 791.043 578.005 790.36C576.767 789.677 575.797 788.717 575.093 787.48C574.389 786.243 574.037 784.813 574.037 783.192C574.037 781.549 574.378 780.088 575.061 778.808C575.765 777.528 576.725 776.536 577.941 775.832C579.178 775.107 580.629 774.744 582.293 774.744C583.85 774.744 585.226 775.085 586.421 775.768C587.615 776.451 588.543 777.389 589.205 778.584C589.887 779.757 590.229 781.069 590.229 782.52C590.229 782.755 590.218 783 590.197 783.256C590.197 783.512 590.186 783.779 590.165 784.056H578.101C578.186 785.293 578.613 786.264 579.381 786.968C580.17 787.672 581.119 788.024 582.229 788.024C583.061 788.024 583.754 787.843 584.309 787.48C584.885 787.096 585.311 786.605 585.589 786.008H589.749C589.45 787.011 588.949 787.928 588.245 788.76C587.562 789.571 586.709 790.211 585.685 790.68C584.682 791.149 583.541 791.384 582.261 791.384ZM582.293 778.072C581.29 778.072 580.405 778.36 579.637 778.936C578.869 779.491 578.378 780.344 578.165 781.496H586.069C586.005 780.451 585.621 779.619 584.917 779C584.213 778.381 583.338 778.072 582.293 778.072Z" fill="#4B494E"/>
<path d="M901.5 737H733" stroke="#FF696D" stroke-width="6" stroke-linecap="round"/>
<path d="M783.078 791L774.886 768.6H779.27L785.606 786.808L791.974 768.6H796.294L788.102 791H783.078ZM802.302 791.384C800.937 791.384 799.817 791.171 798.942 790.744C798.067 790.296 797.417 789.709 796.99 788.984C796.563 788.259 796.35 787.459 796.35 786.584C796.35 785.112 796.926 783.917 798.078 783C799.23 782.083 800.958 781.624 803.262 781.624H807.294V781.24C807.294 780.152 806.985 779.352 806.366 778.84C805.747 778.328 804.979 778.072 804.062 778.072C803.23 778.072 802.505 778.275 801.886 778.68C801.267 779.064 800.883 779.64 800.734 780.408H796.734C796.841 779.256 797.225 778.253 797.886 777.4C798.569 776.547 799.443 775.896 800.51 775.448C801.577 774.979 802.771 774.744 804.094 774.744C806.355 774.744 808.137 775.309 809.438 776.44C810.739 777.571 811.39 779.171 811.39 781.24V791H807.902L807.518 788.44C807.049 789.293 806.387 789.997 805.534 790.552C804.702 791.107 803.625 791.384 802.302 791.384ZM803.23 788.184C804.403 788.184 805.31 787.8 805.95 787.032C806.611 786.264 807.027 785.315 807.198 784.184H803.71C802.622 784.184 801.843 784.387 801.374 784.792C800.905 785.176 800.67 785.656 800.67 786.232C800.67 786.851 800.905 787.331 801.374 787.672C801.843 788.013 802.462 788.184 803.23 788.184ZM815.299 791V767.96H819.395V791H815.299ZM829.532 791.384C827.548 791.384 826.012 790.765 824.924 789.528C823.857 788.291 823.324 786.477 823.324 784.088V775.128H827.388V783.704C827.388 785.069 827.665 786.115 828.22 786.84C828.775 787.565 829.649 787.928 830.844 787.928C831.975 787.928 832.903 787.523 833.628 786.712C834.375 785.901 834.748 784.771 834.748 783.32V775.128H838.844V791H835.228L834.908 788.312C834.417 789.251 833.703 789.997 832.764 790.552C831.847 791.107 830.769 791.384 829.532 791.384ZM850.761 791.384C849.161 791.384 847.742 791.043 846.505 790.36C845.267 789.677 844.297 788.717 843.593 787.48C842.889 786.243 842.537 784.813 842.537 783.192C842.537 781.549 842.878 780.088 843.561 778.808C844.265 777.528 845.225 776.536 846.441 775.832C847.678 775.107 849.129 774.744 850.793 774.744C852.35 774.744 853.726 775.085 854.921 775.768C856.115 776.451 857.043 777.389 857.705 778.584C858.387 779.757 858.729 781.069 858.729 782.52C858.729 782.755 858.718 783 858.697 783.256C858.697 783.512 858.686 783.779 858.665 784.056H846.601C846.686 785.293 847.113 786.264 847.881 786.968C848.67 787.672 849.619 788.024 850.729 788.024C851.561 788.024 852.254 787.843 852.809 787.48C853.385 787.096 853.811 786.605 854.089 786.008H858.249C857.95 787.011 857.449 787.928 856.745 788.76C856.062 789.571 855.209 790.211 854.185 790.68C853.182 791.149 852.041 791.384 850.761 791.384ZM850.793 778.072C849.79 778.072 848.905 778.36 848.137 778.936C847.369 779.491 846.878 780.344 846.665 781.496H854.569C854.505 780.451 854.121 779.619 853.417 779C852.713 778.381 851.838 778.072 850.793 778.072Z" fill="#4B494E"/>
<path d="M1170 737H1001.5" stroke="#6CB9AD" stroke-width="6" stroke-linecap="round"/>
<path d="M1051.58 791L1043.39 768.6H1047.77L1054.11 786.808L1060.47 768.6H1064.79L1056.6 791H1051.58ZM1070.8 791.384C1069.44 791.384 1068.32 791.171 1067.44 790.744C1066.57 790.296 1065.92 789.709 1065.49 788.984C1065.06 788.259 1064.85 787.459 1064.85 786.584C1064.85 785.112 1065.43 783.917 1066.58 783C1067.73 782.083 1069.46 781.624 1071.76 781.624H1075.79V781.24C1075.79 780.152 1075.48 779.352 1074.87 778.84C1074.25 778.328 1073.48 778.072 1072.56 778.072C1071.73 778.072 1071 778.275 1070.39 778.68C1069.77 779.064 1069.38 779.64 1069.23 780.408H1065.23C1065.34 779.256 1065.72 778.253 1066.39 777.4C1067.07 776.547 1067.94 775.896 1069.01 775.448C1070.08 774.979 1071.27 774.744 1072.59 774.744C1074.86 774.744 1076.64 775.309 1077.94 776.44C1079.24 777.571 1079.89 779.171 1079.89 781.24V791H1076.4L1076.02 788.44C1075.55 789.293 1074.89 789.997 1074.03 790.552C1073.2 791.107 1072.12 791.384 1070.8 791.384ZM1071.73 788.184C1072.9 788.184 1073.81 787.8 1074.45 787.032C1075.11 786.264 1075.53 785.315 1075.7 784.184H1072.21C1071.12 784.184 1070.34 784.387 1069.87 784.792C1069.4 785.176 1069.17 785.656 1069.17 786.232C1069.17 786.851 1069.4 787.331 1069.87 787.672C1070.34 788.013 1070.96 788.184 1071.73 788.184ZM1083.8 791V767.96H1087.89V791H1083.8ZM1098.03 791.384C1096.05 791.384 1094.51 790.765 1093.42 789.528C1092.36 788.291 1091.82 786.477 1091.82 784.088V775.128H1095.89V783.704C1095.89 785.069 1096.17 786.115 1096.72 786.84C1097.27 787.565 1098.15 787.928 1099.34 787.928C1100.47 787.928 1101.4 787.523 1102.13 786.712C1102.87 785.901 1103.25 784.771 1103.25 783.32V775.128H1107.34V791H1103.73L1103.41 788.312C1102.92 789.251 1102.2 789.997 1101.26 790.552C1100.35 791.107 1099.27 791.384 1098.03 791.384ZM1119.26 791.384C1117.66 791.384 1116.24 791.043 1115 790.36C1113.77 789.677 1112.8 788.717 1112.09 787.48C1111.39 786.243 1111.04 784.813 1111.04 783.192C1111.04 781.549 1111.38 780.088 1112.06 778.808C1112.76 777.528 1113.72 776.536 1114.94 775.832C1116.18 775.107 1117.63 774.744 1119.29 774.744C1120.85 774.744 1122.23 775.085 1123.42 775.768C1124.62 776.451 1125.54 777.389 1126.2 778.584C1126.89 779.757 1127.23 781.069 1127.23 782.52C1127.23 782.755 1127.22 783 1127.2 783.256C1127.2 783.512 1127.19 783.779 1127.16 784.056H1115.1C1115.19 785.293 1115.61 786.264 1116.38 786.968C1117.17 787.672 1118.12 788.024 1119.23 788.024C1120.06 788.024 1120.75 787.843 1121.31 787.48C1121.88 787.096 1122.31 786.605 1122.59 786.008H1126.75C1126.45 787.011 1125.95 787.928 1125.24 788.76C1124.56 789.571 1123.71 790.211 1122.68 790.68C1121.68 791.149 1120.54 791.384 1119.26 791.384ZM1119.29 778.072C1118.29 778.072 1117.4 778.36 1116.64 778.936C1115.87 779.491 1115.38 780.344 1115.16 781.496H1123.07C1123 780.451 1122.62 779.619 1121.92 779C1121.21 778.381 1120.34 778.072 1119.29 778.072Z" fill="#4B494E"/>
</svg>
