<svg width="886" height="903" viewBox="0 0 886 903" fill="none" xmlns="http://www.w3.org/2000/svg">
<path d="M151.5 216C162.3 197.2 180.667 200.167 188.5 204L192.5 207.5V213.5V220.5L188.5 230.5L181.5 238L179 248L177.5 261.5L179 273.5L186.5 283L193.5 287L201.5 289L209 285L211.5 277.5V260.5L212.5 243L218.5 233L228.5 230.5L240 237L247.5 264.5L245 302.5L238.5 335.5L214.5 377L204 392L187 468L181 539.5L240.5 532.5L300.5 528.5H387H429.5L437.5 489C433.167 487.5 424.2 484.3 423 483.5C421.8 482.7 413.167 472.833 409 468L401.5 452L399.5 429V417L395.5 410.5L387 373.5L399.5 365.5L405.5 351.5L414 328L423 323.5H433.5L444 332L465 364L481 377.5L495 385.5H515.5L531 384L546 388.5L552 395.5V410.5L536.5 429L522.5 441L515.5 461.5L512.5 489L528 535.5L558 544L616.5 569.5L659 607.5L690 659.5L707 713.5L715 778.5L712 827.5L702 875L692.5 899.5H464H330L312.5 831.5L377.5 833L398 827.5L407 811.5L391.5 771L358 694.5C351.833 680.167 337.4 646.5 329 626.5C320.6 606.5 306.5 603.167 300.5 604H94L39.5 602.5L73 479.5L96.5 396L102.5 372C101.667 365.333 100 351.9 100 351.5C100 351.1 95.6667 340 93.5 334.5L91 321.5L95.5 313.5C95 309.333 93.9 300.8 93.5 300C93.1 299.2 96.6667 293 98.5 290L109 286L111 281C110.333 277.833 109 271.3 109 270.5C109 269.7 110.333 264.833 111 262.5L120.5 256.5L133 254.5L137 243C137.333 241.833 140.7 234.8 151.5 216Z" fill="white"/>
<path d="M173.5 604.5C170.371 578.016 171.364 564.005 178 540.5L211 534.5L307 527.5H427.5L430 529.5L425.5 555V572L431 585C437.833 590.5 451.8 601.6 453 602C454.2 602.4 471.833 604.833 480.5 606L505.5 597C511.5 590.167 523.6 576.3 524 575.5C524.4 574.7 528.833 552.5 531 541.5V537L542 539L610.5 568L649 596.5L678 638.5L701 691L713 751.5L714 812L706 859L692 900L504.5 898L335 899H329.5C325.333 887.333 317 863.7 317 862.5C317 861.3 310.333 822.333 307 803V604.5H173.5Z" fill="#222222"/>
<path d="M246.44 259.191C246.44 259.191 340.44 102.681 528.34 163.931C715.94 225.191 671.61 457.741 671.49 458.351C672.31 454.091 704.81 450.031 708.25 449.531C804.12 435.361 875.43 524.531 882.5 612.411C891.28 721.411 806.97 798.611 710.95 831.851" stroke="white" stroke-width="5.5" stroke-miterlimit="10"/>
<path d="M698.57 882.991C695.73 892.981 693.67 898.691 693.67 898.691H692.19C694.53 893.598 696.657 888.364 698.57 882.991Z" fill="#353642"/>
<path d="M437 488.704C437 488.704 433.62 509.224 430.12 527.804C420.12 527.914 410.12 527.994 400.23 528.074C395.23 499.934 400.66 477.894 407.11 463.204C415.24 481.744 427.52 487.384 437 488.704Z" fill="#3FBDF1"/>
<path d="M601.36 562.744C581.027 551.796 559.355 543.543 536.89 538.194L529.53 536.924C529.53 536.924 524.05 524.464 524.02 524.424C521.45 517.894 517.19 509.224 515.87 502.344C514.262 494.217 513.871 485.896 514.71 477.654C516.15 465.414 521.85 439.524 532.15 431.364C540.74 424.604 544.28 426.024 549.15 415.454C552.65 407.914 554.07 395.244 547.27 389.684C539.73 383.584 536.52 385.56 527.5 386.5C493.22 389.9 462.1 368.51 449.5 340C447.5 335.37 435.77 325.94 432.5 322C428.75 317.46 423.75 323.67 419.5 320C417.69 318.42 436.13 303.24 437 301C437.513 299.929 450.078 294.246 451 293.5C459.032 286.101 465.507 288.024 476 285C492.598 280.201 502.786 284.798 519.65 288.554C537.25 294.384 553.07 305.424 563.72 322.294C578.41 345.604 581.95 369.784 573.72 393.884C565.29 418.564 555.88 447.554 571.72 471.304C592.81 502.854 605.52 525.044 601.36 562.744Z" fill="#3FBDF1"/>
<path d="M430.16 527.801C420.16 527.911 410.16 527.991 400.27 528.071C324.91 528.461 252.78 527.411 177.18 540.971" stroke="black" stroke-width="5.5" stroke-miterlimit="10"/>
<path d="M528.34 536.192C531.21 536.822 534.05 537.482 536.89 538.192C547.961 540.868 558.86 544.207 569.53 548.192C580.477 552.265 591.114 557.124 601.36 562.732C601.371 562.722 601.385 562.717 601.4 562.717C601.415 562.717 601.429 562.722 601.44 562.732C617.559 571.466 632.458 582.286 645.75 594.912C656.864 605.741 666.473 618.014 674.32 631.402C674.388 631.453 674.44 631.522 674.47 631.602C680.835 642.288 686.362 653.451 691 664.992C704.84 699.082 712.69 738.332 713.89 777.392C714.98 814.282 710.12 851.012 698.62 882.992C696.707 888.365 694.58 893.599 692.24 898.692C692.09 899.082 691.89 899.432 691.74 899.822" stroke="black" stroke-width="5.5" stroke-miterlimit="10"/>
<path d="M571.79 899.322C571.79 899.322 571.79 899.242 571.79 899.202C571.854 899.036 571.904 898.866 571.94 898.692" stroke="black" stroke-width="5.5" stroke-miterlimit="10"/>
<path d="M545.4 674.442C545.4 674.442 567.16 685.012 581.46 718.012C588.65 734.602 593.98 756.912 593.67 786.412C593.67 786.412 593.67 786.412 593.67 786.492C593.51 805.302 591.03 827.022 585.27 852.052V852.192" stroke="black" stroke-width="5.5" stroke-miterlimit="10"/>
<path d="M133.59 255.503C137.43 240.973 143.59 225.993 148.22 219.693C155.5 209.893 165 200.553 177.22 201.393C185.07 201.903 192.78 206.243 193.13 214.843C193.46 224.173 183.62 234.533 180.46 243.303C177.46 251.763 176.09 261.613 177.67 270.513C179.25 279.413 187.24 286.363 195.86 288.273C199.13 289.134 202.607 288.663 205.53 286.963C213.97 281.623 212.2 267.403 211.86 259.013C211.46 249.603 211.47 238.963 219.5 232.523C225.4 227.793 234.35 230.933 238.7 236.133C246.26 245.133 246.63 258.683 247.01 269.763C248.14 303.143 242.21 335.143 222.77 363.243C212.77 377.753 202.47 390.773 198.42 408.573C185.82 463.893 184.42 502.243 177.18 558.423" stroke="black" stroke-width="5.5" stroke-miterlimit="10"/>
<path d="M329.82 900.192C291.18 790.372 309.48 670.392 309.48 670.392L101.92 676.972C93.083 677.252 84.288 675.634 76.129 672.228C67.97 668.822 60.636 663.706 54.62 657.227C48.605 650.747 44.048 643.053 41.2568 634.664C38.4658 626.274 37.5053 617.384 38.44 608.592L89.28 423.192L100.28 383.642C103.788 371.197 102.984 357.932 98 346.002L92.82 333.642C92.82 333.642 83.43 314.492 104.48 316.292C115.8 317.292 127.03 322.102 136.53 328.142C143.99 332.892 155.37 342.082 151.85 352.272C147.69 364.272 131.38 367.272 121.8 360.522" stroke="black" stroke-width="5.5" stroke-miterlimit="10"/>
<path d="M97.4801 316.193C97.4801 316.193 79.7001 276.193 128.48 286.543C177.26 296.893 188.94 350.193 151.71 344.193" stroke="black" stroke-width="5.5" stroke-miterlimit="10"/>
<path d="M113.56 284.252C113.56 284.252 97.96 265.302 121.28 256.252C144.6 247.202 229.28 289.942 174.96 332.042" stroke="black" stroke-width="5.5" stroke-miterlimit="10"/>
<path d="M451 487.801C446.473 489.043 441.74 489.35 437.09 488.701C427.57 487.381 415.29 481.701 407.2 463.201C405.52 459.42 404.155 455.507 403.12 451.501C399 436.191 397.2 414.891 399.61 385.191C400.08 379.481 400.78 373.681 401.75 367.891C403.356 357.819 405.945 347.928 409.48 338.361C409.48 338.361 409.48 338.281 409.56 338.241C418.38 314.921 433.89 295.241 459.97 287.671C479.528 282.029 500.322 282.329 519.71 288.531C537.31 294.361 553.13 305.401 563.78 322.271C578.47 345.581 582.01 369.761 573.78 393.861C565.35 418.541 555.94 447.531 571.78 471.281C592.84 502.881 605.55 525.071 601.47 562.771" stroke="black" stroke-width="5.5" stroke-miterlimit="10"/>
<path d="M392.27 529.241C384.61 492.511 394.95 465.731 403.07 451.501" stroke="black" stroke-width="5.5" stroke-miterlimit="10"/>
<path d="M401.75 367.852C401.75 367.852 418.52 350.322 437.95 378.012" stroke="black" stroke-width="5.5" stroke-miterlimit="10"/>
<path d="M444.45 456.12C451.54 460.71 461.14 457.86 466.36 450.79C472.03 443.12 474.3 432.88 475.53 423.59C475.61 422.92 475.7 422.26 475.76 421.59C467.11 435.18 450.32 438.44 435.54 439.86C436.1 444.305 437.753 448.541 440.35 452.19C441.462 453.743 442.852 455.075 444.45 456.12Z" stroke="black" stroke-width="5.5" stroke-linecap="round" stroke-linejoin="round"/>
<path d="M521.46 517.302L521.42 517.262" stroke="black" stroke-width="5.5" stroke-miterlimit="10"/>
<path d="M455.49 362.461C455.49 362.461 461.19 353.231 480.67 360.031C500.15 366.831 500.38 377.941 500.38 377.941" stroke="black" stroke-width="5.5" stroke-miterlimit="10"/>
<path d="M411.21 385.413C411.21 385.413 420.21 380.863 427.26 385.413" stroke="black" stroke-width="5.5" stroke-miterlimit="10"/>
<path d="M459.71 389.601C459.71 389.601 468.71 385.051 475.71 389.601" stroke="black" stroke-width="5.5" stroke-miterlimit="10"/>
<path d="M437 488.703C437 488.703 433.62 509.223 430.12 527.803C429.61 530.443 429.12 533.043 428.68 535.613C426.39 548.123 424.56 559.243 424.48 562.613C423.9 590.613 450.37 606.763 475.94 606.493C511.82 606.103 532.8 572.723 529.42 539.293C527.21 533.193 524.95 527.093 522.74 520.993C519.9 513.173 516.21 505.563 514.61 497.323C513.197 489.205 513.042 480.918 514.15 472.753C515.59 460.553 517.96 442.363 528.26 434.203C536.85 427.443 545.82 423.003 550.72 412.433C554.22 404.893 554.06 395.183 547.26 389.623C539.72 383.523 527.79 384.263 518.77 385.153C460.59 391.103 450.91 332.213 435.17 323.943C422.27 317.133 412.59 332.413 409.56 338.083L409.44 338.323C409.435 338.38 409.41 338.433 409.37 338.473C408.82 339.473 408.55 340.143 408.55 340.143" stroke="black" stroke-width="5.5" stroke-miterlimit="10"/>
<path d="M435.51 392.192C435.51 392.192 429.43 412.092 429.9 415.072C430.37 418.052 437.46 415.972 437.46 415.972" stroke="black" stroke-width="5.5" stroke-miterlimit="10"/>
<path d="M483.153 413.193C492.468 403.895 492.297 388.622 482.773 379.081C473.249 369.54 457.977 369.343 448.663 378.642C439.348 387.94 439.519 403.212 449.043 412.753C458.567 422.294 473.839 422.491 483.153 413.193Z" stroke="black" stroke-width="5.5" stroke-miterlimit="10"/>
<path d="M422.367 405.806C431.681 396.508 431.511 381.236 421.987 371.695C412.462 362.154 397.191 361.957 387.876 371.255C378.562 380.553 378.732 395.825 388.257 405.366C397.781 414.907 413.053 415.104 422.367 405.806Z" stroke="black" stroke-width="5.5" stroke-miterlimit="10"/>
<path d="M404.59 370.003C407.245 369.991 409.873 370.535 412.305 371.601C414.736 372.667 416.918 374.231 418.708 376.192C420.498 378.152 421.857 380.467 422.698 382.985C423.539 385.503 423.843 388.17 423.59 390.813C423.168 395.257 421.1 399.383 417.792 402.381C414.484 405.378 410.174 407.03 405.71 407.013C403.055 407.025 400.427 406.48 397.995 405.414C395.564 404.349 393.382 402.785 391.592 400.824C389.802 398.863 388.443 396.549 387.602 394.031C386.761 391.512 386.457 388.846 386.71 386.203C387.132 381.759 389.2 377.633 392.508 374.635C395.816 371.638 400.126 369.985 404.59 370.003ZM404.59 367.243C399.446 367.23 394.482 369.14 390.673 372.597C386.864 376.055 384.484 380.811 384 385.933C383.485 391.586 385.188 397.218 388.751 401.637C392.314 406.057 397.456 408.917 403.09 409.613C403.953 409.716 404.821 409.769 405.69 409.773C410.84 409.793 415.811 407.887 419.626 404.428C423.442 400.97 425.826 396.21 426.31 391.083C426.825 385.43 425.122 379.798 421.559 375.378C417.996 370.959 412.854 368.099 407.22 367.403C406.357 367.3 405.489 367.247 404.62 367.243H404.59Z" fill="white"/>
<path d="M441.89 392.98L429.13 391.43" stroke="black" stroke-width="5.5" stroke-miterlimit="10"/>
<path d="M481.197 411.234C489.456 402.989 489.306 389.449 480.862 380.991C472.419 372.532 458.879 372.359 450.62 380.604C442.361 388.848 442.51 402.389 450.954 410.847C459.398 419.305 472.938 419.479 481.197 411.234Z" fill="#3FBDF1"/>
<path d="M420.417 403.85C428.68 395.602 428.531 382.055 420.083 373.593C411.636 365.131 398.089 364.958 389.826 373.206C381.563 381.455 381.713 395.001 390.16 403.463C398.608 411.926 412.154 412.099 420.417 403.85Z" fill="#3FBDF1"/>
<path d="M210.14 56.3533C181.14 57.8333 157.14 81.0733 154.83 109.993C154.141 118.062 155.14 126.186 157.764 133.848C160.388 141.509 164.579 148.54 170.07 154.493C174.119 158.947 178.843 162.737 184.07 165.723C185.434 166.51 186.722 167.42 187.92 168.443C195.746 172.394 204.388 174.459 213.155 174.473C221.923 174.487 230.571 172.449 238.41 168.523C239.55 167.464 240.816 166.551 242.18 165.803C247.621 162.692 252.538 158.743 256.75 154.103C256.857 153.952 256.974 153.808 257.1 153.673C264.741 145.024 269.658 134.312 271.234 122.88C272.811 111.449 270.977 99.8063 265.963 89.4123C260.949 79.0183 252.977 70.3363 243.048 64.4553C233.119 58.5743 221.675 55.7553 210.15 56.3533H210.14ZM246.44 147.963C246.329 148.046 246.238 148.152 246.17 148.273C242.906 151.842 239.103 154.879 234.9 157.273C233.854 157.846 232.886 158.552 232.02 159.373C225.976 162.398 219.309 163.973 212.55 163.973C205.791 163.973 199.124 162.398 193.08 159.373C192.144 158.574 191.14 157.858 190.08 157.233C182.003 152.587 175.561 145.557 171.637 137.105C167.714 128.654 166.501 119.196 168.166 110.028C169.83 100.86 174.291 92.4323 180.935 85.8993C187.579 79.3673 196.081 75.0493 205.276 73.5403C214.47 72.0313 223.907 73.4033 232.291 77.4693C240.675 81.5353 247.595 88.0953 252.103 96.2493C256.611 104.404 258.486 113.753 257.47 123.016C256.455 132.278 252.598 140.999 246.43 147.983L246.44 147.963Z" fill="#3FBDF1"/>
<path d="M238.39 168.532C236.088 170.62 234.251 173.169 232.997 176.014C231.743 178.858 231.1 181.933 231.11 185.042V187.722C231.11 197.082 224.33 205.472 215.11 206.412C212.618 206.667 210.101 206.398 207.719 205.622C205.338 204.845 203.146 203.579 201.283 201.904C199.421 200.229 197.93 198.183 196.907 195.897C195.883 193.611 195.349 191.136 195.34 188.632V185.042C195.335 181.916 194.675 178.826 193.404 175.971C192.133 173.115 190.279 170.557 187.96 168.462C195.786 172.401 204.425 174.459 213.187 174.471C221.949 174.483 230.593 172.449 238.43 168.532H238.39Z" fill="#353642"/>
<path d="M238.39 168.532C236.088 170.62 234.251 173.169 232.997 176.014C231.743 178.858 231.1 181.933 231.11 185.042V187.722C231.11 197.082 224.33 205.472 215.11 206.412C212.618 206.667 210.101 206.398 207.719 205.622C205.338 204.845 203.146 203.579 201.283 201.904C199.421 200.229 197.93 198.183 196.907 195.897C195.883 193.611 195.349 191.136 195.34 188.632V185.042C195.335 181.916 194.675 178.826 193.404 175.971C192.133 173.115 190.279 170.557 187.96 168.462C195.786 172.401 204.425 174.459 213.187 174.471C221.949 174.483 230.593 172.449 238.43 168.532H238.39Z" stroke="black" stroke-width="5.5" stroke-miterlimit="10"/>
<path d="M271.78 114.864C271.81 129.172 266.578 142.992 257.08 153.694C256.961 153.823 256.851 153.96 256.75 154.104C252.531 158.752 247.603 162.704 242.15 165.814C240.795 166.571 239.534 167.484 238.39 168.534C230.553 172.452 221.909 174.485 213.147 174.473C204.385 174.461 195.747 172.403 187.92 168.464C186.725 167.425 185.432 166.504 184.06 165.714C174.401 160.161 166.523 151.973 161.347 142.108C156.17 132.242 153.91 121.107 154.83 110.004C156.048 94.9143 163.061 80.8833 174.398 70.8513C185.736 60.8193 200.517 55.5673 215.642 56.1963C230.767 56.8243 245.062 63.2853 255.528 74.2223C265.994 85.1603 271.818 99.7253 271.78 114.864Z" stroke="black" stroke-width="5.5" stroke-miterlimit="10"/>
<path d="M196.65 174.474L183.23 129.994L179.87 117.394C179.87 117.015 179.995 116.647 180.225 116.346C180.456 116.046 180.779 115.83 181.145 115.732C181.511 115.634 181.899 115.659 182.249 115.804C182.599 115.949 182.891 116.206 183.08 116.534C186.08 121.834 190.82 128.484 195.54 128.314C203.37 128.034 196.94 104.264 190.54 106.754C184.14 109.244 196.41 124.954 209.05 126.914C221.69 128.874 218.23 107.624 209.05 106.784C199.87 105.944 206.2 123.844 222.7 126.914C239.2 129.984 236.12 111.814 231.65 108.184C227.18 104.554 228.57 125.514 238.93 128.874C242.21 129.944 244.82 127.654 246.1 124.804C246.84 123.144 246.46 114.744 244.94 117.334C241.84 122.644 241.23 129.274 239.71 135.134C236.48 147.534 231.54 159.404 228.71 171.914" stroke="#FFE9B0" stroke-width="5.5" stroke-miterlimit="10"/>
<path d="M108.45 900.191C115.53 896.871 768.45 900.191 768.45 900.191" stroke="black" stroke-width="5.5" stroke-miterlimit="10"/>
<path d="M213.16 35.4223L212.58 0.192261" stroke="black" stroke-width="7.34" stroke-miterlimit="10"/>
<path d="M145.97 68.1923L121.58 42.7626" stroke="black" stroke-width="7.34" stroke-miterlimit="10"/>
<path d="M280.6 69.7722L305.53 44.8719" stroke="black" stroke-width="7.34" stroke-miterlimit="10"/>
<path d="M654.34 852.131L655.19 852.211C654.73 852.291 654.19 852.371 653.72 852.481H653L585.29 852.131H577.64L463.88 851.551C463.45 851.551 463.02 851.551 462.59 851.551C462.488 851.57 462.383 851.57 462.28 851.551C462.28 851.551 462.28 851.551 462.21 851.551C461.494 851.558 460.778 851.507 460.07 851.401C466.154 850.713 471.92 848.317 476.7 844.491C477.45 843.861 478.22 843.261 478.92 842.581L479 842.501C479.163 842.369 479.317 842.225 479.46 842.071C485.242 836.353 488.704 828.699 489.18 820.581C489.18 820.191 489.18 819.761 489.18 819.371V818.751C489.145 811.173 486.503 803.837 481.697 797.977C476.892 792.117 470.215 788.089 462.79 786.571C462.779 786.561 462.765 786.556 462.75 786.556C462.735 786.556 462.721 786.561 462.71 786.571C461.97 786.381 461.12 786.261 460.34 786.141L462.01 786.031C462.283 786.011 462.557 786.011 462.83 786.031C463.29 786.031 463.72 786.031 464.15 786.031L560.26 786.531L577.95 786.611L593.65 786.691H600.96H601.85C601.97 786.691 602.04 786.691 602.16 786.691C610.266 787.508 617.781 791.301 623.252 797.338C628.723 803.374 631.762 811.225 631.78 819.371C631.779 820.921 631.662 822.469 631.43 824.001C630.296 831.614 626.532 838.59 620.79 843.716C615.048 848.842 607.692 851.795 600 852.061C599.65 852.061 599.3 852.061 599 852.061H656.1C655.27 852.091 654.73 852.091 654.34 852.131Z" fill="white"/>
<path d="M501.43 891.874C503.59 894.045 506.158 895.768 508.986 896.942C511.815 898.116 514.848 898.718 517.91 898.714H462.13C451.45 898.714 445.65 896.114 441.42 891.874C437.05 887.501 434.591 881.576 434.58 875.394C434.58 862.614 445.07 852.114 462.13 852.114H517.91C513.3 852.107 508.792 853.468 504.957 856.025C501.122 858.583 498.132 862.222 496.367 866.48C494.602 870.738 494.141 875.425 495.042 879.946C495.944 884.467 498.167 888.618 501.43 891.874Z" fill="#D7E8F0"/>
<path d="M654.57 852.206C654.613 852.194 654.658 852.197 654.7 852.213C654.657 852.211 654.613 852.209 654.57 852.206C654.418 852.195 654.268 852.17 654.12 852.132H600C607.037 851.756 613.766 849.122 619.19 844.622C620.007 843.955 620.789 843.244 621.53 842.492C622.149 841.89 622.734 841.252 623.28 840.583C623.698 840.118 624.085 839.627 624.44 839.112C624.67 838.832 624.87 838.562 625.06 838.292C625.43 837.797 625.764 837.276 626.06 836.732C626.515 836.098 626.919 835.43 627.27 834.732C627.643 834.066 627.977 833.378 628.27 832.672C628.42 832.362 628.54 832.012 628.74 831.672C629.01 830.973 629.24 830.273 629.47 829.573C629.79 828.573 630.1 827.513 630.33 826.473C630.47 825.91 630.573 825.339 630.64 824.762C630.685 824.623 630.712 824.479 630.72 824.333C630.764 824.221 630.791 824.103 630.8 823.982C630.8 823.592 630.91 823.242 630.95 822.852V822.622C631.096 821.539 631.163 820.446 631.15 819.352C631.163 818.848 631.137 818.343 631.07 817.843V817.492C631.07 816.997 631.03 816.502 630.95 816.012C630.686 813.314 630.071 810.662 629.12 808.122C628.594 806.599 627.924 805.129 627.12 803.732C626.386 802.326 625.53 800.988 624.56 799.732C624.309 799.366 624.035 799.015 623.74 798.682C623.62 798.562 623.51 798.402 623.35 798.252C622.832 797.571 622.26 796.933 621.64 796.343C621.18 795.883 620.64 795.412 620.17 794.912C619.7 794.412 618.92 793.822 618.26 793.352C617.6 792.882 617.17 792.543 616.59 792.153C615.728 791.526 614.819 790.968 613.87 790.482C612.986 789.967 612.064 789.522 611.11 789.153C610.006 788.68 608.878 788.266 607.73 787.912C607.339 787.767 606.933 787.663 606.52 787.602C605.45 787.298 604.361 787.064 603.26 786.903C602.71 786.783 602.17 786.742 601.59 786.672H601.51C601.435 786.692 601.355 786.692 601.28 786.672H601.51H601.59C602.17 786.742 602.71 786.783 603.26 786.903C604.361 787.064 605.45 787.298 606.52 787.602C606.933 787.663 607.339 787.767 607.73 787.912C608.878 788.266 610.006 788.68 611.11 789.153C612.064 789.522 612.986 789.967 613.87 790.482C614.819 790.968 615.728 791.526 616.59 792.153C617.17 792.543 617.6 792.882 618.26 793.352C618.92 793.822 619.7 794.412 620.17 794.912C620.64 795.412 621.18 795.883 621.64 796.343C622.26 796.933 622.832 797.571 623.35 798.252C623.51 798.402 623.62 798.562 623.74 798.682C624.035 799.015 624.309 799.366 624.56 799.732C625.53 800.988 626.386 802.326 627.12 803.732C627.924 805.129 628.594 806.599 629.12 808.122C630.071 810.662 630.686 813.314 630.95 816.012C631.03 816.502 631.07 816.997 631.07 817.492V817.843C631.137 818.343 631.163 818.848 631.15 819.352C631.163 820.446 631.096 821.539 630.95 822.622V822.852C630.91 823.242 630.8 823.592 630.8 823.982C630.791 824.103 630.764 824.221 630.72 824.333C630.712 824.479 630.685 824.623 630.64 824.762C630.573 825.339 630.47 825.91 630.33 826.473C630.1 827.513 629.79 828.573 629.47 829.573C629.24 830.273 629.01 830.973 628.74 831.672C628.54 832.012 628.42 832.362 628.27 832.672C627.977 833.378 627.643 834.066 627.27 834.732C626.919 835.43 626.515 836.098 626.06 836.732C625.764 837.276 625.43 837.797 625.06 838.292C624.87 838.562 624.67 838.832 624.44 839.112C624.085 839.627 623.698 840.118 623.28 840.583C622.734 841.252 622.149 841.89 621.53 842.492C620.789 843.244 620.007 843.955 619.19 844.622C613.766 849.122 607.037 851.756 600 852.132H654.12C654.249 852.112 654.381 852.112 654.51 852.132H654.12C654.268 852.17 654.418 852.195 654.57 852.206Z" fill="#3FBDF1"/>
<path d="M685.82 819.844C685.82 820.464 685.82 821.124 685.74 821.744C685.66 822.794 685.55 823.804 685.39 824.814C685.31 825.354 685.2 825.904 685.08 826.444C684.85 827.444 684.58 828.544 684.27 829.554C683.92 830.668 683.502 831.76 683.02 832.824C682.865 833.241 682.671 833.643 682.44 834.024C682.44 834.144 682.36 834.224 682.28 834.334C682.05 834.844 681.78 835.334 681.51 835.814C681.08 836.594 680.61 837.364 680.11 838.104C679.52 839.004 678.86 839.814 678.2 840.634C677.529 841.448 676.815 842.226 676.06 842.964C675.269 843.769 674.427 844.524 673.54 845.224L672.54 846.034C671.403 846.893 670.206 847.672 668.96 848.364C668.38 848.674 667.76 848.994 667.14 849.304C667.082 849.347 667.012 849.371 666.94 849.374C666.24 849.724 665.54 850.004 664.84 850.274C664.14 850.544 663.44 850.814 662.71 851.044C661.97 851.244 661.23 851.474 660.49 851.634L659.88 851.744C659.3 851.874 658.72 851.984 658.13 852.074C657.084 852.254 656.029 852.377 654.97 852.444C654.326 852.511 653.678 852.538 653.03 852.524C653.03 852.524 652.91 852.524 652.87 852.524L585.27 852.194L569.34 852.114L463.16 851.574C462.769 851.567 462.378 851.54 461.99 851.494C461.1 851.494 460.24 851.414 459.35 851.344C467.043 850.427 474.169 846.84 479.489 841.208C484.808 835.576 487.983 828.256 488.46 820.524C488.46 820.134 488.46 819.704 488.46 819.274V818.854C488.47 811.235 485.842 803.848 481.025 797.946C476.207 792.044 469.496 787.991 462.03 786.474C461.25 786.314 460.47 786.204 459.66 786.084C460.434 785.994 461.211 785.944 461.99 785.934C462.263 785.914 462.537 785.914 462.81 785.934H463.47L569.65 786.474L593.65 786.594H601.5H602.16L653.16 786.864C654.834 786.87 656.505 787.001 658.16 787.254C662.385 787.947 666.436 789.451 670.09 791.684C670.56 791.954 670.98 792.264 671.41 792.534C672.706 793.421 673.939 794.397 675.1 795.454C675.49 795.804 675.84 796.154 676.23 796.544C679.193 799.546 681.567 803.077 683.23 806.954L683.82 808.474C684.017 808.967 684.184 809.471 684.32 809.984C685.317 813.175 685.823 816.5 685.82 819.844Z" stroke="black" stroke-width="5.5" stroke-linecap="square" stroke-linejoin="round"/>
<path d="M631.1 819.253C631.106 820.345 631.053 821.437 630.94 822.523C630.94 822.603 630.94 822.673 630.94 822.753C630.86 823.263 630.79 823.753 630.71 824.233C630.702 824.379 630.675 824.524 630.63 824.663C630.563 825.239 630.46 825.81 630.32 826.373C630.09 827.373 629.78 828.463 629.46 829.473C629.23 830.173 629 830.873 628.73 831.573C628.53 831.923 628.41 832.273 628.26 832.573C627.967 833.279 627.633 833.967 627.26 834.633C626.909 835.33 626.505 835.999 626.05 836.633C625.754 837.176 625.42 837.698 625.05 838.193C624.86 838.463 624.66 838.733 624.43 839.013C624.075 839.527 623.688 840.018 623.27 840.483C622.724 841.153 622.139 841.791 621.52 842.393C620.776 843.129 619.995 843.826 619.18 844.483C613.768 849.006 607.042 851.665 600 852.063C599.65 852.063 599.3 852.063 599 852.063H463.31C462.07 852.063 460.79 851.993 459.5 851.873C460.337 851.773 461.168 851.63 461.99 851.443C462.055 851.466 462.125 851.466 462.19 851.443H462.26C468.565 850.128 474.348 847 478.9 842.443L478.98 842.363C484.768 836.514 488.151 828.706 488.46 820.483C488.46 820.093 488.46 819.663 488.46 819.233V819.193C488.398 811.178 485.42 803.46 480.084 797.479C474.747 791.498 467.416 787.665 459.46 786.693C460.32 786.583 461.17 786.543 462.03 786.503C462.248 786.463 462.472 786.463 462.69 786.503C462.701 786.493 462.715 786.488 462.73 786.488C462.745 786.488 462.759 786.493 462.77 786.503C462.936 786.483 463.104 786.483 463.27 786.503H598.25C599.19 786.503 600.08 786.503 600.98 786.623H601.29C601.365 786.643 601.445 786.643 601.52 786.623H601.68L603.27 786.853C604.371 787.015 605.46 787.248 606.53 787.553C606.92 787.633 607.35 787.743 607.74 787.863C608.888 788.216 610.016 788.63 611.12 789.103C612.05 789.493 612.99 789.963 613.88 790.433C614.82 790.933 615.729 791.491 616.6 792.103C617.18 792.493 617.73 792.873 618.27 793.303C618.81 793.733 619.55 794.303 620.18 794.863C620.81 795.423 621.18 795.863 621.65 796.293C622.24 796.923 622.82 797.543 623.36 798.203C623.52 798.353 623.63 798.513 623.75 798.633L624.57 799.683C625.506 800.961 626.361 802.297 627.13 803.683C627.885 805.105 628.553 806.571 629.13 808.073C630.048 810.622 630.662 813.271 630.96 815.963C630.96 816.473 631.04 816.963 631.08 817.443V817.793C631.1 818.243 631.1 818.753 631.1 819.253Z" stroke="black" stroke-width="5.5" stroke-linecap="square" stroke-linejoin="round"/>
<path d="M656.05 898.692H462.11C457.788 898.808 453.477 898.193 449.36 896.872C448.54 896.562 447.77 896.252 447.03 895.872C446.29 895.482 445.63 895.092 444.97 894.702C444.31 894.312 443.73 893.812 443.14 893.342C442.56 892.832 442.02 892.342 441.51 891.822C438.848 889.163 436.875 885.895 435.76 882.302C435.052 880.064 434.698 877.729 434.71 875.382C434.703 874.473 434.756 873.564 434.87 872.662C435.017 871.395 435.289 870.146 435.68 868.932C436.221 867.012 437.062 865.19 438.17 863.532C438.803 862.449 439.558 861.443 440.42 860.532C440.95 859.942 441.51 859.381 442.1 858.852C446.84 854.622 453.72 852.012 462.23 852.012H656.05C655.27 852.012 654.73 852.012 654.34 852.012C654.211 851.992 654.079 851.992 653.95 852.012C653.56 852.012 653.64 852.012 653.83 852.012C653.841 852.022 653.855 852.027 653.87 852.027C653.885 852.027 653.899 852.022 653.91 852.012C653.999 852.03 654.091 852.03 654.18 852.012C654.26 852.012 654.3 852.012 654.38 852.012C653.95 852.092 653.52 852.132 653.09 852.242H653C653 852.242 652.88 852.242 652.84 852.242C647.539 853.296 642.767 856.152 639.331 860.324C635.895 864.496 634.008 869.727 633.99 875.132C634.021 880.831 636.124 886.325 639.907 890.588C643.69 894.851 648.895 897.593 654.55 898.302C653.6 898.662 652.71 898.692 656.05 898.692Z" stroke="black" stroke-width="5.5" stroke-linecap="square" stroke-linejoin="round"/>
<path d="M654.49 898.58C653.6 898.66 652.71 898.69 651.81 898.69H517.88C514.824 898.689 511.799 898.083 508.978 896.91C506.157 895.736 503.595 894.017 501.44 891.85C498.779 889.191 496.805 885.924 495.69 882.33C494.999 880.09 494.662 877.755 494.69 875.41C494.701 869.236 497.155 863.316 501.518 858.946C505.88 854.577 511.795 852.112 517.97 852.09H651.81C652.47 852.09 653.17 852.09 653.81 852.17C653.926 852.189 654.044 852.189 654.16 852.17C654.24 852.17 654.28 852.17 654.36 852.17C653.93 852.25 653.5 852.29 653.07 852.4H653C653 852.4 652.88 852.4 652.84 852.4C647.54 853.455 642.767 856.31 639.331 860.482C635.896 864.654 634.009 869.886 633.99 875.29C634.021 880.99 636.124 886.484 639.907 890.747C643.69 895.01 648.895 897.752 654.55 898.46L654.49 898.58Z" stroke="black" stroke-width="5.5" stroke-linecap="square" stroke-linejoin="round"/>
<path d="M494.6 875.41C494.6 881.585 497.053 887.506 501.418 891.872C505.784 896.238 511.706 898.69 517.88 898.69H462.11C451.46 898.69 445.63 896.09 441.39 891.85C439.229 889.693 437.516 887.13 436.349 884.309C435.182 881.488 434.584 878.464 434.59 875.41C434.59 862.59 445.05 852.09 462.11 852.09H517.88C511.705 852.112 505.79 854.577 501.428 858.946C497.065 863.316 494.61 869.236 494.6 875.41Z" stroke="black" stroke-width="5.5" stroke-linecap="square" stroke-linejoin="round"/>
<path d="M656.05 898.693H651.81C652.71 898.693 653.6 898.693 654.49 898.583C653.6 898.663 652.71 898.693 656.05 898.693Z" stroke="black" stroke-width="5.5" stroke-linecap="square" stroke-linejoin="round"/>
<path d="M654.18 852.191C653.41 852.191 652.59 852.071 651.81 852.071H656.05C653.09 852.091 653.44 852.191 654.18 852.191Z" stroke="black" stroke-width="5.5" stroke-linecap="square" stroke-linejoin="round"/>
<path opacity="0.54" d="M73 810.973L3.58001 633.133C2.71991 629.693 2.6553 626.101 3.391 622.632C4.1267 619.162 5.6434 615.906 7.8258 613.111C10.0083 610.315 12.7991 608.054 15.9863 606.498C19.1736 604.943 22.6734 604.134 26.22 604.133H302C308.191 604.132 314.202 606.215 319.066 610.046C323.929 613.877 327.362 619.234 328.81 625.253L404.81 803.073C405.634 806.505 405.669 810.079 404.913 813.526C404.157 816.973 402.628 820.203 400.443 822.975C398.258 825.746 395.473 827.985 392.298 829.525C389.122 831.065 385.639 831.864 382.11 831.863H99.73C93.583 831.863 87.612 829.806 82.768 826.021C77.925 822.235 74.486 816.939 73 810.973Z" fill="white"/>
<path d="M73 810.973L3.58001 633.133C2.71991 629.693 2.6553 626.101 3.391 622.632C4.1267 619.162 5.6434 615.906 7.8258 613.111C10.0083 610.315 12.7991 608.054 15.9863 606.498C19.1736 604.943 22.6734 604.134 26.22 604.133H302C308.191 604.132 314.202 606.215 319.066 610.046C323.929 613.877 327.362 619.234 328.81 625.253L404.81 803.073C405.634 806.505 405.669 810.079 404.913 813.526C404.157 816.973 402.628 820.203 400.443 822.975C398.258 825.746 395.473 827.985 392.298 829.525C389.122 831.065 385.639 831.864 382.11 831.863H99.73C93.583 831.863 87.612 829.806 82.768 826.021C77.925 822.235 74.486 816.939 73 810.973Z" fill="#3FBDF1"/>
<path d="M73 810.973L3.58001 633.133C2.71991 629.693 2.6553 626.101 3.391 622.632C4.1267 619.162 5.6434 615.906 7.8258 613.111C10.0083 610.315 12.7991 608.054 15.9863 606.498C19.1736 604.943 22.6734 604.134 26.22 604.133H302C308.191 604.132 314.202 606.215 319.066 610.046C323.929 613.877 327.362 619.234 328.81 625.253L404.81 803.073C405.634 806.505 405.669 810.079 404.913 813.526C404.157 816.973 402.628 820.203 400.443 822.975C398.258 825.746 395.473 827.985 392.298 829.525C389.122 831.065 385.639 831.864 382.11 831.863H99.73C93.583 831.863 87.612 829.806 82.768 826.021C77.925 822.235 74.486 816.939 73 810.973Z" stroke="black" stroke-width="5.5" stroke-linecap="square" stroke-linejoin="round"/>
<path d="M83.14 803.772L19.14 639.702C18.3456 636.53 18.2843 633.218 18.9609 630.018C19.6374 626.818 21.0341 623.815 23.0447 621.235C25.0554 618.656 27.6273 616.569 30.5651 615.132C33.5029 613.695 36.7296 612.946 40 612.942H294.38C300.092 612.943 305.637 614.866 310.123 618.401C314.608 621.937 317.774 626.879 319.11 632.432L389.22 796.432C389.98 799.598 390.013 802.895 389.316 806.076C388.618 809.256 387.209 812.238 385.193 814.795C383.178 817.352 380.609 819.419 377.679 820.841C374.75 822.262 371.536 823.001 368.28 823.002H107.82C102.152 823.004 96.645 821.113 92.174 817.63C87.703 814.146 84.524 809.269 83.14 803.772Z" fill="#3FBDF1"/>
<path d="M276 643.11C272.63 638.04 267.12 635.79 263.68 638.11C260.24 640.43 260.19 646.36 263.56 651.43C264.091 652.202 264.687 652.928 265.34 653.6L240.34 706.37C236.34 703.71 231.97 703.05 228.83 705.15C227.816 705.888 226.976 706.838 226.37 707.935C225.763 709.033 225.405 710.249 225.32 711.5L208.24 705.73L193.31 700.73L188.43 699.13C187.818 697.297 186.968 695.552 185.9 693.94C181.16 686.82 173.42 683.66 168.59 686.87C163.76 690.08 163.71 698.29 168.32 705.36L139.91 744.19C133.71 739.1 126.4 737.53 121.34 740.89C114.46 745.48 114.34 757.43 121.11 767.59C121.38 767.99 121.69 768.33 121.97 768.71L103 794.63L102.83 794.88C102.296 795.601 101.913 796.423 101.707 797.296C101.5 798.169 101.473 799.075 101.628 799.958C101.783 800.842 102.116 801.685 102.607 802.436C103.098 803.187 103.736 803.83 104.484 804.326C105.231 804.822 106.072 805.161 106.955 805.321C107.837 805.482 108.743 805.461 109.618 805.261C110.492 805.06 111.317 804.683 112.041 804.154C112.765 803.624 113.374 802.953 113.83 802.18L130.7 776.79C136.02 779.88 141.7 780.47 145.83 777.71C152.41 773.33 152.72 762.25 146.83 752.41L174.08 711.28C178.08 714.01 182.54 714.71 185.72 712.6C187.498 711.347 188.709 709.442 189.09 707.3L191.09 707.87L206.28 712.02L225.72 717.26C226.311 719.588 227.291 721.799 228.62 723.8C233.35 730.91 241.1 734.08 245.93 730.87C250.76 727.66 250.82 719.29 246.09 712.18C245.392 711.147 244.609 710.174 243.75 709.27L267.54 655.48C270.41 657.48 273.54 657.93 275.85 656.42C279.34 654.19 279.39 648.19 276 643.11Z" fill="white"/>
<path d="M95.0001 646.022H58.1501C56.4551 646.029 54.7951 645.54 53.3741 644.616C51.9521 643.693 50.8321 642.374 50.1501 640.822C49.9401 640.346 49.8281 639.832 49.8201 639.312C49.8311 638.307 50.2361 637.347 50.9491 636.64C51.6631 635.933 52.6261 635.534 53.6301 635.532H92.8201C91.0001 638.642 92.0001 642.962 95.0001 646.022Z" fill="#D7E8F0"/>
<path d="M118.86 642.242C118.855 643.245 118.453 644.204 117.744 644.913C117.034 645.621 116.073 646.019 115.07 646.022H95.0001C91.9401 642.962 91.0001 638.642 92.8501 635.532H110.55C112.242 635.523 113.9 636.007 115.32 636.925C116.741 637.843 117.864 639.156 118.55 640.702C118.757 641.189 118.862 641.713 118.86 642.242Z" fill="#3FBDF1"/>
<path d="M109.64 646.021C109.532 646.222 109.412 646.415 109.28 646.601C106.64 650.191 100.94 650.531 96.5101 647.291C95.9801 646.909 95.4811 646.484 95.0201 646.021C91.9601 642.961 91.0201 638.641 92.8701 635.531C92.9701 635.326 93.0911 635.132 93.2301 634.951C95.8401 631.341 101.54 631.031 105.97 634.241C106.508 634.628 107.014 635.06 107.48 635.531C110.52 638.601 111.46 642.881 109.64 646.021Z" fill="white"/>
<path d="M128.13 665.383C128.122 666.388 127.717 667.349 127.004 668.057C126.29 668.765 125.325 669.163 124.32 669.163H85.63C87.5 666.023 86.57 661.743 83.5 658.673H119.84C121.535 658.666 123.195 659.154 124.616 660.078C126.038 661.002 127.158 662.321 127.84 663.873C128.036 664.351 128.135 664.865 128.13 665.383Z" fill="#3FBDF1"/>
<path d="M85.6299 669.194H67.4299C65.7379 669.203 64.0799 668.719 62.6599 667.801C61.2389 666.883 60.1159 665.57 59.4299 664.024C59.2199 663.54 59.1079 663.02 59.0999 662.494C59.0969 661.996 59.1929 661.503 59.3819 661.043C59.5709 660.582 59.8489 660.164 60.2009 659.811C60.5519 659.459 60.9699 659.18 61.4289 658.99C61.8889 658.8 62.3819 658.702 62.8799 658.704H83.4999C86.5699 661.744 87.4999 666.024 85.6299 669.194Z" fill="#D7E8F0"/>
<path d="M85.63 669.193C85.547 669.401 85.436 669.596 85.3 669.773C82.69 673.393 76.98 673.703 72.55 670.493C72.002 670.099 71.484 669.664 71 669.193C68 666.133 67 661.843 68.85 658.703C68.948 658.501 69.069 658.309 69.21 658.133C71.84 654.533 77.54 654.203 81.98 657.433C82.505 657.819 83 658.243 83.46 658.703C86.57 661.743 87.5 666.023 85.63 669.193Z" fill="white"/>
<path d="M98.52 692.192H75.36C73.668 692.197 72.011 691.71 70.591 690.79C69.171 689.87 68.048 688.558 67.36 687.012C67.15 686.536 67.038 686.022 67.03 685.502C67.033 684.492 67.435 683.525 68.149 682.811C68.863 682.097 69.83 681.695 70.84 681.692H96.32C94.54 684.782 95.48 689.072 98.52 692.192Z" fill="#3FBDF1"/>
<path d="M136.06 688.381C136.055 689.382 135.653 690.34 134.942 691.045C134.232 691.75 133.271 692.144 132.27 692.141H98.52C95.52 689.071 94.52 684.781 96.36 681.641H127.77C129.457 681.64 131.108 682.132 132.521 683.055C133.933 683.979 135.045 685.295 135.72 686.841C135.937 687.326 136.053 687.85 136.06 688.381Z" fill="#D7E8F0"/>
<path d="M113.13 692.192C113.032 692.395 112.911 692.586 112.77 692.762C110.16 696.382 104.46 696.692 100.03 693.482C99.498 693.086 98.994 692.655 98.52 692.192C95.52 689.122 94.52 684.832 96.36 681.692C96.465 681.493 96.586 681.303 96.72 681.122C99.36 677.532 105.06 677.212 109.49 680.422C110.016 680.81 110.514 681.234 110.98 681.692C114 684.712 115 689.022 113.13 692.192Z" fill="white"/>
<path d="M248.27 800.532H225.1C223.408 800.537 221.751 800.049 220.331 799.13C218.91 798.21 217.788 796.898 217.1 795.352C216.882 794.878 216.766 794.363 216.76 793.842C216.763 792.832 217.165 791.865 217.879 791.151C218.593 790.437 219.56 790.034 220.57 790.032H246.06C244.29 793.192 245.23 797.462 248.27 800.532Z" fill="#3FBDF1"/>
<path d="M340.22 796.772C340.219 797.267 340.12 797.757 339.929 798.214C339.739 798.671 339.46 799.086 339.109 799.435C338.758 799.784 338.341 800.06 337.883 800.249C337.426 800.437 336.935 800.533 336.44 800.532H248.27C245.27 797.462 244.27 793.172 246.11 790.032H331.93C333.617 790.031 335.268 790.522 336.681 791.446C338.093 792.37 339.205 793.685 339.88 795.232C340.097 795.717 340.213 796.241 340.22 796.772Z" fill="#D7E8F0"/>
<path d="M262.88 800.532C262.782 800.735 262.661 800.926 262.52 801.102C259.91 804.722 254.21 805.032 249.78 801.822C249.246 801.429 248.742 800.998 248.27 800.532C245.27 797.462 244.27 793.172 246.11 790.032C246.215 789.833 246.336 789.642 246.47 789.462C249.11 785.872 254.81 785.552 259.24 788.762C259.766 789.15 260.264 789.574 260.73 790.032C263.79 793.102 264.73 797.412 262.88 800.532Z" fill="white"/>
</svg>
