<svg width="1000" height="1000" viewBox="0 0 1000 1000" fill="none" xmlns="http://www.w3.org/2000/svg">
<path d="M477.5 856L127 909L124 912L164.5 957H445.5H717H766.5L797.5 946L812 934L778 880.5L746 836.5C739.5 811.5 667.5 814.167 642 820.5L477.5 856Z" fill="white" stroke="black"/>
<path d="M700.5 721L688.5 749H687L689.5 750L691.5 752.5L773.5 875L813.5 936L831 956H866.5H923L928 954V945.5L923 936C917.5 935.5 901.9 934.8 883.5 936C865.1 937.2 855.167 918.167 852.5 908.5L771 703L746.5 700.5L700.5 721Z" fill="white" stroke="black"/>
<path d="M531 250.068C531 250.068 656 180.848 721.09 268.338C786.18 355.828 688.85 424.158 774.36 475.638C859.87 527.118 793.83 625.908 871.36 658.728C948.89 691.548 925.87 833.358 835 866.078" stroke="#CCDDE2" stroke-width="5.14" stroke-miterlimit="10"/>
<path d="M174.18 765.648C173.94 766.648 173.74 767.568 173.57 768.558C173.16 770.618 172.78 772.708 172.51 774.828C166.51 819.058 185.93 863.418 213.13 897.368" stroke="#CCDDE2" stroke-width="5.14" stroke-miterlimit="10"/>
<path d="M608.77 259.211H228.76C182.164 259.211 144.39 296.985 144.39 343.581V701.331C144.39 747.927 182.164 785.701 228.76 785.701H608.77C655.366 785.701 693.14 747.927 693.14 701.331V343.581C693.14 296.985 655.366 259.211 608.77 259.211Z" fill="#5B5B5B"/>
<path d="M603.18 251.52H226.35C176.661 251.52 136.38 291.8 136.38 341.49V695.729C136.38 745.419 176.661 785.7 226.35 785.7H603.18C652.869 785.7 693.15 745.419 693.15 695.729V341.49C693.15 291.8 652.869 251.52 603.18 251.52Z" stroke="black" stroke-width="5.14" stroke-miterlimit="10"/>
<path d="M597.98 269.559H239.55C192.954 269.559 155.18 307.332 155.18 353.929V690.969C155.18 737.565 192.954 775.339 239.55 775.339H597.98C644.576 775.339 682.35 737.565 682.35 690.969V353.929C682.35 307.332 644.576 269.559 597.98 269.559Z" fill="#5B5B5B"/>
<path d="M620.07 296.109H509.69C494.69 296.109 482.5 309.209 482.5 325.339V620.209C482.5 636.369 494.69 649.479 509.69 649.479H620.07C635.07 649.479 647.31 636.369 647.31 620.209V325.339C647.31 309.209 635.11 296.109 620.07 296.109ZM634.46 611.999C634.46 625.479 624.32 636.369 611.78 636.369H518C505.46 636.369 495.32 625.479 495.32 611.999V333.619C495.32 320.149 505.46 309.249 518 309.249H611.76C624.3 309.249 634.44 320.149 634.44 333.619L634.46 611.999Z" fill="#D7E8F0"/>
<path d="M371.25 668.332L209.48 666.002C207.739 665.973 206.081 665.254 204.87 664.003C203.658 662.753 202.993 661.072 203.02 659.332C203.019 658.732 203.107 658.136 203.28 657.562C203.694 656.192 204.542 654.993 205.696 654.147C206.851 653.302 208.249 652.854 209.68 652.872L371.45 655.252C370.222 657.123 369.53 659.295 369.45 661.532C369.385 663.924 370.01 666.285 371.25 668.332Z" fill="#5B5B5B"/>
<path d="M410.46 664.092C410.048 665.463 409.202 666.664 408.05 667.515C406.898 668.366 405.502 668.821 404.07 668.812L392.39 668.642C393.64 666.688 394.321 664.424 394.357 662.105C394.392 659.786 393.78 657.503 392.59 655.512L404.27 655.682C406.011 655.713 407.669 656.432 408.881 657.682C410.093 658.932 410.762 660.611 410.74 662.352C410.733 662.942 410.639 663.529 410.46 664.092Z" fill="#D7E8F0"/>
<path d="M410.08 690.141C409.67 691.509 408.826 692.707 407.675 693.553C406.524 694.399 405.129 694.847 403.7 694.831L242.93 692.481C244.715 690.369 245.73 687.714 245.81 684.951C245.887 683.035 245.506 681.13 244.7 679.391L403.88 681.691C405.619 681.725 407.274 682.445 408.484 683.695C409.695 684.944 410.362 686.621 410.34 688.361C410.341 688.963 410.253 689.563 410.08 690.141Z" fill="#D7E8F0"/>
<path d="M223.6 692.192L209.11 692.002C207.372 691.978 205.714 691.265 204.501 690.02C203.288 688.775 202.619 687.1 202.64 685.362C202.643 684.752 202.734 684.145 202.91 683.562C203.315 682.194 204.157 680.996 205.308 680.152C206.458 679.309 207.854 678.866 209.28 678.892L222.19 679.102C221.446 680.668 221.024 682.369 220.95 684.102C220.839 687.028 221.779 689.898 223.6 692.192Z" fill="#5B5B5B"/>
<path d="M359.8 720.521L209.7 718.341C207.963 718.299 206.313 717.576 205.104 716.329C203.896 715.081 203.226 713.408 203.24 711.671C203.247 711.08 203.341 710.494 203.52 709.931C203.931 708.559 204.776 707.357 205.928 706.506C207.08 705.655 208.478 705.201 209.91 705.211L359.78 707.421C358.554 709.386 357.903 711.655 357.903 713.971C357.903 716.287 358.554 718.556 359.78 720.521H359.8Z" fill="#5B5B5B"/>
<path d="M410.71 716.492C410.3 717.865 409.451 719.066 408.293 719.911C407.135 720.756 405.733 721.199 404.3 721.172L380.77 720.812L359.77 720.522C358.544 718.557 357.894 716.288 357.894 713.972C357.894 711.656 358.544 709.387 359.77 707.422L381.13 707.742L404.49 708.072C406.226 708.101 407.879 708.815 409.089 710.06C410.3 711.304 410.969 712.976 410.95 714.712C410.962 715.314 410.881 715.914 410.71 716.492Z" fill="#D7E8F0"/>
<path d="M392.39 668.641C390.922 670.942 388.737 672.696 386.173 673.632C383.608 674.568 380.807 674.634 378.202 673.819C375.596 673.004 373.331 671.355 371.757 669.125C370.182 666.895 369.386 664.209 369.49 661.481C369.546 659.847 369.923 658.241 370.6 656.753C371.277 655.266 372.241 653.926 373.436 652.811C374.632 651.697 376.035 650.829 377.566 650.257C379.098 649.686 380.727 649.422 382.36 649.481C383.994 649.534 385.602 649.909 387.091 650.585C388.58 651.261 389.92 652.225 391.035 653.421C392.151 654.617 393.018 656.022 393.589 657.554C394.159 659.087 394.421 660.717 394.36 662.351C394.276 664.586 393.596 666.757 392.39 668.641Z" fill="white"/>
<g opacity="0.72">
<path opacity="0.72" d="M387.7 661C387.427 662.496 386.733 663.884 385.7 665C385.2 665.567 384.647 666.086 384.05 666.55C383.73 666.78 382.05 668.15 381.69 667.98C379.45 666.85 376.61 663.98 376.26 661.21C376.205 660.775 376.205 660.335 376.26 659.9C376.385 659.141 376.782 658.453 377.376 657.964C377.97 657.474 378.721 657.217 379.49 657.24C379.987 657.263 380.472 657.401 380.907 657.642C381.343 657.883 381.716 658.221 382 658.63C382.438 658.083 383.042 657.694 383.72 657.522C384.399 657.349 385.115 657.403 385.761 657.674C386.407 657.945 386.946 658.42 387.298 659.025C387.649 659.631 387.794 660.334 387.71 661.03L387.7 661Z" fill="white"/>
</g>
<path d="M242.93 692.479C241.742 693.901 240.252 695.04 238.568 695.812C236.884 696.585 235.048 696.971 233.196 696.943C231.343 696.915 229.52 696.474 227.86 695.652C226.2 694.829 224.744 693.646 223.6 692.189C221.772 689.888 220.831 687.006 220.95 684.069C221.024 682.337 221.445 680.636 222.19 679.069C223.244 676.905 224.902 675.092 226.964 673.849C229.026 672.607 231.404 671.989 233.81 672.069C236.128 672.139 238.379 672.863 240.304 674.156C242.229 675.449 243.749 677.26 244.69 679.379C245.496 681.118 245.877 683.024 245.8 684.939C245.725 687.705 244.713 690.364 242.93 692.479Z" fill="white"/>
<g opacity="0.72">
<path opacity="0.72" d="M239.17 683.609C238.897 685.105 238.204 686.493 237.17 687.609C236.672 688.181 236.115 688.7 235.51 689.159C235.19 689.389 233.51 690.769 233.16 690.589C230.91 689.459 228.08 686.589 227.73 683.819C227.675 683.384 227.675 682.944 227.73 682.509C227.858 681.751 228.255 681.064 228.848 680.575C229.442 680.086 230.192 679.828 230.96 679.849C231.457 679.872 231.942 680.01 232.377 680.251C232.813 680.492 233.187 680.83 233.47 681.239C233.908 680.691 234.513 680.301 235.193 680.129C235.873 679.956 236.591 680.01 237.237 680.283C237.883 680.556 238.423 681.032 238.774 681.64C239.124 682.247 239.267 682.953 239.18 683.649L239.17 683.609Z" fill="white"/>
</g>
<path d="M380.77 720.811C379.275 723.074 377.083 724.787 374.525 725.691C371.968 726.594 369.186 726.639 366.601 725.818C364.016 724.996 361.77 723.354 360.203 721.14C358.636 718.926 357.835 716.262 357.92 713.551C358.004 711.382 358.644 709.27 359.78 707.421C360.919 705.599 362.508 704.102 364.395 703.074C366.282 702.047 368.402 701.524 370.55 701.556C372.699 701.588 374.802 702.174 376.657 703.258C378.513 704.341 380.057 705.886 381.14 707.741C382.33 709.767 382.913 712.093 382.82 714.441C382.733 716.712 382.024 718.915 380.77 720.811Z" fill="white"/>
<g opacity="0.72">
<path opacity="0.72" d="M376.16 713.091C375.891 714.589 375.197 715.977 374.16 717.091C373.659 717.661 373.103 718.18 372.5 718.641C372.18 718.881 370.5 720.251 370.15 720.071C367.9 718.941 365.07 716.071 364.72 713.301C364.66 712.866 364.66 712.426 364.72 711.991C364.819 711.365 365.104 710.784 365.539 710.322C365.973 709.861 366.536 709.542 367.155 709.406C367.774 709.269 368.419 709.323 369.007 709.56C369.595 709.796 370.098 710.204 370.45 710.731C370.89 710.187 371.495 709.801 372.173 709.63C372.851 709.46 373.566 709.514 374.211 709.784C374.856 710.055 375.395 710.527 375.749 711.131C376.102 711.734 376.25 712.436 376.17 713.131L376.16 713.091Z" fill="white"/>
</g>
<path d="M201.78 327.12L202.06 365.47C202.129 372.156 204.781 378.556 209.462 383.331C214.142 388.106 220.487 390.886 227.17 391.09L265.17 391.75C268.43 391.792 271.664 391.18 274.683 389.95C277.702 388.721 280.444 386.898 282.747 384.591C285.049 382.284 286.866 379.538 288.09 376.517C289.313 373.495 289.919 370.259 289.87 367L289.58 328.66C289.521 321.967 286.874 315.557 282.193 310.773C277.511 305.99 271.16 303.204 264.47 303L226.47 302.33C223.208 302.289 219.971 302.904 216.951 304.136C213.93 305.369 211.188 307.195 208.886 309.507C206.584 311.818 204.769 314.568 203.548 317.593C202.328 320.619 201.726 323.858 201.78 327.12Z" fill="white"/>
<path d="M207.62 336.74L207.82 364.5C207.882 370.309 210.187 375.869 214.254 380.018C218.32 384.166 223.833 386.582 229.64 386.76L262.64 387.33C265.474 387.372 268.287 386.844 270.913 385.779C273.539 384.714 275.925 383.133 277.929 381.129C279.933 379.125 281.514 376.739 282.579 374.113C283.645 371.487 284.172 368.673 284.13 365.84V363.96C279.5 354.49 270.48 340.32 260.86 348.79C246.99 360.98 240.64 351.7 232.56 339.74C225.75 329.73 215.49 322.42 207.62 336.74Z" fill="#5B5B5B"/>
<path d="M269.648 332.914C273.834 330.133 274.913 324.395 272.059 320.098C269.204 315.802 263.497 314.574 259.311 317.355C255.124 320.136 254.045 325.874 256.9 330.17C259.754 334.467 265.462 335.695 269.648 332.914Z" fill="#5B5B5B"/>
<path d="M412.39 378.73C406.456 378.725 400.667 380.557 395.817 383.976C390.967 387.394 387.295 392.231 385.305 397.821C383.316 403.411 383.107 409.48 384.707 415.194C386.307 420.908 389.637 425.986 394.24 429.73L328.9 546.93C328.436 546.858 327.969 546.811 327.5 546.79C326.3 546.808 325.109 546.993 323.96 547.34L275 486.54C277.166 483.521 278.386 479.925 278.503 476.211C278.619 472.496 277.629 468.831 275.656 465.681C273.684 462.532 270.819 460.04 267.427 458.523C264.034 457.006 260.267 456.533 256.604 457.163C252.942 457.794 249.55 459.499 246.86 462.063C244.17 464.627 242.303 467.933 241.497 471.561C240.692 475.189 240.983 478.975 242.335 482.436C243.688 485.898 246.039 488.879 249.09 491L214.8 588.6C211.801 588.776 208.954 589.985 206.746 592.022C204.537 594.059 203.102 596.798 202.685 599.774C202.268 602.75 202.894 605.778 204.458 608.343C206.022 610.909 208.426 612.854 211.262 613.847C214.097 614.841 217.19 614.821 220.013 613.792C222.835 612.762 225.215 610.787 226.745 608.201C228.276 605.616 228.864 602.58 228.409 599.61C227.954 596.64 226.485 593.919 224.25 591.91L258.55 494.31C258.97 494.31 259.38 494.37 259.8 494.37C262.355 494.371 264.883 493.851 267.23 492.84L316.15 553.63C315.084 555.593 314.547 557.799 314.592 560.032C314.638 562.265 315.264 564.448 316.409 566.366C317.555 568.283 319.18 569.869 321.125 570.968C323.069 572.066 325.267 572.639 327.5 572.63C329.927 572.643 332.308 571.969 334.368 570.688C336.429 569.406 338.086 567.568 339.148 565.386C340.209 563.204 340.633 560.766 340.37 558.354C340.107 555.941 339.167 553.652 337.66 551.75L403 434.59C406.945 435.956 411.141 436.445 415.294 436.024C419.448 435.602 423.459 434.28 427.05 432.15C430.64 430.02 433.723 427.132 436.083 423.689C438.444 420.245 440.025 416.329 440.717 412.211C441.409 408.094 441.196 403.876 440.091 399.85C438.986 395.824 437.017 392.087 434.32 388.9C431.624 385.713 428.265 383.152 424.477 381.396C420.69 379.639 416.565 378.73 412.39 378.73Z" fill="white"/>
<path d="M855.72 707.12C855.65 706.81 855.58 706.51 855.48 706.2C852.248 694.645 845.597 684.337 836.4 676.63C836.29 676.57 836.16 676.46 836.05 676.39C835.2 675.78 834.31 675.19 833.42 674.61C832.22 673.86 830.98 673.14 829.75 672.42C829.645 672.348 829.531 672.291 829.41 672.25C824.649 670.032 820.118 667.353 815.88 664.25L815.67 664.11C809.95 660.31 804.78 655.89 801.21 649.76C801.129 649.631 801.062 649.494 801.01 649.35C800.94 649.35 800.94 649.24 800.91 649.21C797.62 644.21 795.63 638.73 796.04 633.04V632.87C795.04 623.59 796.04 613.82 795.66 604.4C795.66 603.82 795.66 603.24 795.56 602.65C795.46 602.06 795.46 601.35 795.42 600.77C795.456 600.579 795.456 600.382 795.42 600.19C795.284 598.328 795.043 596.476 794.7 594.64C791.45 577.03 780.14 561.34 766.3 550.28C765.987 550.013 765.652 549.773 765.3 549.56C749.78 538.18 732.79 533.76 721.66 532.05C721.557 532.036 721.453 532.036 721.35 532.05C717.17 531.74 713.2 531.81 709.53 530.98C709.46 530.98 709.39 530.98 709.36 530.98C705.253 530.184 701.588 527.889 699.08 524.54C698.131 523.323 697.285 522.028 696.55 520.67C696.447 520.594 696.373 520.484 696.34 520.36C693.458 515.875 691.556 510.832 690.76 505.56C690.66 505.05 690.52 504.56 690.45 504.05C688.05 492.65 687.98 480.25 687.92 470C686.99 454.21 679.97 433.86 667.77 419.37C667.77 419.37 667.77 419.3 667.7 419.3C664.162 415.762 660.179 412.7 655.85 410.19C644.902 404.06 632.335 401.442 619.85 402.69C619.85 402.69 619.85 402.69 619.78 402.69C619.76 402.684 619.739 402.684 619.72 402.69C612.04 403.339 604.599 405.679 597.93 409.54C595.478 410.949 593.159 412.575 591 414.4C578 425.56 570.55 443 568.49 460.2C568.32 461.53 568.22 462.84 568.15 464.2C568.115 464.359 568.115 464.522 568.15 464.68C566.528 466.89 565.567 469.516 565.38 472.25C565.196 475.284 565.927 478.303 567.478 480.917C569.029 483.531 571.329 485.619 574.08 486.91V487.18C574.08 488.07 574.08 489 574.08 489.89C574.28 495.975 575.606 501.969 577.99 507.57C581.99 517.02 589.12 527.81 601.21 529.52C603.359 529.827 605.521 530.024 607.69 530.11L613.41 554.57L618.31 575.77C639.68 563.61 666.13 559.94 688.7 567.04H688.77C699.336 570.241 708.934 576.034 716.69 583.89C741.77 604.34 770 701.67 771.69 707.7C771.697 707.772 771.721 707.841 771.76 707.9C771.76 707.9 771.76 707.9 771.76 707.97C771.76 708.04 771.76 708.07 771.83 708.14C771.902 708.425 772.006 708.7 772.14 708.96C772.24 709.27 772.35 709.58 772.48 709.89L773.2 711.74C778.2 724.65 794.34 766.74 797.93 777.13C802.22 789.4 805.57 790.36 805.57 790.36C805.753 790.318 805.929 790.248 806.09 790.15L806.77 789.88C817.6 785.493 827.645 779.373 836.51 771.76C836.58 771.76 836.58 771.76 836.58 771.69C844.787 763.347 850.74 753.055 853.88 741.78C857.343 730.556 857.976 718.649 855.72 707.12Z" fill="white"/>
<path d="M579.41 456.231C579.41 456.231 582.02 412.511 622.85 402.231C663.68 391.951 688.02 439.411 689.85 469.841C691.68 500.271 689.85 521.281 711.31 530.841C711.31 530.841 773.31 530.091 796.13 587.071C796.13 587.071 799.22 614.971 797.96 632.931C796.7 650.891 819.11 666.641 831.32 672.191C843.53 677.741 864.76 700.291 858.99 737.121C853.22 773.951 807.49 790.331 807.49 790.331C807.49 790.331 804.12 789.331 799.84 777.081C795.56 764.831 773.65 708.001 773.65 708.001C773.65 708.001 744.46 605.001 718.55 583.921C704.29 572.301 689 567.041 678.93 560.921C668.32 554.471 663.22 547.361 659.68 542.801C652.77 533.911 640.52 520.481 649.38 488.801C658.24 457.121 649.31 473.091 640.97 468.631C640.97 468.631 630.63 452.631 615.03 463.951C599.43 475.271 603.23 447.711 603.23 447.711L596.38 456.931C596.38 456.931 585.64 459.061 579.41 456.231Z" fill="#5B5B5B"/>
<path d="M477.42 515.811C477.86 515.191 478.42 514.541 478.89 513.891C479.36 513.241 479.95 512.621 480.5 512.001C482.289 510.074 484.224 508.289 486.29 506.661C486.94 506.141 487.59 505.661 488.24 505.191L477.42 515.811Z" fill="#5B5B5B"/>
<path d="M168.94 956.999H137C132.1 956.999 127.07 956.999 122.55 954.999C118.03 952.999 114.55 949.419 111.24 945.859C88.16 921.499 73.09 903.759 50 879.329L57.74 871.329C61.982 867.755 67.3928 865.871 72.937 866.037C78.4812 866.204 83.7695 868.408 87.79 872.229L120.5 904.359L168.94 956.999Z" fill="#5B5B5B"/>
<path d="M620.37 827.55C604.483 830.984 588.52 834.25 572.48 837.35C553.567 841.017 534.647 844.604 515.72 848.11L498.07 826.52L469.07 856.6C417.03 865.934 364.89 874.68 312.65 882.84L312.89 882.6L449.46 744.79C458.793 735.364 470.55 728.699 483.431 725.532C496.313 722.364 509.819 722.817 522.46 726.84L576.25 744C585.139 774.554 600.15 802.98 620.37 827.55Z" fill="white"/>
<path d="M580.44 637.27C573.69 660.64 572.11 685.51 574.89 710.34C575.557 716.707 576.557 723.04 577.89 729.34C579.12 735.64 580.7 741.84 582.48 748.04C590.556 775.764 603.486 801.834 620.67 825.04C619.99 825.18 619.34 825.35 618.75 825.48C599.36 801.383 584.921 773.693 576.26 744C574.54 738 573.04 732 571.84 726C570.64 720 569.64 713.81 568.96 707.68C566.29 683.73 567.83 659.75 574.34 637.24C579.124 620.656 587.735 605.428 599.48 592.78C602.41 589.6 605.594 586.664 609 584L609.17 583.87L609.72 583.46L609.96 583.25C613.174 580.808 616.552 578.589 620.07 576.61C627.757 572.232 636.026 568.966 644.63 566.91C638.821 568.877 633.213 571.392 627.88 574.42C624.228 576.482 620.723 578.794 617.39 581.34L617.15 581.54L616.6 581.95H616.54L616.37 582.08C612.839 584.834 609.538 587.87 606.5 591.16C594.335 604.286 585.41 620.077 580.44 637.27Z" fill="#2E2E2E"/>
<path d="M689.61 750.321C689.61 750.321 717.43 785.671 740.61 827.881C712.93 816.681 656.81 820.881 634.31 823.221C631.322 823.365 628.346 823.699 625.4 824.221C625.215 824.224 625.03 824.248 624.85 824.291C624.784 824.297 624.717 824.297 624.65 824.291C623.21 824.571 621.87 824.811 620.65 825.081C603.466 801.875 590.536 775.804 582.46 748.081C580.68 741.881 579.1 735.681 577.87 729.381C576.64 723.081 575.57 716.731 574.87 710.381C572.09 685.551 573.67 660.681 580.42 637.311C585.402 620.114 594.341 604.323 606.52 591.201C609.558 587.911 612.859 584.874 616.39 582.121L616.56 581.991H616.62L617.17 581.581L617.41 581.381C620.743 578.835 624.248 576.523 627.9 574.461C633.233 571.432 638.841 568.918 644.65 566.951C659.93 563.251 675.99 563.361 690.48 567.951H690.55C699.08 572.171 709.02 577.101 718.47 584.811C731.8 598.441 738.85 616.811 745.57 634.691C754.85 659.357 764.157 683.997 773.49 708.611C773.495 708.686 773.519 708.758 773.56 708.821C773.56 708.821 773.56 708.821 773.56 708.891C773.56 708.961 773.56 708.991 773.63 709.061C773.703 709.345 773.807 709.62 773.94 709.881C774.036 710.197 774.149 710.508 774.28 710.811C712.56 697.911 689.61 750.321 689.61 750.321Z" fill="#2E2E2E"/>
<path d="M609 584.001C605.592 586.652 602.405 589.575 599.47 592.741C587.725 605.389 579.114 620.617 574.33 637.201C567.82 659.711 566.28 683.691 568.95 707.641C568.16 708.081 567.34 708.461 566.52 708.871C549.32 717.261 530.31 723.431 510.99 723.291C500.394 723.175 489.949 720.774 480.365 716.252C470.782 711.731 462.287 705.195 455.46 697.091C444.67 684.311 437.85 668.861 432.81 653.091C427.5 636.441 423.46 619.721 416.88 603.521C412.67 593.201 408.46 581.621 399.38 574.361C394.72 570.661 388.89 569.361 384.27 565.661C379.363 561.717 375.808 556.341 374.1 550.281C373.345 547.671 372.863 544.99 372.66 542.281C371.8 531.591 374.66 520.421 378.17 510.521L360.26 498.461C355.39 495.171 353.26 488.051 356.14 482.941C356.965 481.481 358.096 480.217 359.457 479.237C360.817 478.256 362.374 477.582 364.02 477.261C365.549 476.97 367.121 476.993 368.64 477.328C370.16 477.663 371.596 478.304 372.86 479.211L409.86 505.791C409.86 505.791 412.71 496.581 421.44 499.421C429.6 502.091 458.65 513.501 457.65 548.721C457.511 554.088 458.928 559.381 461.73 563.961L496.47 621.441C498.932 625.508 502.218 629.013 506.119 631.73C510.019 634.448 514.445 636.317 519.112 637.218C523.78 638.119 528.584 638.031 533.215 636.96C537.847 635.889 542.202 633.859 546 631.001L606.81 585.651L609 584.001Z" fill="white"/>
<path d="M620.38 600.139L579.38 701.539L568.83 706.469L551.25 714.659C565.33 657.069 546.01 630.219 546.01 630.219L596.92 592.219C597.67 592.499 598.42 592.739 599.21 593.009C609.69 596.469 620.38 600.139 620.38 600.139Z" fill="#2E2E2E"/>
<path d="M641.85 821.809C624 826.229 638.39 822.879 620.44 826.749" stroke="black" stroke-width="5.14" stroke-miterlimit="10"/>
<path d="M815.68 819.421C813.76 814.351 811.84 809.281 809.96 804.211L809.75 803.691C788.417 747.024 767.053 690.388 745.66 633.781C738.94 615.931 731.89 597.531 718.56 583.901C690.78 555.541 641.76 558.241 610.07 582.431L609.83 582.631L609.62 582.771C606.014 585.565 602.646 588.652 599.55 592.001C587.804 604.652 579.193 619.884 574.41 636.471C566.22 664.731 565.88 695.321 571.91 725.231C573.1 731.291 574.61 737.281 576.32 743.231C585.215 773.784 600.229 802.21 620.45 826.781C604.55 830.201 588.587 833.468 572.56 836.581C486.233 853.314 399.62 868.454 312.72 882.001C260.44 890.191 205.05 899.001 152.63 906.001L132.63 908.471C130.44 908.746 128.215 908.53 126.119 907.838C124.022 907.147 122.106 905.996 120.51 904.471L87.79 872.281C83.7695 868.46 78.4812 866.255 72.937 866.089C67.3928 865.923 61.982 867.807 57.74 871.381L50 879.381C73.09 903.811 88.16 921.551 111.25 945.981C114.61 949.541 118.07 953.171 122.56 955.121C127.05 957.071 132.11 957.121 137.01 957.121H165.65C189.87 957.121 214.103 957.121 238.35 957.121L729.28 957.221C749.39 957.221 770.18 957.091 788.62 949.041C797.516 945.108 805.522 939.41 812.15 932.291" stroke="black" stroke-width="5.14" stroke-miterlimit="10"/>
<path d="M650 691.441L821.11 945.561C823.496 949.103 826.716 952.004 830.485 954.011C834.255 956.018 838.459 957.069 842.73 957.071H917.24C920.157 957.071 922.955 955.912 925.018 953.85C927.081 951.787 928.24 948.989 928.24 946.071C928.24 943.154 927.081 940.356 925.018 938.293C922.955 936.23 920.157 935.071 917.24 935.071H882.1C876.424 935.072 870.878 933.377 866.172 930.204C861.467 927.031 857.816 922.524 855.69 917.261L808 799.421" stroke="black" stroke-width="5.14" stroke-miterlimit="10"/>
<path d="M312.71 882.001L312.95 881.761L449.53 744.001C458.863 734.574 470.617 727.905 483.497 724.729C496.377 721.553 509.884 721.993 522.53 726.001L576.31 743.171" stroke="black" stroke-width="5.14" stroke-miterlimit="10"/>
<path d="M816.15 819.592L815.67 819.422" stroke="black" stroke-width="5.14" stroke-miterlimit="10"/>
<path d="M515.99 847.539L498.15 825.719L468.84 856.059" stroke="black" stroke-width="5.14" stroke-miterlimit="10"/>
<path d="M721.06 587.12V587.09" stroke="black" stroke-width="5.14" stroke-miterlimit="10"/>
<path d="M839.4 937.302C843.888 937.135 848.382 937.278 852.85 937.732C856.5 938.102 860.31 938.322 863.76 940.022C866.63 941.442 869.62 944.852 869.47 949.022C869.2 957.162 860.67 957.102 856 957.102" stroke="black" stroke-width="5.14" stroke-miterlimit="10"/>
<path d="M841.19 957.07H855.99H856.2H901.51" stroke="black" stroke-width="5.14" stroke-miterlimit="10"/>
<path d="M569 706.85C569 706.85 568.9 706.85 568.86 706.92C568.11 707.33 567.35 707.7 566.57 708.08C561.58 710.536 556.467 712.732 551.25 714.66C538.37 719.49 524.77 722.66 511.04 722.5C500.443 722.382 489.996 719.981 480.412 715.459C470.827 710.938 462.33 704.403 455.5 696.3C444.71 683.52 437.9 668.07 432.86 652.3C427.55 635.65 423.51 618.93 416.93 602.73C412.72 592.42 408.5 580.84 399.43 573.57C394.77 569.87 388.94 568.57 384.32 564.87C379.413 560.924 375.855 555.549 374.14 549.49C373.394 546.879 372.915 544.198 372.71 541.49C371.85 530.8 374.71 519.64 378.22 509.74L360.3 497.68C355.44 494.39 353.3 487.27 356.19 482.16C357.015 480.7 358.147 479.436 359.507 478.455C360.867 477.475 362.424 476.801 364.07 476.48C365.599 476.189 367.171 476.212 368.69 476.547C370.21 476.882 371.646 477.523 372.91 478.43L409.91 505.01C409.91 505.01 412.76 495.8 421.49 498.64C429.64 501.31 458.69 512.72 457.7 547.94C457.562 553.307 458.979 558.6 461.78 563.18L496.51 620.67C498.973 624.73 502.259 628.228 506.156 630.941C510.053 633.654 514.475 635.52 519.137 636.42C523.8 637.319 528.599 637.232 533.225 636.165C537.852 635.097 542.204 633.072 546 630.22L596.91 592.22L606.81 584.86L609.21 583.08L609.76 582.67L610 582.47" stroke="black" stroke-width="5.14" stroke-miterlimit="10"/>
<path d="M410 504.922C410 504.922 404.23 518.972 424.13 528.332" stroke="black" stroke-width="5.14" stroke-miterlimit="10"/>
<path d="M375.05 520.309C375.05 520.309 373.05 537.309 395.64 543.659C403.64 545.909 410.12 536.659 405.25 529.939L405.01 529.629" stroke="black" stroke-width="5.14" stroke-miterlimit="10"/>
<path d="M372.66 541.301C372.66 541.301 380.2 556.071 392.66 554.431C403.66 552.981 399.66 542.231 399.66 542.231" stroke="black" stroke-width="5.14" stroke-miterlimit="10"/>
<path d="M378.24 509.648L391.37 518.498" stroke="black" stroke-width="5.14" stroke-miterlimit="10"/>
<path d="M805 791.191C830.3 783.311 848.19 767.521 855.81 741.791C863.11 717.131 858.36 689.091 835.3 674.631C823.81 667.501 810.24 661.931 803.11 649.721C793.38 633.021 799.94 612.651 796.58 594.581C793.09 575.821 780.47 559.201 765.34 548.061C754.125 539.847 741.086 534.473 727.34 532.401C717.19 530.871 707.95 533.401 701.01 524.401C690.01 510.191 689.93 486.971 689.84 469.861C689.78 456.721 686.68 443.641 679.92 432.371L679.77 432.121C674.406 423.036 666.84 415.449 657.77 410.061C640.77 400.221 616.92 399.311 599.77 409.431C597.322 410.893 595.007 412.566 592.85 414.431C577 428.001 569.42 450.931 569.79 471.351" stroke="black" stroke-width="5.14" stroke-miterlimit="10"/>
<path d="M602 446.391C601.12 452.391 597.46 457.951 591 459.621C583.66 461.481 579.77 468.621 577.71 475.801C574.777 486.329 575.536 497.543 579.86 507.581C583.86 517.021 591.01 527.821 603.09 529.581C625.2 532.731 636.19 523.411 636.19 523.411" stroke="black" stroke-width="5.14" stroke-miterlimit="10"/>
<path d="M620.42 478.522C622.519 478.522 624.22 476.821 624.22 474.722C624.22 472.623 622.519 470.922 620.42 470.922C618.321 470.922 616.62 472.623 616.62 474.722C616.62 476.821 618.321 478.522 620.42 478.522Z" fill="black"/>
<path d="M587.04 476.01C589.139 476.01 590.84 474.309 590.84 472.21C590.84 470.111 589.139 468.41 587.04 468.41C584.942 468.41 583.24 470.111 583.24 472.21C583.24 474.309 584.942 476.01 587.04 476.01Z" fill="black"/>
<path d="M602 446.391C601.151 450.002 601.278 453.775 602.37 457.321C602.541 457.899 602.762 458.461 603.03 459.001C605.66 465.201 611.79 470.131 622.65 469.521C646.29 468.211 654.72 466.671 652.8 477.571C652 481.401 650.852 485.149 649.37 488.771C646.77 495.651 644.96 507.511 647.63 520.391V520.461C650.71 535.531 668.5 559.321 693.12 567.881" stroke="black" stroke-width="5.14" stroke-miterlimit="10"/>
<path d="M604.08 475.641C604.08 475.641 600.08 490.221 600.49 492.371C600.9 494.521 606 492.861 606 492.861" stroke="black" stroke-width="5.14" stroke-miterlimit="10"/>
<path d="M606.83 506.21C614.46 510.33 623.3 507.73 626.76 500.84" stroke="black" stroke-width="5.14" stroke-miterlimit="10"/>
<path d="M639.112 489.848C645.675 482.896 645.223 471.812 638.102 465.09C630.982 458.368 619.889 458.555 613.327 465.506C606.764 472.458 607.217 483.543 614.337 490.265C621.458 496.986 632.55 496.8 639.112 489.848Z" stroke="black" stroke-width="5.14" stroke-miterlimit="10"/>
<path d="M594.834 485.789C601.397 478.838 600.944 467.753 593.824 461.031C586.703 454.309 575.611 454.496 569.049 461.448C562.486 468.4 562.938 479.484 570.059 486.206C577.179 492.928 588.272 492.741 594.834 485.789Z" stroke="black" stroke-width="5.14" stroke-miterlimit="10"/>
<path d="M581.57 461.449C581.94 461.449 582.32 461.449 582.7 461.499C585.948 461.807 588.949 463.363 591.072 465.841C593.195 468.318 594.273 471.522 594.08 474.779C593.903 477.772 592.583 480.583 590.392 482.63C588.202 484.678 585.308 485.805 582.31 485.779C581.929 485.779 581.549 485.759 581.17 485.719C577.923 485.414 574.922 483.859 572.798 481.384C570.675 478.908 569.597 475.705 569.79 472.449C569.965 469.453 571.285 466.64 573.479 464.592C575.672 462.544 578.569 461.418 581.57 461.449ZM581.57 458.879C577.924 458.861 574.408 460.236 571.741 462.723C569.074 465.209 567.457 468.62 567.22 472.259C566.985 476.185 568.285 480.048 570.845 483.033C573.405 486.019 577.024 487.893 580.94 488.259C581.395 488.307 581.852 488.331 582.31 488.329C585.947 488.345 589.453 486.976 592.116 484.5C594.78 482.024 596.401 478.627 596.65 474.999C596.885 471.073 595.585 467.21 593.025 464.225C590.465 461.239 586.846 459.366 582.93 458.999C582.478 458.951 582.024 458.928 581.57 458.929V458.879Z" fill="white"/>
<path d="M608.72 476.061L599.43 475.211" stroke="black" stroke-width="5.14" stroke-miterlimit="10"/>
<path d="M625.84 465.14C626.227 465.141 626.615 465.161 627 465.2C630.342 465.523 633.43 467.126 635.616 469.675C637.803 472.223 638.918 475.518 638.73 478.87C638.543 481.954 637.179 484.848 634.92 486.954C632.661 489.061 629.679 490.219 626.59 490.19C626.21 490.19 625.81 490.19 625.43 490.14C622.086 489.818 618.997 488.213 616.81 485.663C614.623 483.112 613.509 479.815 613.7 476.46C613.887 473.377 615.251 470.483 617.51 468.377C619.769 466.27 622.751 465.112 625.84 465.14ZM625.84 462.57C622.104 462.552 618.502 463.961 615.77 466.509C613.038 469.057 611.382 472.552 611.14 476.28C610.891 480.305 612.219 484.268 614.841 487.331C617.464 490.394 621.175 492.316 625.19 492.69C625.655 492.738 626.122 492.762 626.59 492.76C630.326 492.779 633.927 491.37 636.66 488.822C639.392 486.273 641.048 482.778 641.29 479.05C641.539 475.034 640.219 471.077 637.607 468.016C634.995 464.954 631.296 463.027 627.29 462.64C626.825 462.592 626.357 462.569 625.89 462.57H625.84Z" fill="white"/>
<path d="M593.002 484.06C598.632 478.096 598.244 468.587 592.135 462.82C586.027 457.054 576.511 457.214 570.881 463.178C565.251 469.142 565.639 478.651 571.748 484.418C577.856 490.184 587.372 490.024 593.002 484.06Z" fill="#5B5B5B"/>
<path d="M637.343 488.156C643 482.164 642.61 472.61 636.474 466.817C630.337 461.025 620.777 461.186 615.121 467.178C609.464 473.17 609.854 482.723 615.99 488.516C622.127 494.309 631.687 494.148 637.343 488.156Z" fill="#5B5B5B"/>
<path d="M620.43 576.961L615.25 554.591L609.63 530.48" stroke="black" stroke-width="5.14" stroke-miterlimit="10"/>
<path d="M950 957.031H62.7402" stroke="black" stroke-width="5.14" stroke-miterlimit="10"/>
</svg>
