<svg width="1001" height="1001" viewBox="0 0 1001 1001" fill="none" xmlns="http://www.w3.org/2000/svg">
<path d="M736 528.5L738 505H825.5L829.5 508.5L824 528.5C810.667 529 783.8 530 783 530C782.2 530 751.333 529 736 528.5Z" fill="#D9D9D9"/>
<path d="M193.5 797.5L202.5 796.5L262 795.5L369.5 796.5L378 797.5L384.5 801L388 807.5L386 819L380 822.5L369.5 824L357 897.5L350 938L348 943.5L344 949L317.5 951H251.5C249.9 951 236.167 949 229.5 948L222.5 941L205.5 833L206.5 824.5H195.5L187.5 816V804.5L193.5 797.5Z" fill="#D9D9D9"/>
<path d="M265.5 512.5L240.5 529L284.5 530H290V533L288.5 534V540L290 544L294 545.5L301 543V535.5L305.5 530H357H364L363 532L360 535.5V543L363 545.5H373.5V537L378 529L389.5 530H477L480 525.5L487.5 504H404.5H376.5L366.5 503L342 505.5L305.5 504L297 503L280 504L265.5 512.5Z" fill="#D9D9D9"/>
<path d="M493.5 410L502.5 372L507 368L523 374.5V394L521.5 426L515.5 447.5L507 469.5L488 505H443.5L428 505.5L425 522.5L418 527.5L409.5 525L407.5 516L406.5 505H393V501L397.5 487.5L413 477.5L428.5 475.5L451 472L468 458L482.5 438L493.5 410Z" fill="white"/>
<path d="M489 502.5C489 501.3 501 481 507 471L515 472.5L610 513L704.5 579L701 583L661.5 652L628.5 709.5L613 735.5L615 740.5L690.5 950H579L580.5 941L586 930.5L596 923.5L624 919L626.5 916.5L573 844L561 828L559 830.5L514.5 907L490 950H389.5L391 942.5L398 929.5L415.5 920L448.5 918L460 878.5L474.5 822.5L499 735.5L480 704.5L461.5 659.5L455.5 636L456.5 600L467.5 558C474.667 540 489 503.7 489 502.5Z" fill="white"/>
<path d="M442.5 531H394.5L396 531.5L397 534L400.5 536C401.833 536.833 404.6 538.7 405 539.5C405.4 540.3 407.833 540.5 409 540.5L413.5 539.5L415 537H417.5C418.333 537.333 420.2 538.1 421 538.5C421.8 538.9 423 538.667 423.5 538.5L425.5 536L430 534L432 535L435.5 537L440 535L442.5 531Z" fill="white"/>
<path d="M705 329.5L710 281.5L689.5 276.5L606 280L592.5 311L586 321.5L579.5 323H567.5L513.5 301.5L463 281L412 262.5L420.5 282.5L445 313.5L474.5 346L519.5 381.5L558 405L590.5 416H607L628 414L653.5 402L679 381.5L693.5 360.5L705 329.5Z" fill="white"/>
<path d="M574.5 127L577 100.5H579.5H589.5L596.5 94.5L598.5 97.5L604.5 100.5H611.5L617.5 93.5L623.5 108.5L621 120.5H626.5L633 125.5L635 135L629.5 143L623.5 149L626.5 151.5L633 155L648 153.5L662 178L670.5 193L672 204.5L662 217L646.5 224.5L626.5 227L631 214.5L606 204.5L584.5 196L598.5 189.5L606 186.5L604.5 174.5L601 173.5L591.5 174.5C589 172.667 583.8 168.9 583 168.5C582.2 168.1 577.667 157 575.5 151.5L574.5 143H567.5L566 139L574.5 127Z" fill="white" stroke="black"/>
<path d="M685.26 219.687C704.26 209.117 733.87 230.687 746.96 242.797C762.26 256.877 774.6 274.797 784.09 293.247C827.18 377.007 849.83 476.657 814.42 567.417C802.495 598.143 783.89 625.834 759.95 648.487C746.49 661.157 718.79 673.107 714.75 692.487C713.884 697.299 714.227 702.251 715.75 706.897C721.1 724.657 737.25 736.967 749.59 749.897C808.84 812.107 766 908.547 702.65 950.107" stroke="#CCDDE2" stroke-width="4.72" stroke-miterlimit="10"/>
<path d="M216 550C234.914 529.741 259.135 516 283.496 503.346C309.875 489.646 335.832 475.856 359.79 458.111C374.375 447.331 388.168 435.518 401.06 422.764" stroke="#CCDDE2" stroke-width="4.72" stroke-miterlimit="10"/>
<path d="M189.306 798.266C166.063 735.6 161.691 664.384 189.429 603.196" stroke="#CCDDE2" stroke-width="4.72" stroke-miterlimit="10"/>
<path d="M500.36 163.868V98.4082C500.36 93.8995 498.569 89.5755 495.381 86.3874C492.193 83.1992 487.869 81.4082 483.36 81.4082H266.59C262.081 81.4082 257.757 83.1992 254.569 86.3874C251.381 89.5755 249.59 93.8995 249.59 98.4082V406.228C249.609 410.724 251.408 415.03 254.594 418.203C257.78 421.376 262.094 423.158 266.59 423.158H483.39C485.495 423.174 487.582 422.773 489.53 421.978" stroke="black" stroke-width="4.72" stroke-linecap="round" stroke-linejoin="round"/>
<path d="M476.48 91.8066H273.51C264.524 91.8066 257.24 99.091 257.24 108.076V396.546C257.24 405.532 264.524 412.816 273.51 412.816H476.48C485.466 412.816 492.75 405.532 492.75 396.546V108.076C492.75 99.091 485.466 91.8066 476.48 91.8066Z" fill="#348CB1"/>
<path d="M473.32 116.646H279.24C274.744 116.646 271.1 120.29 271.1 124.786V168.606C271.1 173.102 274.744 176.746 279.24 176.746H473.32C477.816 176.746 481.46 173.102 481.46 168.606V124.786C481.46 120.29 477.816 116.646 473.32 116.646Z" fill="#348CB1"/>
<path d="M374.99 141.969C378.425 141.969 381.21 139.184 381.21 135.749C381.21 132.314 378.425 129.529 374.99 129.529C371.555 129.529 368.77 132.314 368.77 135.749C368.77 139.184 371.555 141.969 374.99 141.969Z" fill="#D7E8F0"/>
<path d="M357.62 163.868C357.62 159.261 359.45 154.843 362.707 151.585C365.965 148.328 370.383 146.498 374.99 146.498C379.597 146.498 384.015 148.328 387.272 151.585C390.53 154.843 392.36 159.261 392.36 163.868H357.62Z" fill="#D7E8F0"/>
<path d="M376.26 241.158C369.633 241.154 363.153 243.116 357.641 246.795C352.129 250.475 347.832 255.706 345.294 261.829C342.756 267.951 342.091 274.688 343.383 281.188C344.675 287.689 347.866 293.66 352.552 298.346C357.238 303.032 363.209 306.223 369.709 307.515C376.21 308.807 382.947 308.142 389.069 305.604C395.191 303.066 400.423 298.769 404.103 293.257C407.782 287.745 409.744 281.265 409.74 274.638C409.737 265.759 406.209 257.245 399.931 250.967C393.653 244.689 385.139 241.16 376.26 241.158ZM376.26 300.038C374.963 300.038 373.719 299.523 372.802 298.606C371.885 297.688 371.37 296.445 371.37 295.148C371.37 293.851 371.885 292.607 372.802 291.69C373.719 290.773 374.963 290.258 376.26 290.258C377.557 290.258 378.801 290.773 379.718 291.69C380.635 292.607 381.15 293.851 381.15 295.148C381.15 296.445 380.635 297.688 379.718 298.606C378.801 299.523 377.557 300.038 376.26 300.038ZM382.46 262.388C381.41 269.648 380.52 277.298 378.39 284.388C377.87 286.068 374.68 286.068 374.16 284.388C372.63 279.078 371.454 273.673 370.64 268.208C369.99 264.208 367.64 257.808 369.89 253.928C371.83 250.488 377.34 250.058 380.52 251.858C384.46 254.108 382.95 258.778 382.46 262.388Z" fill="#D7E8F0"/>
<path d="M376.26 300.035C378.961 300.035 381.15 297.846 381.15 295.145C381.15 292.445 378.961 290.255 376.26 290.255C373.559 290.255 371.37 292.445 371.37 295.145C371.37 297.846 373.559 300.035 376.26 300.035Z" fill="white"/>
<path d="M382.46 262.387C381.41 269.647 380.52 277.297 378.39 284.387C377.87 286.067 374.68 286.067 374.16 284.387C372.63 279.078 371.454 273.673 370.64 268.207C369.99 264.207 367.64 257.807 369.89 253.927C371.83 250.487 377.34 250.057 380.52 251.857C384.46 254.107 382.95 258.777 382.46 262.387Z" fill="white"/>
<path d="M292.14 203.587H455.7" stroke="white" stroke-width="4.72" stroke-miterlimit="10"/>
<path d="M292.14 219.677H455.7" stroke="white" stroke-width="4.72" stroke-miterlimit="10"/>
<path d="M292.14 323.357H455.7" stroke="white" stroke-width="4.72" stroke-miterlimit="10"/>
<path d="M495.52 364.849C496.14 365.329 497.22 163.149 497.22 163.149L435.69 139.369C435.69 139.369 389.95 251.479 392.72 252.609L405.07 257.609C405.07 257.609 408.12 255.199 415.19 272.609C422.26 290.019 473.22 347.699 495.52 364.849Z" fill="white"/>
<path d="M330.13 338.587H417.71" stroke="white" stroke-width="4.72" stroke-miterlimit="10"/>
<path d="M741.73 455.817C740.93 464.537 730.17 564.557 740.6 584.087C744.38 591.157 706.86 584.387 704.6 583.867C670.6 575.867 638.76 561.117 608.96 543.177C579.16 525.237 552.83 501.627 521.76 485.717C516.02 482.777 503.31 476.337 507.07 467.907C513.47 453.547 521.33 433.727 521.95 416.197L521.76 393.197C521.76 393.197 517.22 378.757 532.03 391.407C546.84 404.057 614.61 437.407 658.48 398.767C702.35 360.127 704.95 329.567 704.95 329.567C704.95 329.567 676.86 260.827 596.89 302.877L625.14 229.877C625.14 229.877 621.27 224.967 633.51 225.877C645.75 226.787 668.45 220.737 671.26 198.307C671.26 198.307 671.48 190.987 684.43 204.827C697.38 218.667 758.58 272.717 741.73 455.817Z" fill="#2E2E2E"/>
<path d="M584.51 196.876C591.372 191.844 599.056 188.044 607.22 185.646" stroke="black" stroke-width="4.72" stroke-miterlimit="10"/>
<path d="M554.11 538.177L499.11 737.017L449.11 917.837L417.27 920.837C409.97 921.51 403.185 924.884 398.242 930.298C393.3 935.712 390.557 942.777 390.55 950.107H489.02L560.34 827.188L613.39 735.737L696.33 592.737C698.73 588.567 701.06 584.398 703.33 580.138C703.368 580.089 703.389 580.029 703.39 579.967" stroke="black" stroke-width="4.72" stroke-miterlimit="10"/>
<path d="M739.69 471.109C740.44 466.249 741.1 461.389 741.69 456.499C741.69 456.269 741.69 456.069 741.75 455.839C745.116 426.225 745.832 396.37 743.89 366.629C743.903 366.543 743.903 366.455 743.89 366.369C741.69 333.999 735.75 299.999 723.89 266.849C720.446 257.288 716.187 248.04 711.16 239.209C710.79 238.479 710.37 237.759 709.91 237.039C708.33 234.279 706.63 231.589 704.91 228.929C702.58 225.419 700.11 222.009 697.52 218.759C693.658 213.824 689.375 209.233 684.72 205.039C684.69 205.028 684.662 205.011 684.64 204.989C684.617 204.966 684.6 204.939 684.59 204.909C681.131 201.846 677.455 199.039 673.59 196.509C672.87 196.019 672.15 195.559 671.42 195.099C671.307 195.012 671.186 194.935 671.06 194.869" stroke="black" stroke-width="4.72" stroke-miterlimit="10"/>
<path d="M613.39 735.736L690.73 950.106H579.13C579.13 943.141 581.658 936.414 586.245 931.173C590.833 925.933 597.167 922.537 604.07 921.616L628.36 918.366C628.36 918.366 595.7 875.366 560.36 827.176" stroke="black" stroke-width="4.72" stroke-miterlimit="10"/>
<path d="M627.11 224.806L593.59 311.366C592.578 313.979 591.056 316.365 589.113 318.384C587.17 320.404 584.844 322.016 582.272 323.128C579.7 324.241 576.932 324.83 574.13 324.862C571.328 324.894 568.547 324.369 565.95 323.316L486.55 291.176C486.511 291.068 486.477 290.958 486.45 290.846C485.45 286.846 475.19 248.506 462.75 248.506C453.2 248.506 457.75 267.416 461.75 278.116C462.21 279.266 462.64 280.346 463.03 281.266L462.41 281.006L400.24 255.666L439.45 152.306L516 181.876L627.11 224.806Z" fill="#D7E8F0"/>
<path d="M463.01 281.269C458.84 271.719 452.2 248.509 462.76 248.509C475.2 248.509 485.45 286.879 486.46 290.849L486.56 291.179L565.95 323.329C568.551 324.38 571.335 324.903 574.141 324.868C576.946 324.832 579.716 324.239 582.29 323.122C584.863 322.005 587.189 320.387 589.13 318.362C591.072 316.338 592.592 313.947 593.6 311.329L630.95 214.829L512.23 168.939L435.69 139.369L392.69 252.609L463.01 281.269Z" stroke="black" stroke-width="4.72" stroke-miterlimit="10"/>
<path d="M709.1 278.837C711.48 320.337 702.21 373.427 649.3 404.677C571.03 450.957 467.44 346.107 429.09 295.227C422.753 286.871 417.401 277.811 413.14 268.227C411.848 265.438 410.765 262.557 409.9 259.607" stroke="black" stroke-width="4.72" stroke-miterlimit="10"/>
<path d="M521.07 384.236C521.07 384.236 527.07 427.946 508.57 465.106L508.65 465.006C508.65 465.006 508.65 465.076 508.59 465.106C480.19 518.376 439.53 603.356 462.21 665.106C469.92 686.106 483.21 711.106 499.1 737.026" stroke="black" stroke-width="4.72" stroke-miterlimit="10"/>
<path d="M658.78 130.938L658.84 131.218C659.321 137.073 657.457 142.879 653.658 147.359C649.858 151.839 644.434 154.627 638.58 155.108C634.832 155.433 631.065 154.775 627.65 153.198C626.672 152.783 625.732 152.285 624.84 151.708C624.475 151.454 624.177 151.115 623.971 150.721C623.765 150.326 623.657 149.888 623.657 149.443C623.657 148.998 623.765 148.56 623.971 148.166C624.177 147.771 624.475 147.432 624.84 147.178C629.14 144.078 633.07 139.758 634.19 134.698C634.526 133.142 634.554 131.535 634.27 129.968C633.964 127.971 633.14 126.09 631.88 124.511C630.62 122.932 628.969 121.71 627.09 120.968C626.502 120.794 625.893 120.696 625.28 120.678C623.55 120.538 621.28 120.758 620.83 122.038C623.038 115.833 623.129 109.071 621.09 102.808C619.822 98.9336 617.684 95.4003 614.84 92.4787C614.969 93.6106 614.848 94.7571 614.483 95.8366C614.119 96.9161 613.521 97.902 612.733 98.7241C611.944 99.5463 610.984 100.184 609.92 100.593C608.857 101.001 607.716 101.17 606.58 101.088C597.77 100.788 596.11 92.3885 596.11 92.3885C596.11 92.3885 596.11 92.4887 596.11 92.5487C592.27 102.118 581.11 102.378 573.11 98.1286C570.273 96.673 567.781 94.6272 565.8 92.1286C563.53 82.3186 571.62 72.8387 580.95 71.4787C581.15 65.2387 585.7 58.5586 591.84 58.0486C593.979 57.8658 596.128 58.2602 598.063 59.1906C599.998 60.1211 601.647 61.5535 602.84 63.3386C603.01 63.6086 603.2 63.8986 603.35 64.1986C605.86 60.5586 609.97 56.5686 614.35 56.1986C617.388 55.9854 620.418 56.7114 623.03 58.2784C625.642 59.8454 627.708 62.1775 628.95 64.9586C628.95 64.5286 632.8 62.7686 633.19 62.6086C636.786 61.2416 640.734 61.1099 644.413 62.2342C648.092 63.3585 651.293 65.675 653.51 68.8186C653.733 69.6877 653.88 70.5743 653.95 71.4687C654.17 74.1432 653.759 76.832 652.75 79.3186C654.171 79.7239 655.499 80.4033 656.66 81.3186C659.172 83.1578 660.858 85.914 661.35 88.9886C661.4 89.2986 661.43 89.6085 661.45 89.9185C661.65 92.2616 661.149 94.6113 660.01 96.6685C662.967 97.5133 665.653 99.1155 667.802 101.316C669.95 103.517 671.487 106.241 672.26 109.218C672.504 110.203 672.668 111.207 672.75 112.218C673.091 116.503 671.862 120.765 669.291 124.21C666.721 127.654 662.984 130.046 658.78 130.938Z" fill="#348CB1"/>
<path d="M658.78 130.936L658.84 131.216C659.321 137.071 657.457 142.877 653.658 147.357C649.858 151.837 644.435 154.625 638.58 155.106C634.833 155.431 631.065 154.773 627.65 153.196C631.95 150.096 635.88 145.766 636.99 140.706C637.384 138.825 637.341 136.878 636.864 135.016C636.387 133.154 635.49 131.427 634.24 129.966C633.934 127.97 633.11 126.088 631.85 124.509C630.59 122.93 628.939 121.708 627.06 120.966C626.472 120.792 625.863 120.694 625.25 120.676C625.843 114.422 624.372 108.145 621.06 102.806C619.792 98.9318 617.654 95.3983 614.81 92.4767C614.939 93.6086 614.818 94.7552 614.453 95.8347C614.089 96.9142 613.492 97.9001 612.703 98.7222C611.914 99.5444 610.954 100.182 609.89 100.591C608.827 100.999 607.686 101.169 606.55 101.086C597.74 100.786 596.08 92.3867 596.08 92.3867C596.08 92.3867 596.08 92.4867 596.08 92.5467C592.24 102.116 581.08 102.376 573.08 98.1267C570.243 96.671 567.751 94.6252 565.77 92.1267C563.5 82.3167 571.59 72.8367 580.92 71.4767C581.12 65.2367 585.67 58.5567 591.81 58.0467C593.949 57.8639 596.098 58.2582 598.033 59.1887C599.968 60.1191 601.617 61.5516 602.81 63.3367C602.98 63.6067 603.17 63.8967 603.32 64.1967C605.83 60.5567 609.94 56.5667 614.32 56.1967C617.363 55.9771 620.4 56.7001 623.018 58.2675C625.635 59.8349 627.707 62.1705 628.95 64.9567C628.95 64.5267 632.8 62.7667 633.19 62.6067C636.786 61.2397 640.734 61.1079 644.413 62.2323C648.092 63.3566 651.293 65.6731 653.51 68.8167C653.733 69.6857 653.88 70.5724 653.95 71.4667C654.17 74.1412 653.759 76.8301 652.75 79.3167C654.171 79.722 655.5 80.4014 656.66 81.3167C656.477 82.6905 656.117 84.0348 655.59 85.3167C657.808 85.9662 659.803 87.2195 661.35 88.9367C661.4 89.2467 661.43 89.5567 661.45 89.8667C661.65 92.2098 661.149 94.5594 660.01 96.6167C661.498 97.0412 662.924 97.6599 664.25 98.4567C664.034 99.9187 663.56 101.33 662.85 102.626C666.631 103.69 669.945 105.993 672.26 109.166C672.504 110.151 672.668 111.155 672.75 112.166C673.104 116.459 671.881 120.734 669.309 124.189C666.737 127.644 662.994 130.043 658.78 130.936Z" fill="#348CB1"/>
<path d="M581.07 110.896C581.07 110.896 593.75 111.076 596.66 121.776" stroke="black" stroke-width="4.72" stroke-miterlimit="10"/>
<path d="M577.8 142.959C574.915 143.671 571.92 143.817 568.98 143.389C568.427 143.294 567.906 143.067 567.46 142.727C567.015 142.386 566.658 141.943 566.421 141.435C566.185 140.927 566.074 140.369 566.1 139.809C566.126 139.249 566.287 138.703 566.57 138.219C569.21 133.749 571.93 129.329 574.89 125.079C575.354 124.538 575.64 123.868 575.71 123.159C575.71 123.159 574.49 109.929 577.16 99.7793" stroke="black" stroke-width="4.72" stroke-miterlimit="10"/>
<path d="M587.778 122.156C588.046 120.024 586.793 118.111 584.98 117.883C583.166 117.655 581.478 119.198 581.21 121.329C580.942 123.461 582.195 125.374 584.009 125.602C585.822 125.83 587.51 124.287 587.778 122.156Z" fill="black"/>
<path d="M647.69 152.298C647.96 154.948 659.85 173.298 670.6 193.558C670.595 193.591 670.595 193.625 670.6 193.658C670.8 194.088 671 194.548 671.23 195.008" stroke="black" stroke-width="4.72" stroke-linecap="round" stroke-linejoin="round"/>
<path d="M604.8 171.697L608.54 198.317" stroke="black" stroke-width="4.72" stroke-miterlimit="10"/>
<path d="M573.22 143.627C573.22 143.627 578.64 169.987 591.97 173.977C605.3 177.967 616.87 161.337 616.87 161.337" stroke="black" stroke-width="4.72" stroke-linecap="round" stroke-linejoin="round"/>
<path d="M576.86 155.517C578.631 156.552 580.632 157.129 582.682 157.195C584.732 157.261 586.766 156.815 588.6 155.897" stroke="black" stroke-width="4.72" stroke-linecap="round" stroke-linejoin="round"/>
<path d="M601.89 62.9971C601.731 60.9523 601.042 58.9842 599.89 57.2871C598.425 55.0383 596.248 53.3456 593.708 52.4797C591.167 51.6137 588.41 51.6243 585.876 52.51C583.343 53.3956 581.179 55.105 579.731 57.3651C578.283 59.6251 577.635 62.3052 577.89 64.9771" stroke="black" stroke-width="4.72" stroke-miterlimit="10" stroke-linecap="round"/>
<path d="M596.73 81.1993C596.478 78.3106 595.527 75.5266 593.959 73.0876C592.391 70.6485 590.254 68.6276 587.73 67.1993C575.02 60.0893 558.73 73.8993 563.28 87.5793C564.88 92.3393 568.69 95.7993 573.03 98.0993C581.03 102.349 592.23 102.099 596.03 92.5193L596.09 92.3693C596.09 92.3693 597.75 100.759 606.56 101.069C607.698 101.149 608.839 100.978 609.903 100.569C610.967 100.159 611.929 99.5205 612.719 98.6981C613.509 97.8757 614.108 96.8896 614.475 95.8098C614.841 94.7299 614.966 93.5827 614.84 92.4493C622.42 100.249 624.4 111.909 620.84 122.019C621.49 120.199 625.84 120.529 627.1 120.949C632.52 122.839 635.41 129.249 634.21 134.689C633.08 139.779 629.15 144.079 624.87 147.199C624.505 147.452 624.207 147.79 624.001 148.183C623.795 148.577 623.687 149.015 623.687 149.459C623.687 149.903 623.795 150.341 624.001 150.734C624.207 151.128 624.505 151.466 624.87 151.719C628.945 154.338 633.774 155.534 638.6 155.119C644.453 154.637 649.875 151.851 653.674 147.373C657.473 142.895 659.339 137.092 658.86 131.239L658.8 130.959C662.663 130.15 666.145 128.071 668.689 125.053C671.233 122.035 672.693 118.252 672.837 114.308C672.98 110.364 671.8 106.484 669.482 103.289C667.165 100.095 663.844 97.7675 660.05 96.6793C661.189 94.622 661.69 92.2723 661.49 89.9293C661.215 86.7506 659.694 83.8099 657.258 81.749C654.822 79.6881 651.67 78.6744 648.49 78.9293" stroke="black" stroke-width="4.72" stroke-linecap="round" stroke-linejoin="round"/>
<path d="M601.38 56.8065C603.78 52.8065 606.43 50.5665 611.38 50.1565C614.451 49.9056 617.524 50.6209 620.169 52.2023C622.814 53.7837 624.898 56.1522 626.13 58.9765C625.96 58.5865 629.98 56.7565 630.39 56.5965C631.993 55.9837 633.678 55.613 635.39 55.4965C639.956 55.2508 644.441 56.7779 647.908 59.759C651.376 62.7402 653.558 66.9451 654 71.4965C654.22 74.171 653.809 76.8598 652.8 79.3465" stroke="black" stroke-width="4.72" stroke-linecap="square" stroke-linejoin="round"/>
<path d="M670.6 193.568C670.6 193.568 679.94 224.628 626.54 226.308" stroke="black" stroke-width="4.72" stroke-miterlimit="10"/>
<path d="M392.95 504.755C392.86 482.045 415.18 475.935 425.87 476.135C492.12 477.395 502.11 370.255 502.11 370.255" stroke="black" stroke-width="4.72" stroke-linecap="round" stroke-linejoin="round"/>
<path d="M739.69 471.107C739.69 471.107 731.87 548.247 739.69 574.207C747.51 600.167 702.54 579.797 702.54 579.797" stroke="black" stroke-width="4.72" stroke-miterlimit="10"/>
<path d="M291.66 529.248H239.67" stroke="black" stroke-width="4.72" stroke-linecap="round" stroke-linejoin="round"/>
<path d="M477.94 529.248H378.46" stroke="black" stroke-width="4.72" stroke-linecap="round" stroke-linejoin="round"/>
<path d="M364.19 529.248H305.46" stroke="black" stroke-width="4.72" stroke-linecap="round" stroke-linejoin="round"/>
<path d="M362.68 504.755H304.61" stroke="black" stroke-width="4.72" stroke-linecap="round" stroke-linejoin="round"/>
<path d="M408.95 504.755H377.6" stroke="black" stroke-width="4.72" stroke-linecap="round" stroke-linejoin="round"/>
<path d="M488.64 504.755H428.09" stroke="black" stroke-width="4.72" stroke-linecap="round" stroke-linejoin="round"/>
<path d="M290.1 504.755H279.83" stroke="black" stroke-width="4.72" stroke-linecap="round" stroke-linejoin="round"/>
<path d="M360.76 502.556H374.19C374.19 502.556 389.58 517.086 374.19 533.716V545.336H360.76" stroke="black" stroke-width="4.72" stroke-linecap="round" stroke-linejoin="round"/>
<path d="M301.62 502.556C301.62 502.556 317.01 517.086 301.62 533.716V545.336" stroke="black" stroke-width="4.72" stroke-linecap="round" stroke-linejoin="round"/>
<path d="M301.62 545.336H288.19V533.716C303.59 517.086 288.19 502.556 288.19 502.556H301.62" stroke="black" stroke-width="4.72" stroke-linecap="round" stroke-linejoin="round"/>
<path d="M360.76 502.556C360.76 502.556 376.16 517.086 360.76 533.716V545.336" stroke="black" stroke-width="4.72" stroke-linecap="round" stroke-linejoin="round"/>
<path d="M428.28 504.107C433.04 503.107 440.13 500.497 443.74 493.767" stroke="black" stroke-width="4.72" stroke-linecap="round" stroke-linejoin="round"/>
<path d="M288.19 533.716H301.62" stroke="black" stroke-width="4.72" stroke-linecap="round" stroke-linejoin="round"/>
<path d="M360.76 533.716H374.19" stroke="black" stroke-width="4.72" stroke-linecap="round" stroke-linejoin="round"/>
<path d="M412.53 497.337C410.816 499.524 409.594 502.055 408.95 504.757C408.102 508.748 407.782 512.833 408 516.907C408.06 520.907 408.56 525.007 412.36 527.107C418.07 530.297 424.93 525.737 425.23 519.197C425.557 514.281 426.519 509.427 428.09 504.757C428.15 504.527 428.22 504.327 428.28 504.137" stroke="black" stroke-width="4.72" stroke-linecap="round" stroke-linejoin="round"/>
<path d="M395.8 529.248C395.8 529.248 399.54 539.108 408.95 540.308C418.36 541.508 412.41 529.248 412.41 529.248C412.41 529.248 416.31 537.888 421.03 538.178C425.75 538.468 429.83 534.178 428.2 529.248C428.2 529.248 429.64 537.178 436.62 536.308C443.6 535.438 440.72 529.248 440.72 529.248" stroke="black" stroke-width="4.72" stroke-linecap="round" stroke-linejoin="round"/>
<g opacity="0.54">
<path opacity="0.54" d="M288.46 669.696L281.71 767.176C278.05 773.796 273.93 779.656 270.26 783.276C269.77 783.096 269.26 782.916 268.79 782.696C267.89 782.386 267 782.026 266.15 781.696C252.47 775.696 242.15 764.526 239.05 751.916C236.33 740.826 238.79 728.846 233.51 718.426C227.07 705.596 209.51 697.546 207.4 683.056C205.4 669.506 217.59 657.056 215.62 643.796C213.34 628.796 194.92 619.876 191.48 605.206C189.33 596.086 191.25 585.626 190.48 576.206C189.57 565.711 187.793 555.309 185.17 545.106C212.36 543.106 240.04 558.106 248.85 579.576C256.05 597.146 251.71 617.676 262.98 633.686C269.1 642.356 279.3 648.836 284.57 657.916C286.195 660.745 287.372 663.807 288.06 666.996C288.11 667.216 288.11 667.446 288.15 667.616C288.2 667.976 288.24 668.246 288.28 668.516C288.37 669.296 288.46 669.696 288.46 669.696Z" fill="#348CB1"/>
<path opacity="0.54" d="M288.51 669.658H288.46C288.46 669.658 288.37 669.258 288.28 668.498C288.365 668.806 288.425 669.12 288.46 669.438C288.51 669.518 288.51 669.608 288.51 669.658Z" fill="#348CB1"/>
</g>
<path d="M378.34 631.649C374.76 644.299 355.54 651.989 353.21 664.959C351.15 676.449 363.85 687.179 361.75 698.849C359.52 711.379 341.27 718.309 334.57 729.399C329.11 738.399 331.66 748.709 328.84 758.279C325.58 769.149 314.84 778.849 300.49 783.989C299.6 784.309 298.75 784.619 297.85 784.889C297.36 785.019 296.85 785.199 296.33 785.329C291.59 781.439 286.18 774.599 281.75 767.219L288.5 669.739H288.55C293.78 665.309 299.77 661.239 303.93 656.319C308.45 650.999 310.55 645.189 311.93 639.109H311.95V638.439C313.95 628.819 314.1 618.759 318.62 609.639C327.78 591.079 356.53 578.159 384.84 579.859C382.171 588.622 380.343 597.619 379.38 606.729C378.56 614.789 380.58 623.819 378.34 631.649Z" fill="#348CB1"/>
<path d="M311.95 638.357V639.027H311.82C311.89 638.797 311.95 638.577 311.95 638.357Z" fill="#348CB1"/>
<path d="M311.95 638.355C311.95 638.575 311.86 638.796 311.82 639.026C310.48 645.106 308.38 650.915 303.82 656.235C299.66 661.155 293.67 665.235 288.44 669.655C288.44 669.655 288.44 669.515 288.39 669.475C288.355 669.158 288.295 668.843 288.21 668.535C288.21 668.265 288.13 667.996 288.08 667.636C288.08 667.466 288.08 667.236 287.99 667.016C287.302 663.828 286.125 660.765 284.5 657.936C279.23 648.856 269.03 642.376 262.91 633.706C262.91 633.706 265.68 588.005 289.06 574.095C311.27 560.945 311.95 630.745 311.95 638.355Z" fill="#348CB1"/>
<path d="M311.95 638.357V639.027H311.82C311.89 638.797 311.95 638.577 311.95 638.357Z" fill="#348CB1"/>
<path d="M288.46 669.477V669.697C288.46 669.697 288.37 669.297 288.28 668.537C288.365 668.845 288.425 669.159 288.46 669.477Z" fill="#348CB1"/>
<path d="M286.38 669.708C291.59 665.268 297.63 661.148 301.81 656.238C313.53 642.398 309.02 624.718 316.54 609.548C325.69 591.008 354.54 578.089 382.78 579.789C380.086 588.547 378.251 597.545 377.3 606.658C376.46 614.768 378.47 623.808 376.3 631.658C372.7 644.298 353.49 651.968 351.15 664.948C349.08 676.428 361.81 687.158 359.7 698.828C357.46 711.358 339.23 718.278 332.51 729.368C327.04 738.368 329.61 748.678 326.77 758.268C323.33 769.828 311.4 780.048 295.77 784.858C295.27 785.028 294.77 785.198 294.23 785.328C289.49 781.438 284.08 774.608 279.64 767.218" stroke="black" stroke-width="4.72" stroke-miterlimit="10"/>
<path d="M365.5 594.326C323.31 639.736 303.5 735.486 295.75 784.876C295.12 789.046 294.55 792.876 294.06 796.296" stroke="black" stroke-width="4.72" stroke-miterlimit="10"/>
<path d="M369.39 824.107L349.95 938.647C349.491 941.787 347.933 944.663 345.552 946.761C343.171 948.86 340.123 950.046 336.95 950.107H235.59C232.391 950.037 229.322 948.825 226.938 946.691C224.554 944.556 223.012 941.639 222.59 938.467L204.69 824.107H369.39Z" stroke="black" stroke-width="4.72" stroke-miterlimit="10"/>
<path d="M387.83 811.348C387.28 818.568 381.56 824.128 374.7 824.128H199.7C192.91 824.128 187.24 818.688 186.59 811.548C185.84 803.388 191.93 796.318 199.7 796.318H374.7C382.4 796.318 388.46 803.248 387.83 811.348Z" stroke="black" stroke-width="4.72" stroke-miterlimit="10"/>
<path d="M268.18 783.296C275.69 775.836 284.88 759.236 288.96 745.666C292.31 734.476 286.4 722.966 285.05 711.496C282.93 693.496 291.86 674.206 282.45 657.926C277.21 648.846 267.01 642.386 260.89 633.686C249.61 617.686 253.94 597.186 246.73 579.616C237.95 558.106 210.27 543.156 183.09 545.106C185.688 555.322 187.447 565.733 188.35 576.236C189.16 585.626 187.22 596.086 189.35 605.236C192.8 619.906 211.24 628.786 213.5 643.816C215.5 657.106 203.28 669.536 205.29 683.066C207.45 697.576 224.94 705.596 231.41 718.446C236.66 728.886 234.2 740.846 236.93 751.926C240.35 765.766 252.45 777.926 268.18 783.296Z" stroke="black" stroke-width="4.72" stroke-miterlimit="10"/>
<path d="M199.68 561.966C240.18 614.566 259.24 725.466 266.68 782.716C267.32 787.716 267.89 792.226 268.34 796.296" stroke="black" stroke-width="4.72" stroke-miterlimit="10"/>
<path d="M260.89 633.688C260.89 633.688 263.67 587.988 287.04 574.088C310.41 560.188 309.95 638.108 309.95 638.108" stroke="black" stroke-width="4.72" stroke-miterlimit="10"/>
<path d="M286.38 669.707C286.38 669.707 281.6 643.557 289.97 617.857" stroke="black" stroke-width="4.72" stroke-miterlimit="10"/>
<path d="M824.28 529.248H736.79" stroke="black" stroke-width="4.72" stroke-linecap="round" stroke-linejoin="round"/>
<path d="M825.7 504.755H739.59" stroke="black" stroke-width="4.72" stroke-linecap="round" stroke-linejoin="round"/>
<path d="M211.78 950.107H768.96" stroke="black" stroke-width="4.72" stroke-miterlimit="10"/>
</svg>
