<svg width="908" height="893" viewBox="0 0 908 893" fill="none" xmlns="http://www.w3.org/2000/svg">
<path d="M723.5 498.5V482.5C725.305 480.308 728.627 476.36 730.408 474.5L729.5 473.5H731.5H738C742 473.5 742 475.5 744 477C746 478.5 749.5 483.5 753 486C756.5 488.5 760.5 491 767.5 494.5C774.5 498 775 504.5 776 508C777 511.5 776 515.5 777 521.5C778 527.5 772.5 525.5 771.5 525.5C770.5 525.5 762.5 522.5 754 520.5C745.5 518.5 746.5 515 741 513.5C735.5 512 723.5 500 723.5 498.5Z" fill="white"/>
<path d="M827.5 119.5L838 113C838.667 113 841.7 113.4 848.5 115C857 117 853 117.5 863 121C873 124.5 868.5 125 875 130C881.5 135 878 137.5 879 141C880 144.5 877 149.5 875 153.5C873 157.5 865 155 863 155.5C861 156 845.5 149.5 843 147.5C841 145.9 833.833 134.167 830.5 128.5L827.5 119.5Z" fill="white"/>
<path d="M633 79.5L635 47.5C636 44.1667 639.2 36.5 644 32.5C650 27.5 657.5 32 660 32.5C662.5 33 671 38.5 674 40.5C677 42.5 680 49 680 50.5C680 52 673 72.5 673 76.5C673 80.5 670.5 86.5 670 90.5C669.5 94.5 660.5 107 656.5 115.5C652.5 124 645 122 642.5 123C640.5 123.8 635.333 119.667 633 117.5L630 108.5L633 79.5Z" fill="white"/>
<path d="M617 139.5L620 130C622.667 128.833 628.4 126.6 630 127C632 127.5 635 127.5 640.5 128C646 128.5 648.5 130 653 132C657.5 134 652.5 136.5 651.5 147C650.5 157.5 645.5 154 638 157C630.5 160 630 155.5 626.5 155.5C623 155.5 620 152 618.5 151.5C617.3 151.1 617 143.333 617 139.5Z" fill="white"/>
<path d="M706.225 192.275C702.065 180.735 697.435 169.275 692.365 158.135C682.265 135.965 679.945 114.955 665.755 96.4149" stroke="#CCDDE2" stroke-width="7.24" stroke-miterlimit="10"/>
<path d="M632.865 75.1649C620.655 62.7449 609.235 49.3949 588.485 39.4247C544.635 18.4247 488.565 16.2947 416.995 45.9947" stroke="#CCDDE2" stroke-width="7.24" stroke-miterlimit="10"/>
<path d="M116.105 889.085C46.7549 791.055 24.3249 680.226 35.9149 566.876" stroke="#CCDDE2" stroke-width="7.24" stroke-miterlimit="10"/>
<path d="M745.245 406.497V407.707C744.565 429.707 764.895 520.907 822.555 549.877C880.215 578.847 921.325 706.007 791.325 755.897C661.325 805.787 668.405 889.087 668.405 889.087" stroke="#CCDDE2" stroke-width="7.24" stroke-miterlimit="10"/>
<path d="M416.985 140.155V32.4148C416.967 25.013 414.018 17.9196 408.784 12.6857C403.55 7.45179 396.457 4.50329 389.055 4.48479H32.255C24.8532 4.50329 17.7598 7.45179 12.5259 12.6857C7.29195 17.9196 4.34345 25.013 4.32495 32.4148V539.015C4.33815 546.413 7.28695 553.503 12.5238 558.729C17.7605 563.954 24.8571 566.888 32.255 566.885H389.055C392.516 566.907 395.948 566.247 399.155 564.945" stroke="black" stroke-width="7.24" stroke-linecap="round" stroke-linejoin="round"/>
<path d="M379.505 21.5551H41.805C28.0255 21.5551 16.855 32.7256 16.855 46.5051V524.915C16.855 538.695 28.0255 549.865 41.805 549.865H379.505C393.285 549.865 404.455 538.695 404.455 524.915V46.5051C404.455 32.7256 393.285 21.5551 379.505 21.5551Z" fill="#3FBDF1"/>
<path d="M373.395 62.4339H52.1551C45.2626 62.4339 39.675 68.0219 39.675 74.9139V148.874C39.675 155.767 45.2626 161.354 52.1551 161.354H373.395C380.288 161.354 385.875 155.767 385.875 148.874V74.9139C385.875 68.0219 380.288 62.4339 373.395 62.4339Z" fill="#3FBDF1"/>
<path d="M210.655 104.097C216.305 104.097 220.885 99.5169 220.885 93.8669C220.885 88.2169 216.305 83.6369 210.655 83.6369C205.005 83.6369 200.425 88.2169 200.425 93.8669C200.425 99.5169 205.005 104.097 210.655 104.097Z" fill="#D7E8F0"/>
<path d="M182.065 140.157C182.065 132.574 185.077 125.302 190.439 119.941C195.8 114.579 203.072 111.567 210.655 111.567C218.238 111.567 225.509 114.579 230.871 119.941C236.233 125.302 239.245 132.574 239.245 140.157H182.065Z" fill="#D7E8F0"/>
<path d="M212.735 267.344C201.829 267.338 191.166 270.567 182.095 276.623C173.024 282.678 165.954 291.288 161.777 301.363C157.601 311.438 156.507 322.525 158.633 333.222C160.759 343.919 166.01 353.745 173.722 361.457C181.434 369.169 191.26 374.42 201.957 376.546C212.654 378.673 223.741 377.578 233.816 373.402C243.891 369.226 252.501 362.155 258.556 353.084C264.612 344.013 267.841 333.351 267.835 322.444C267.827 307.833 262.019 293.823 251.688 283.492C241.356 273.16 227.346 267.352 212.735 267.344ZM212.735 364.254C210.601 364.254 208.555 363.407 207.046 361.898C205.538 360.389 204.69 358.343 204.69 356.209C204.69 354.076 205.538 352.029 207.046 350.521C208.555 349.012 210.601 348.164 212.735 348.164C214.869 348.164 216.915 349.012 218.424 350.521C219.932 352.029 220.78 354.076 220.78 356.209C220.78 358.343 219.932 360.389 218.424 361.898C216.915 363.407 214.869 364.254 212.735 364.254ZM222.945 302.254C221.215 314.194 219.755 326.784 216.245 338.394C215.385 341.154 210.145 341.154 209.245 338.394C206.729 329.656 204.799 320.759 203.465 311.764C202.385 305.224 198.555 294.644 202.225 288.264C205.415 282.594 214.485 281.894 219.725 284.864C226.235 288.604 223.695 296.354 222.945 302.294V302.254Z" fill="#D7E8F0"/>
<path d="M74.2949 205.516H343.485" stroke="white" stroke-width="7.24" stroke-miterlimit="10"/>
<path d="M74.2949 232.004H343.485" stroke="white" stroke-width="7.24" stroke-miterlimit="10"/>
<path d="M74.2949 402.637H343.485" stroke="white" stroke-width="7.24" stroke-miterlimit="10"/>
<path d="M136.825 427.696H280.955" stroke="white" stroke-width="7.24" stroke-miterlimit="10"/>
<path d="M108 595C108 595 155.373 403.3 302.922 356.477L362.895 341.904C362.895 341.904 372.379 298.768 368.888 294.236C365.397 289.704 358.227 280.418 345.093 282.432C331.959 284.446 300.256 285.469 291.563 243.199C282.87 200.929 316.288 104.716 396.224 85.0513C479.705 70.0246 522 142.484 522 142.484C498.054 198.992 501.523 324.571 435.957 311.181L456.232 397.796L431.047 567.757L108 595Z" fill="white"/>
<path d="M456 352.5V308L431.5 311.5L405.5 308L365 344H360L294 355.5L238.5 386.5L208.5 412.5L178 443.5L130 523.5L110 590L90.5 673.5V753C95.5 769.833 105.5 804.2 105.5 807C105.5 809.8 118.167 825.5 124.5 833L155.5 850L200 853.5L534 705.5L536 772L543 814L565.5 853.5L589.5 865L614.5 862L640.5 850L656.5 833L681 772L695 686L683.5 582L644.5 482.5L612.5 438.5L553.5 386.5L475 355.5L456 352.5Z" fill="white"/>
<path d="M618.445 444.769C617.445 445.059 604.685 448.769 599.665 457.609C598.709 455.585 597.197 453.875 595.306 452.678C593.415 451.481 591.223 450.847 588.985 450.848H439.135C436.469 450.844 433.88 451.745 431.793 453.403C429.705 455.062 428.243 457.38 427.645 459.978L398.135 586.509C396.135 586.119 394.135 585.879 392.055 585.679L322.415 568.299C319.428 567.549 316.268 567.94 313.554 569.396C310.839 570.851 308.765 573.266 307.735 576.168C307.271 577.471 307.041 578.846 307.055 580.228C307.055 583.369 308.246 586.393 310.387 588.691C312.529 590.988 315.462 592.388 318.595 592.609L351.525 594.728C319.805 609.658 281.215 638.098 249.005 664.228C217.665 615.158 247.075 566.099 269.195 539.679C266.345 510.559 251.905 442.948 179.855 444.788C204.675 412.958 235.625 385.679 273.975 367.418C405.335 513.019 555.615 393.978 558.805 391.418C581.278 406.078 601.389 424.075 618.445 444.788" fill="#2E2E2E"/>
<path d="M604.795 862.447V887.607H170.985V851.967C187.885 852.967 205.665 848.967 221.835 841.677C242.305 832.357 259.985 817.877 275.105 801.357C290.655 784.257 299.195 760.547 309.105 739.927C323.985 708.877 343.695 686.757 374.975 677.387L372.975 685.987C372.574 687.718 372.568 689.518 372.958 691.252C373.348 692.985 374.124 694.609 375.228 696.001C376.332 697.394 377.736 698.519 379.335 699.294C380.935 700.069 382.688 700.474 384.465 700.477H535.065C532.065 726.477 519.415 868.477 604.795 862.477" fill="#2E2E2E"/>
<path d="M535.135 200.736C535.014 214.189 533.261 227.576 529.915 240.606C528.389 246.784 525.112 252.389 520.479 256.751C515.846 261.113 510.053 264.045 503.795 265.196C503.545 256.116 499.685 248.146 493.795 243.196C494.333 235.509 494.256 227.791 493.565 220.116C493.175 215.046 492.565 210.316 491.925 206.066C491.544 203.647 490.993 201.258 490.275 198.916C488.265 196.757 485.897 194.96 483.275 193.606C474.005 188.386 454.925 182.836 419.575 190.996C413.803 192.318 408.373 194.835 403.635 198.386C403.53 198.452 403.436 198.532 403.355 198.626C400.165 201.566 396.105 205.286 391.905 207.216C387.555 209.216 383.015 209.296 379.205 204.566C379.105 204.466 379.055 204.376 378.965 204.276C376.965 201.666 375.055 198.276 371.525 197.606C364.085 196.206 360.465 203.606 359.525 209.826C358.705 215.576 360.395 220.646 362.865 225.476C364.934 229.403 367.637 232.961 370.865 236.006C371.694 236.808 372.453 237.677 373.135 238.606C372.825 238.661 372.52 238.745 372.225 238.856C371.541 239.086 370.873 239.36 370.225 239.676C361.225 243.726 354.815 253.876 354.675 265.756C354.675 266.126 339.585 265.906 337.675 265.756C330.315 265.076 323.065 262.956 317.885 257.406C303.185 241.656 303.255 218.286 309.295 200.006C315.015 182.656 322.295 165.716 331.835 150.106C352.505 116.326 384.575 91.4059 425.175 89.1659C434.912 88.6769 444.672 89.2469 454.285 90.8659C458.834 91.5829 463.333 92.5849 467.755 93.8659C509.145 111.926 535.415 152.866 535.175 200.736" fill="#2E2E2E"/>
<path d="M511.165 585.836C506.275 598.386 494.635 605.566 485.165 601.836C475.695 598.106 471.975 584.986 476.855 572.436C481.735 559.886 493.385 552.696 502.855 556.436C512.325 560.176 516.055 573.296 511.165 585.846" fill="#3FBDF1"/>
<path d="M536.325 697.916C536.325 697.916 509.765 883.066 616.005 862.546C721.665 842.116 761.655 412.266 455.815 350.446" stroke="black" stroke-width="7.24" stroke-miterlimit="10"/>
<path d="M287.585 519.668C287.585 519.668 201.865 591.959 248.055 664.259" stroke="black" stroke-width="7.24" stroke-miterlimit="10"/>
<path d="M538.255 646.489C536.785 646.579 534.685 645.599 533.255 645.209C531.442 644.729 529.645 644.215 527.865 643.669C517.422 640.418 507.596 635.443 498.795 628.949C496.795 627.519 493.235 626.599 490.795 627.539C489.437 628.037 488.238 628.891 487.323 630.012C486.408 631.132 485.811 632.478 485.595 633.909C484.845 639.069 488.485 644.119 492.455 647.429C497.165 651.369 502.055 654.999 507.765 657.359C513.277 659.571 518.963 661.321 524.765 662.589C527.395 663.199 530.065 663.589 532.675 664.259" stroke="black" stroke-width="7.24" stroke-miterlimit="10"/>
<path d="M571.155 596.395C572.235 602.095 573.025 608.015 572.485 613.805C572.035 618.705 570.275 624.425 564.825 625.615C563.789 625.889 562.714 625.987 561.645 625.905C541.125 624.695 524.215 617.605 504.905 603.645C485.595 589.685 478.795 621.835 496.435 627.535" stroke="black" stroke-width="7.24" stroke-miterlimit="10"/>
<path d="M497.175 651.307C496.701 650.917 496.251 650.499 495.825 650.057C486.215 640.007 484.475 660.197 494.565 666.137L495.865 666.907C496.545 667.197 497.275 667.537 497.995 667.907C498.335 667.997 498.715 668.147 499.065 668.247M499.065 668.247C508.185 672.247 517.895 674.807 527.455 677.417C517.995 674.327 508.565 671.287 499.065 668.247ZM499.065 668.247C498.245 667.907 497.465 667.567 496.645 667.177C496.393 667.072 496.132 666.992 495.865 666.937C495.695 666.86 495.508 666.828 495.322 666.846C495.136 666.863 494.958 666.929 494.805 667.037C494.577 667.224 494.41 667.475 494.325 667.757C492.775 671.477 494.035 676.167 496.015 679.497C498.095 683.017 501.665 685.727 505.185 687.657C514.655 692.967 525.665 696.107 536.295 697.987C538.267 698.395 540.287 698.527 542.295 698.377" stroke="black" stroke-width="7.24" stroke-miterlimit="10"/>
<path d="M628.045 721.285C628.045 721.285 595.455 665.745 591.825 617.455C589.605 587.565 580.825 581.235 574.545 580.805" stroke="black" stroke-width="7.24" stroke-miterlimit="10"/>
<path d="M564.825 625.606L571.165 596.396L574.545 580.796L599.605 465.136C599.977 463.414 599.958 461.631 599.551 459.916C599.143 458.202 598.358 456.601 597.251 455.23C596.145 453.859 594.746 452.752 593.156 451.992C591.567 451.232 589.827 450.837 588.065 450.836H438.205C435.54 450.834 432.952 451.735 430.865 453.394C428.778 455.052 427.315 457.369 426.715 459.966L397.205 586.506L375.665 678.836L373.665 687.486C373.267 689.218 373.264 691.016 373.657 692.749C374.049 694.481 374.826 696.103 375.931 697.494C377.035 698.885 378.439 700.009 380.038 700.783C381.636 701.558 383.389 701.962 385.165 701.966H535.755" stroke="black" stroke-width="7.24" stroke-miterlimit="10"/>
<path d="M379.025 201.238C379.025 201.238 386.955 167.608 431.735 163.148C476.515 158.688 487.735 192.148 487.735 192.148L486.325 195.518C486.325 195.518 427.455 171.898 394.945 205.608C394.945 205.608 383.235 210.918 379.025 201.258" fill="#3FBDF1"/>
<path d="M391.105 585.676L321.455 568.276C319.794 567.865 318.065 567.804 316.379 568.096C314.693 568.389 313.086 569.029 311.66 569.976C310.235 570.923 309.022 572.157 308.098 573.598C307.175 575.039 306.562 576.656 306.297 578.347C306.033 580.038 306.123 581.766 306.562 583.42C307.001 585.074 307.779 586.619 308.847 587.956C309.915 589.293 311.25 590.394 312.766 591.188C314.283 591.981 315.948 592.451 317.655 592.566L350.585 594.736" stroke="black" stroke-width="7.24" stroke-miterlimit="10"/>
<path d="M557.905 391.369C557.905 391.369 405.775 514.609 273.035 367.418" stroke="black" stroke-width="7.24" stroke-miterlimit="10"/>
<path d="M268.265 539.656C265.415 510.536 250.985 442.876 178.875 444.766" stroke="black" stroke-width="7.24" stroke-miterlimit="10"/>
<path d="M617.535 444.747C617.535 444.747 603.945 448.487 598.735 457.627" stroke="black" stroke-width="7.24" stroke-miterlimit="10"/>
<path d="M65.4451 889.106H711.355" stroke="black" stroke-width="7.24" stroke-miterlimit="10"/>
<path d="M493.795 243.235C499.885 248.355 503.795 256.715 503.795 266.175C503.795 281.875 492.885 294.575 479.405 294.575C477.88 294.567 476.361 294.389 474.875 294.045C490.575 282.045 493.755 243.235 493.755 243.235" fill="#3FBDF1"/>
<path d="M404.985 306.609C412.553 310.375 420.835 312.491 429.282 312.817C437.729 313.143 446.149 311.671 453.985 308.499C498.165 290.049 496.475 235.669 491.885 206.109C491.519 203.711 490.998 201.339 490.325 199.009V198.959C485.255 182.059 472.025 168.289 454.595 164.379C420.835 156.749 389.965 175.889 377.155 201.659" stroke="black" stroke-width="7.24" stroke-miterlimit="10"/>
<path d="M490.745 199.537C490.745 199.537 490.605 199.337 490.315 199.007V198.957C487.315 195.577 469.945 179.447 419.665 191.037C413.896 192.356 408.468 194.874 403.735 198.427C403.623 198.491 403.522 198.572 403.435 198.667" stroke="black" stroke-width="7.24" stroke-miterlimit="10"/>
<path d="M356.725 281.457H331.855C313.905 281.457 299.675 265.017 293.485 249.587C284.785 227.887 290.355 205.677 298.185 184.587C304.745 166.937 313.085 149.787 324.055 134.437C348.615 100.087 385.695 80.6269 428.315 84.2269C432.095 84.5469 435.858 85.0129 439.605 85.6269C496.835 94.9069 535.425 142.757 535.135 200.707C535.015 214.169 533.263 227.567 529.915 240.607C528.376 246.78 525.095 252.38 520.462 256.74C515.829 261.1 510.04 264.035 503.785 265.197" stroke="black" stroke-width="7.24" stroke-miterlimit="10"/>
<path d="M373.155 238.606C372.47 237.676 371.711 236.803 370.885 235.996C367.655 232.956 364.951 229.401 362.885 225.476C360.415 220.646 358.725 215.576 359.545 209.826C360.465 203.646 364.085 196.206 371.545 197.606C375.075 198.286 376.955 201.666 378.985 204.276C386.705 214.276 397.335 204.226 403.855 198.186" stroke="black" stroke-width="7.24" stroke-miterlimit="10"/>
<path d="M493.795 243.235C499.885 248.355 503.795 256.715 503.795 266.175C503.795 281.875 492.885 294.575 479.405 294.575C477.88 294.567 476.361 294.389 474.875 294.045" stroke="black" stroke-width="7.24" stroke-miterlimit="10"/>
<path d="M441.605 262.508C447.065 266.178 460.255 269.188 457.605 258.308C454.425 245.418 450.145 217.878 476.355 215.778C476.355 215.778 487.895 216.268 493.595 220.188" stroke="black" stroke-width="7.24" stroke-miterlimit="10"/>
<path d="M451.475 284.056C451.475 284.056 438.275 291.056 431.735 277.106" stroke="black" stroke-width="7.24" stroke-miterlimit="10"/>
<path d="M424.705 234.607C424.195 239.037 425.925 242.867 428.575 243.177C431.225 243.487 433.785 240.177 434.305 235.717C434.825 231.257 433.075 227.467 430.435 227.157C427.795 226.847 425.215 230.157 424.705 234.607Z" fill="black"/>
<path d="M467.685 237.216C467.175 241.636 468.905 245.476 471.555 245.786C474.205 246.096 476.765 242.786 477.275 238.326C477.785 233.866 476.055 230.066 473.415 229.766C470.775 229.466 468.195 232.766 467.685 237.216Z" fill="black"/>
<path d="M441.605 218.608C441.605 218.608 433.525 206.148 415.215 217.968" stroke="black" stroke-width="7.24" stroke-miterlimit="10"/>
<path d="M455.805 307.676V376.796" stroke="black" stroke-width="7.24" stroke-miterlimit="10"/>
<path d="M182.545 721.286C182.545 721.286 211.035 694.286 248.035 664.286C280.245 638.156 318.875 609.666 350.605 594.746C354.665 592.856 358.605 591.166 362.435 589.746C371.574 586.263 381.382 584.895 391.125 585.746C393.165 585.914 395.194 586.187 397.205 586.566" stroke="black" stroke-width="7.24" stroke-miterlimit="10"/>
<path d="M375.665 678.837C344.375 688.207 324.665 710.327 309.795 741.377C299.905 761.997 291.345 785.707 275.795 802.807C260.685 819.317 243.005 833.807 222.535 843.127C185.395 860.027 139.665 858.727 115.535 821.977C99.215 797.057 92.795 766.097 89.535 736.977C83.935 686.367 101.615 543.707 178.875 444.757C203.695 412.927 234.655 385.647 272.995 367.387C299.905 354.607 330.325 346.247 364.805 343.877L374.465 294.047" stroke="black" stroke-width="7.24" stroke-miterlimit="10"/>
<path d="M605.485 864.126V889.106" stroke="black" stroke-width="7.24" stroke-miterlimit="10"/>
<path d="M171.675 855.208V889.108" stroke="black" stroke-width="7.24" stroke-miterlimit="10"/>
<path d="M403.385 266.178C403.48 273.675 400.818 280.945 395.905 286.608C393.15 287.882 390.15 288.54 387.115 288.538C373.645 288.538 362.725 275.838 362.725 260.138C362.628 252.642 365.295 245.373 370.215 239.718C372.968 238.437 375.968 237.775 379.005 237.778C392.475 237.778 403.385 250.488 403.385 266.178Z" fill="#3FBDF1"/>
<path d="M379.025 294.578C392.479 294.578 403.385 281.863 403.385 266.178C403.385 250.493 392.479 237.778 379.025 237.778C365.571 237.778 354.665 250.493 354.665 266.178C354.665 281.863 365.571 294.578 379.025 294.578Z" stroke="black" stroke-width="7.24" stroke-miterlimit="10"/>
<path d="M668.645 17.9878C653.637 13.5139 637.64 13.5908 622.676 18.2088C607.712 22.8267 594.454 31.7783 584.577 43.9315C574.701 56.0849 568.65 70.8939 567.19 86.4859C565.73 102.078 568.926 117.753 576.375 131.529C583.823 145.304 595.189 156.562 609.036 163.877C622.882 171.193 638.587 174.238 654.165 172.629C669.742 171.019 684.492 164.826 696.55 154.833C708.608 144.84 717.431 131.496 721.905 116.488C727.904 96.3629 725.663 74.6799 715.675 56.2069C705.687 37.735 688.77 23.987 668.645 17.9878ZM628.865 151.428C627.409 150.993 626.052 150.276 624.873 149.317C623.694 148.358 622.715 147.176 621.993 145.839C621.27 144.502 620.818 143.036 620.663 141.524C620.507 140.012 620.65 138.484 621.085 137.028C621.52 135.572 622.237 134.215 623.196 133.036C624.155 131.857 625.337 130.878 626.674 130.156C629.374 128.697 632.544 128.37 635.485 129.248C638.426 130.126 640.898 132.136 642.357 134.837C643.816 137.537 644.143 140.707 643.265 143.648C642.387 146.589 640.377 149.061 637.676 150.52C634.976 151.979 631.806 152.306 628.865 151.428ZM668.865 70.4879C668.698 70.8879 668.538 71.2779 668.385 71.6579C661.896 87.6199 653.826 102.893 644.295 117.248C641.985 120.748 634.745 118.588 634.725 114.388C634.86 101.336 635.862 88.3069 637.725 75.3879C638.885 65.9479 637.985 49.7879 645.615 42.5278C652.385 36.0278 665.155 38.8178 671.175 45.0578C677.825 51.9879 672.065 62.8779 668.835 70.4879H668.865Z" fill="#D7E8F0"/>
<path d="M723.425 472.007C717.931 477.593 714.217 484.683 712.753 492.38C711.289 500.077 712.14 508.036 715.199 515.249C718.259 522.462 723.388 528.606 729.94 532.903C736.491 537.2 744.17 539.458 752.004 539.391C759.839 539.324 767.478 536.935 773.955 532.526C780.432 528.117 785.455 521.886 788.39 514.621C791.326 507.357 792.04 499.385 790.445 491.714C788.849 484.044 785.014 477.018 779.425 471.527C771.934 464.168 761.827 460.084 751.325 460.174C740.824 460.264 730.789 464.52 723.425 472.007ZM773.105 520.837C772.028 521.933 770.56 522.556 769.024 522.569C767.488 522.582 766.01 521.984 764.915 520.907C763.82 519.831 763.197 518.363 763.184 516.827C763.171 515.291 763.768 513.813 764.845 512.717C765.378 512.175 766.013 511.743 766.713 511.446C767.413 511.149 768.165 510.993 768.925 510.986C769.686 510.98 770.44 511.123 771.145 511.408C771.85 511.693 772.493 512.114 773.035 512.647C773.577 513.181 774.009 513.815 774.306 514.516C774.603 515.216 774.76 515.967 774.766 516.728C774.773 517.488 774.629 518.243 774.344 518.948C774.059 519.653 773.638 520.295 773.105 520.837ZM746.465 484.387C751.735 491.287 757.465 498.387 761.605 506.027C762.605 507.867 759.955 510.567 758.095 509.587C752.35 506.475 746.821 502.981 741.545 499.127C737.645 496.407 730.285 493.017 728.865 487.947C727.575 483.427 731.795 478.437 735.965 477.237C741.085 475.777 743.805 481.007 746.465 484.387Z" fill="#3FBDF1"/>
<path d="M878.725 154.757C882.671 149.903 885.089 143.987 885.672 137.759C886.256 131.531 884.981 125.269 882.006 119.766C879.031 114.263 874.492 109.766 868.961 106.842C863.431 103.919 857.158 102.701 850.935 103.343C844.713 103.985 838.82 106.458 834.003 110.448C829.186 114.439 825.66 119.768 823.871 125.763C822.082 131.757 822.111 138.147 823.954 144.125C825.797 150.103 829.372 155.4 834.225 159.347C837.448 161.968 841.156 163.928 845.137 165.116C849.118 166.304 853.294 166.696 857.426 166.269C861.558 165.843 865.566 164.607 869.221 162.632C872.875 160.656 876.105 157.98 878.725 154.757ZM835.555 119.667C835.938 119.195 836.41 118.804 836.944 118.515C837.478 118.226 838.064 118.045 838.668 117.982C839.272 117.919 839.882 117.976 840.464 118.15C841.046 118.323 841.589 118.609 842.06 118.992C842.532 119.375 842.923 119.847 843.212 120.381C843.501 120.915 843.682 121.5 843.745 122.105C843.808 122.709 843.751 123.319 843.577 123.901C843.404 124.483 843.118 125.025 842.735 125.497C841.962 126.449 840.842 127.055 839.622 127.182C838.403 127.308 837.182 126.945 836.23 126.172C835.278 125.399 834.672 124.279 834.545 123.059C834.419 121.839 834.782 120.619 835.555 119.667ZM859.485 146.667C854.775 141.577 849.705 136.397 845.815 130.597C844.875 129.207 846.815 126.867 848.335 127.507C853.151 129.56 857.825 131.932 862.325 134.607C865.625 136.477 871.735 138.607 873.245 142.547C874.605 146.037 871.625 150.327 868.395 151.547C864.405 153.087 861.845 149.137 859.485 146.607V146.667Z" fill="#3FBDF1"/>
<path d="M564.325 363.297C575.485 382.297 574.975 395.827 572.075 417.757C570.915 426.107 579.905 431.757 587.195 427.557C651.605 390.557 711.725 419.817 788.525 401.677C816.725 395.057 851.885 381.337 875.985 359.277C883.982 347.403 888.255 333.413 888.255 319.097C888.255 259.097 806.255 210.387 705.125 210.387C640.315 210.387 583.375 230.387 550.825 260.517C550.825 260.517 550.825 260.517 550.735 260.607C542.475 272.977 537.935 286.497 537.935 300.607C537.885 322.137 553.895 345.477 564.325 363.297Z" fill="#D7E8F0"/>
<path d="M538.175 300.606C538.175 301.106 538.175 301.606 538.175 302.126C538.535 323.126 549.075 342.696 561.555 359.626C569.915 370.946 579.835 383.526 577.485 397.406C576.485 403.526 573.035 409.076 572.175 415.216C571.315 421.356 574.585 429.016 580.785 429.336C584.725 429.536 588.075 426.736 591.195 424.336C609.645 410.036 633.625 404.686 656.945 403.746C680.265 402.806 703.555 405.886 726.885 406.546C760.525 407.546 794.695 403.306 825.765 390.406C853.605 378.866 879.115 359.926 895.865 334.626C912.325 309.786 902.595 273.716 885.035 252.116C868.575 231.846 844.725 218.876 820.265 209.736C754.475 185.176 679.385 185.736 614.505 212.646C595.245 220.646 576.615 231.046 562.175 246.096C548.105 260.756 538.325 280.296 538.175 300.606Z" stroke="black" stroke-width="7.24" stroke-miterlimit="10"/>
<path d="M808.115 324.505C822.066 324.505 833.375 313.196 833.375 299.245C833.375 285.294 822.066 273.985 808.115 273.985C794.164 273.985 782.855 285.294 782.855 299.245C782.855 313.196 794.164 324.505 808.115 324.505Z" fill="white"/>
<path d="M726.415 324.505C740.366 324.505 751.675 313.196 751.675 299.245C751.675 285.294 740.366 273.985 726.415 273.985C712.464 273.985 701.155 285.294 701.155 299.245C701.155 313.196 712.464 324.505 726.415 324.505Z" fill="white"/>
<path d="M643.125 324.505C657.076 324.505 668.385 313.196 668.385 299.245C668.385 285.294 657.076 273.985 643.125 273.985C629.174 273.985 617.865 285.294 617.865 299.245C617.865 313.196 629.174 324.505 643.125 324.505Z" fill="white"/>
</svg>
