<svg width="1001" height="1001" viewBox="0 0 1001 1001" fill="none" xmlns="http://www.w3.org/2000/svg">
<path d="M531.692 248.063C618.102 243.433 723.352 268.323 792.322 322.313C832.422 353.663 849.002 406.603 847.552 456.043C845.782 514.783 819.092 552.713 778.092 592.533C725.722 643.353 775.682 708.673 774.262 767.673C773.422 801.953 762.984 835.31 744.132 863.953C733.232 880.563 698.132 913.713 683.222 926.803" stroke="#CCDDE2" stroke-width="4.35" stroke-miterlimit="10"/>
<path d="M259.982 897.432C252.302 894.592 244.775 891.552 237.402 888.312C232.942 886.312 228.549 884.252 224.222 882.132C177.332 858.862 133.432 795.872 164.962 744.132C180.812 718.132 211.612 704.202 223.842 676.002C239.842 639.082 210.252 602.602 202.252 567.512C196.023 540.254 195.651 511.985 201.162 484.572C206.542 458.052 217.052 429.272 237.112 410.272C243.362 404.352 250.972 399.652 259.402 397.932" stroke="#CCDDE2" stroke-width="4.35" stroke-miterlimit="10"/>
<path d="M819.592 496.573H784.852V950.323H819.592V496.573Z" stroke="#CCDDE2" stroke-width="4.35" stroke-miterlimit="10"/>
<path d="M508.762 496.632H784.852V950.322H738.332V810.952C738.33 808.182 737.784 805.44 736.723 802.882C735.661 800.323 734.107 797.999 732.148 796.042C730.188 794.084 727.863 792.532 725.303 791.473C722.744 790.415 720.001 789.87 717.232 789.872H578.362C575.592 789.87 572.85 790.415 570.29 791.473C567.731 792.532 565.405 794.084 563.446 796.042C561.487 797.999 559.932 800.323 558.871 802.882C557.81 805.44 557.263 808.182 557.262 810.952V950.322H511.982M541.872 732.772C541.579 732.77 541.29 732.711 541.021 732.598C540.751 732.485 540.507 732.319 540.301 732.111C540.096 731.903 539.934 731.656 539.824 731.385C539.714 731.114 539.659 730.824 539.662 730.532V712.682C539.662 712.391 539.719 712.104 539.83 711.836C539.941 711.568 540.104 711.324 540.309 711.119C540.514 710.914 540.758 710.751 541.026 710.64C541.294 710.529 541.582 710.472 541.872 710.472H577.872C578.163 710.47 578.452 710.527 578.722 710.637C578.992 710.747 579.237 710.91 579.444 711.115C579.652 711.32 579.816 711.564 579.929 711.833C580.042 712.102 580.1 712.39 580.102 712.682V730.532C580.104 730.826 580.049 731.117 579.938 731.39C579.827 731.662 579.663 731.91 579.455 732.118C579.248 732.326 579.001 732.492 578.729 732.604C578.457 732.716 578.166 732.773 577.872 732.772H541.872ZM605.172 761.772C605.157 762.347 604.921 762.894 604.513 763.3C604.105 763.706 603.557 763.939 602.982 763.952H566.982C566.394 763.952 565.83 763.72 565.412 763.306C564.994 762.892 564.757 762.33 564.752 761.742V743.882C564.757 743.294 564.994 742.732 565.412 742.318C565.83 741.904 566.394 741.672 566.982 741.672H602.982C603.571 741.672 604.136 741.903 604.555 742.317C604.974 742.731 605.214 743.293 605.222 743.882L605.172 761.772ZM587.172 730.552V712.682C587.173 712.39 587.232 712.102 587.345 711.833C587.457 711.564 587.622 711.32 587.829 711.115C588.036 710.91 588.282 710.747 588.551 710.637C588.821 710.527 589.11 710.47 589.402 710.472H625.402C625.99 710.472 626.554 710.704 626.972 711.118C627.389 711.532 627.627 712.094 627.632 712.682V730.532C627.633 730.825 627.576 731.116 627.465 731.388C627.353 731.66 627.189 731.907 626.982 732.115C626.775 732.323 626.529 732.488 626.257 732.601C625.986 732.714 625.695 732.772 625.402 732.772H589.402C589.106 732.776 588.813 732.721 588.538 732.61C588.264 732.499 588.015 732.334 587.805 732.125C587.596 731.916 587.43 731.668 587.318 731.394C587.206 731.121 587.149 730.827 587.152 730.532L587.172 730.552ZM652.512 761.772C652.504 762.356 652.265 762.914 651.847 763.322C651.429 763.731 650.866 763.957 650.282 763.952H614.282C613.696 763.952 613.134 763.719 612.719 763.304C612.305 762.89 612.072 762.328 612.072 761.742V743.882C612.072 743.296 612.305 742.733 612.719 742.319C613.134 741.905 613.696 741.672 614.282 741.672H650.282C650.572 741.672 650.859 741.729 651.128 741.84C651.396 741.951 651.639 742.114 651.845 742.319C652.05 742.524 652.213 742.768 652.324 743.036C652.435 743.304 652.492 743.591 652.492 743.882L652.512 761.772ZM675.132 730.552C675.134 730.846 675.079 731.137 674.968 731.41C674.857 731.682 674.693 731.93 674.485 732.138C674.278 732.346 674.031 732.511 673.759 732.624C673.487 732.736 673.196 732.793 672.902 732.792H636.902C636.609 732.79 636.32 732.731 636.051 732.618C635.781 732.505 635.537 732.339 635.331 732.131C635.126 731.923 634.964 731.676 634.854 731.405C634.744 731.134 634.689 730.844 634.692 730.552V712.682C634.692 712.096 634.925 711.533 635.339 711.119C635.754 710.705 636.316 710.472 636.902 710.472H672.902C673.193 710.47 673.482 710.527 673.752 710.637C674.022 710.747 674.267 710.91 674.475 711.115C674.682 711.32 674.846 711.564 674.959 711.833C675.072 712.102 675.131 712.39 675.132 712.682V730.552ZM722.612 730.552C722.614 730.844 722.559 731.134 722.449 731.405C722.34 731.676 722.178 731.923 721.972 732.131C721.767 732.339 721.522 732.505 721.253 732.618C720.983 732.731 720.694 732.79 720.402 732.792H684.402C684.108 732.793 683.816 732.736 683.545 732.624C683.273 732.511 683.026 732.346 682.818 732.138C682.611 731.93 682.447 731.682 682.336 731.41C682.225 731.137 682.169 730.846 682.172 730.552V712.682C682.173 712.39 682.232 712.102 682.345 711.833C682.457 711.564 682.622 711.32 682.829 711.115C683.036 710.91 683.282 710.747 683.551 710.637C683.821 710.527 684.11 710.47 684.402 710.472H720.402C720.988 710.472 721.55 710.705 721.965 711.119C722.379 711.533 722.612 712.096 722.612 712.682V730.552ZM755.952 663.552C755.954 669.143 753.736 674.507 749.785 678.464C745.834 682.421 740.473 684.646 734.882 684.652H559.102C556.325 684.653 553.574 684.106 551.009 683.043C548.443 681.979 546.113 680.42 544.151 678.455C542.189 676.489 540.634 674.155 539.575 671.588C538.517 669.02 537.975 666.269 537.982 663.492V589.112C537.98 586.341 538.525 583.598 539.584 581.038C540.644 578.478 542.197 576.152 544.155 574.192C546.114 572.233 548.439 570.679 550.999 569.618C553.558 568.558 556.301 568.012 559.072 568.012H734.862C737.635 568.005 740.383 568.546 742.947 569.604C745.511 570.662 747.841 572.215 749.804 574.176C751.766 576.136 753.322 578.465 754.382 581.028C755.442 583.591 755.986 586.338 755.982 589.112L755.952 663.552ZM752.872 543.432C751.903 544.411 750.749 545.188 749.476 545.717C748.204 546.246 746.839 546.516 745.462 546.512H550.162C548.778 546.512 547.408 546.238 546.13 545.707C544.852 545.175 543.692 544.397 542.716 543.415C541.74 542.434 540.968 541.269 540.444 539.988C539.92 538.707 539.654 537.336 539.662 535.952C539.672 533.171 540.782 530.508 542.749 528.542C544.717 526.577 547.381 525.47 550.162 525.462H745.442C746.824 525.455 748.193 525.722 749.471 526.246C750.75 526.77 751.912 527.542 752.892 528.516C753.871 529.491 754.648 530.65 755.179 531.926C755.709 533.202 755.982 534.57 755.982 535.952C755.981 537.335 755.703 538.703 755.166 539.978C754.628 541.252 753.841 542.406 752.852 543.372L752.872 543.432Z" stroke="#CCDDE2" stroke-width="4.35" stroke-miterlimit="10"/>
<path d="M539.662 535.954C539.672 533.173 540.782 530.51 542.749 528.544C544.716 526.579 547.381 525.472 550.162 525.464H745.442C746.823 525.457 748.193 525.724 749.471 526.248C750.75 526.772 751.912 527.544 752.892 528.519C753.871 529.493 754.648 530.652 755.178 531.928C755.709 533.204 755.982 534.572 755.982 535.954C755.974 538.734 754.866 541.397 752.901 543.363C750.935 545.328 748.271 546.436 745.492 546.444H550.162C547.379 546.444 544.709 545.339 542.741 543.372C540.772 541.405 539.664 538.737 539.662 535.954Z" stroke="#CCDDE2" stroke-width="4.35" stroke-miterlimit="10"/>
<path d="M734.862 568.011H559.102C556.329 568.007 553.583 568.55 551.02 569.608C548.457 570.667 546.128 572.221 544.166 574.181C542.205 576.141 540.649 578.468 539.587 581.03C538.526 583.592 537.981 586.338 537.982 589.111V663.491C537.985 669.084 540.207 674.448 544.161 678.404C548.116 682.36 553.479 684.585 559.072 684.591H734.862C737.635 684.595 740.381 684.052 742.944 682.993C745.507 681.934 747.836 680.38 749.798 678.421C751.759 676.461 753.315 674.133 754.377 671.571C755.438 669.01 755.983 666.264 755.982 663.491V589.111C755.986 586.337 755.442 583.59 754.382 581.027C753.322 578.464 751.766 576.135 749.804 574.175C747.841 572.214 745.512 570.661 742.947 569.603C740.383 568.545 737.636 568.004 734.862 568.011ZM636.452 653.181C636.455 655.132 636.073 657.064 635.328 658.867C634.584 660.671 633.491 662.31 632.113 663.691C630.735 665.072 629.098 666.167 627.296 666.916C625.495 667.664 623.563 668.049 621.612 668.051H569.612C567.661 668.049 565.729 667.664 563.928 666.916C562.126 666.167 560.489 665.072 559.111 663.691C557.733 662.31 556.64 660.671 555.896 658.867C555.151 657.064 554.769 655.132 554.772 653.181V599.511C554.771 597.561 555.153 595.629 555.899 593.827C556.644 592.025 557.736 590.387 559.114 589.007C560.492 587.627 562.129 586.532 563.93 585.785C565.731 585.037 567.662 584.652 569.612 584.651H621.612C623.563 584.651 625.494 585.035 627.296 585.782C629.097 586.529 630.734 587.624 632.113 589.004C633.491 590.384 634.584 592.023 635.328 593.825C636.073 595.628 636.455 597.56 636.452 599.511V653.181ZM738.652 653.251C738.655 655.202 738.273 657.134 737.528 658.937C736.784 660.741 735.691 662.38 734.313 663.761C732.935 665.142 731.298 666.237 729.496 666.986C727.695 667.734 725.763 668.119 723.812 668.121H671.632C669.681 668.119 667.749 667.734 665.948 666.986C664.146 666.237 662.509 665.142 661.131 663.761C659.753 662.38 658.66 660.741 657.916 658.937C657.171 657.134 656.789 655.202 656.792 653.251V599.441C656.791 597.491 657.174 595.559 657.919 593.757C658.664 591.955 659.756 590.317 661.134 588.937C662.512 587.557 664.149 586.462 665.95 585.715C667.751 584.967 669.682 584.582 671.632 584.581H723.812C725.762 584.582 727.693 584.967 729.494 585.715C731.295 586.462 732.932 587.557 734.31 588.937C735.688 590.317 736.78 591.955 737.525 593.757C738.271 595.559 738.653 597.491 738.652 599.441V653.251Z" stroke="#CCDDE2" stroke-width="4.35" stroke-miterlimit="10"/>
<path d="M755.982 535.954C755.974 538.734 754.866 541.397 752.901 543.363C750.935 545.328 748.271 546.436 745.492 546.444H550.162C547.379 546.444 544.709 545.339 542.741 543.372C540.772 541.405 539.664 538.737 539.662 535.954C539.672 533.173 540.782 530.51 542.749 528.544C544.716 526.579 547.381 525.472 550.162 525.464H745.442C746.823 525.457 748.193 525.724 749.471 526.248C750.75 526.772 751.912 527.544 752.892 528.519C753.871 529.493 754.648 530.652 755.178 531.928C755.709 533.204 755.982 534.572 755.982 535.954Z" stroke="#CCDDE2" stroke-width="4.35" stroke-miterlimit="10"/>
<path d="M716.552 806.042H578.502C575.16 806.042 572.452 808.751 572.452 812.092C572.452 815.433 575.16 818.142 578.502 818.142H716.552C719.893 818.142 722.602 815.433 722.602 812.092C722.602 808.751 719.893 806.042 716.552 806.042Z" stroke="#CCDDE2" stroke-width="4.35" stroke-miterlimit="10"/>
<path d="M716.552 831.022H578.502C575.16 831.022 572.452 833.731 572.452 837.072C572.452 840.414 575.16 843.122 578.502 843.122H716.552C719.893 843.122 722.602 840.414 722.602 837.072C722.602 833.731 719.893 831.022 716.552 831.022Z" stroke="#CCDDE2" stroke-width="4.35" stroke-miterlimit="10"/>
<path d="M716.552 856.003H578.502C575.16 856.003 572.452 858.711 572.452 862.053C572.452 865.394 575.16 868.103 578.502 868.103H716.552C719.893 868.103 722.602 865.394 722.602 862.053C722.602 858.711 719.893 856.003 716.552 856.003Z" stroke="#CCDDE2" stroke-width="4.35" stroke-miterlimit="10"/>
<path d="M716.552 880.983H578.502C575.16 880.983 572.452 883.692 572.452 887.033C572.452 890.375 575.16 893.083 578.502 893.083H716.552C719.893 893.083 722.602 890.375 722.602 887.033C722.602 883.692 719.893 880.983 716.552 880.983Z" stroke="#CCDDE2" stroke-width="4.35" stroke-miterlimit="10"/>
<path d="M716.552 905.952H578.502C575.16 905.952 572.452 908.661 572.452 912.002C572.452 915.343 575.16 918.052 578.502 918.052H716.552C719.893 918.052 722.602 915.343 722.602 912.002C722.602 908.661 719.893 905.952 716.552 905.952Z" stroke="#CCDDE2" stroke-width="4.35" stroke-miterlimit="10"/>
<path d="M489.142 455.241H830.472C837.582 455.241 844.402 458.066 849.429 463.094C854.457 468.121 857.282 474.941 857.282 482.051V496.221H468.132" stroke="#CCDDE2" stroke-width="4.35" stroke-miterlimit="10"/>
<path d="M808.312 301.182H600.882C589.411 301.182 580.112 310.482 580.112 321.952V382.802C580.112 394.273 589.411 403.572 600.882 403.572H808.312C819.783 403.572 829.082 394.273 829.082 382.802V321.952C829.082 310.482 819.783 301.182 808.312 301.182Z" stroke="#CCDDE2" stroke-width="4.35" stroke-miterlimit="10"/>
<path d="M698.552 350.573C698.552 365.393 688.042 372.173 677.192 372.173C665.362 372.173 656.262 364.393 656.262 351.323C656.262 338.253 664.872 329.893 677.862 329.893C690.272 329.893 698.552 338.413 698.552 350.573ZM669.252 350.993C669.252 357.943 672.152 363.153 677.532 363.153C682.412 363.153 685.532 358.273 685.532 350.993C685.532 344.993 683.212 338.823 677.532 338.823C671.492 338.823 669.252 345.033 669.252 350.953V350.993Z" fill="#D7E8F0"/>
<path d="M712.152 344.373C712.152 341.803 712.152 339.373 712.052 337.213C712.033 336.377 712.182 335.545 712.49 334.766C712.798 333.988 713.259 333.279 713.845 332.682C714.431 332.084 715.131 331.611 715.904 331.288C716.676 330.965 717.505 330.801 718.342 330.803H722.742L723.322 336.423H723.492C726.492 332.123 731.102 329.893 736.982 329.893C745.832 329.893 753.782 337.583 753.782 350.493C753.782 365.223 744.422 372.173 735.402 372.173C730.522 372.173 726.712 370.173 724.892 367.543H724.732V381.363C724.732 383.032 724.069 384.631 722.89 385.811C721.71 386.991 720.11 387.653 718.442 387.653C716.774 387.653 715.174 386.991 713.994 385.811C712.815 384.631 712.152 383.032 712.152 381.363V344.373ZM724.732 353.883C724.718 354.773 724.802 355.662 724.982 356.533C725.347 358.22 726.274 359.732 727.611 360.822C728.949 361.912 730.617 362.516 732.342 362.533C737.802 362.533 741.032 357.983 741.032 351.113C741.032 344.663 738.132 339.773 732.502 339.773C730.711 339.826 728.991 340.487 727.624 341.646C726.258 342.805 725.326 344.395 724.982 346.153C724.81 346.884 724.726 347.633 724.732 348.383V353.883Z" fill="#D7E8F0"/>
<path d="M712.052 403.573V455.243" stroke="#CCDDE2" stroke-width="4.35" stroke-miterlimit="10"/>
<path d="M156.792 888.311H259.982V899.311C260.077 906.15 258.813 912.939 256.261 919.285C253.71 925.631 249.923 931.406 245.121 936.276C240.319 941.145 234.597 945.012 228.287 947.651C221.978 950.291 215.206 951.65 208.367 951.65C201.528 951.65 194.757 950.291 188.447 947.651C182.138 945.012 176.415 941.145 171.613 936.276C166.811 931.406 163.024 925.631 160.473 919.285C157.922 912.939 156.657 906.15 156.752 899.311V888.311H156.792Z" fill="#D7E8F0"/>
<path d="M603.032 292.604L602.862 327.034V923.284C602.862 956.584 575.862 950.284 542.562 950.234L457.652 950.174H217.282C228.908 948.165 239.493 942.225 247.265 933.348C255.038 924.47 259.527 913.194 259.982 901.404C260.042 900.714 260.042 900.014 260.042 899.324C260.057 899.064 260.057 898.804 260.042 898.544L259.292 287.664C258.516 279.528 255.84 271.688 251.481 264.775C247.121 257.862 241.199 252.07 234.192 247.864C226.356 243.326 217.457 240.945 208.402 240.964H551.402C565.095 240.969 578.226 246.412 587.908 256.095C597.589 265.779 603.029 278.911 603.032 292.604Z" fill="#878787"/>
<path d="M259.982 374.493H156.792V292.603C156.697 285.764 157.962 278.975 160.513 272.629C163.064 266.284 166.851 260.508 171.653 255.639C176.456 250.769 182.178 246.902 188.487 244.263C194.797 241.624 201.568 240.264 208.407 240.264C215.246 240.264 222.018 241.624 228.327 244.263C234.637 246.902 240.359 250.769 245.161 255.639C249.963 260.508 253.75 266.284 256.301 272.629C258.853 278.975 260.117 285.764 260.022 292.603V386.463" fill="#D7E8F0"/>
<path d="M301.672 826.702H427.412C438.347 826.702 447.212 817.837 447.212 806.902V445.362C447.212 434.427 438.347 425.562 427.412 425.562H301.672C290.737 425.562 281.872 434.427 281.872 445.362V806.902C281.872 817.837 290.737 826.702 301.672 826.702Z" fill="#878787"/>
<path d="M401.192 393.331H460.362" stroke="white" stroke-width="4.35" stroke-miterlimit="10"/>
<path d="M317.802 467.964H409.892" stroke="white" stroke-width="4.35" stroke-miterlimit="10"/>
<path d="M317.802 500.304H409.892" stroke="white" stroke-width="4.35" stroke-miterlimit="10"/>
<path d="M317.802 532.643H409.892" stroke="white" stroke-width="4.35" stroke-miterlimit="10"/>
<path d="M317.802 564.983H409.892" stroke="white" stroke-width="4.35" stroke-miterlimit="10"/>
<path d="M317.802 597.311H409.892" stroke="white" stroke-width="4.35" stroke-miterlimit="10"/>
<path d="M317.802 629.651H409.892" stroke="white" stroke-width="4.35" stroke-miterlimit="10"/>
<path d="M317.802 737.69H409.892" stroke="white" stroke-width="4.35" stroke-miterlimit="10"/>
<path d="M317.802 752.772H409.892" stroke="white" stroke-width="4.35" stroke-miterlimit="10"/>
<path d="M317.802 767.843H409.892" stroke="white" stroke-width="4.35" stroke-miterlimit="10"/>
<path d="M401.192 355.343H450.812" stroke="white" stroke-width="4.35" stroke-miterlimit="10"/>
<path d="M401.192 374.343H457.742" stroke="white" stroke-width="4.35" stroke-miterlimit="10"/>
<path d="M401.192 336.35H468.132" stroke="white" stroke-width="4.35" stroke-miterlimit="10"/>
<path d="M315.242 399.624H366.892C371.835 399.624 375.842 395.617 375.842 390.674V339.024C375.842 334.081 371.835 330.074 366.892 330.074H315.242C310.299 330.074 306.292 334.081 306.292 339.024V390.674C306.292 395.617 310.299 399.624 315.242 399.624Z" fill="#878787"/>
<path d="M341.072 359.353C346.716 359.353 351.292 354.777 351.292 349.133C351.292 343.489 346.716 338.913 341.072 338.913C335.428 338.913 330.852 343.489 330.852 349.133C330.852 354.777 335.428 359.353 341.072 359.353Z" fill="#D7E8F0"/>
<path d="M366.982 390.773C366.982 383.91 364.256 377.327 359.402 372.473C354.549 367.62 347.966 364.893 341.102 364.893C334.238 364.893 327.656 367.62 322.802 372.473C317.949 377.327 315.222 383.91 315.222 390.773H366.982Z" fill="#D7E8F0"/>
<path d="M338.542 854.813L330.982 870.133C330.781 870.543 330.483 870.898 330.113 871.166C329.744 871.435 329.314 871.609 328.862 871.673L311.982 874.133C311.456 874.201 310.96 874.417 310.551 874.754C310.142 875.092 309.837 875.538 309.67 876.041C309.502 876.544 309.481 877.084 309.607 877.599C309.733 878.115 310.001 878.584 310.382 878.953L322.622 890.883C322.951 891.2 323.197 891.592 323.338 892.027C323.48 892.461 323.512 892.923 323.432 893.373L320.542 910.223C320.447 910.743 320.5 911.28 320.696 911.772C320.892 912.263 321.222 912.69 321.648 913.003C322.075 913.315 322.581 913.502 323.108 913.541C323.636 913.58 324.164 913.47 324.632 913.223L339.762 905.223C340.166 905.011 340.616 904.9 341.072 904.9C341.528 904.9 341.978 905.011 342.382 905.223L357.512 913.223C357.979 913.471 358.507 913.582 359.035 913.544C359.562 913.505 360.068 913.319 360.495 913.005C360.921 912.692 361.25 912.264 361.444 911.772C361.638 911.28 361.689 910.743 361.592 910.223L358.712 893.373C358.632 892.923 358.664 892.461 358.805 892.027C358.947 891.592 359.193 891.2 359.522 890.883L371.762 878.953C372.139 878.585 372.405 878.119 372.531 877.608C372.657 877.097 372.637 876.56 372.473 876.06C372.31 875.559 372.01 875.114 371.606 874.775C371.203 874.437 370.713 874.218 370.192 874.143L353.282 871.683C352.83 871.619 352.4 871.445 352.031 871.176C351.661 870.908 351.363 870.553 351.162 870.143L343.592 854.823C343.362 854.35 343.004 853.95 342.558 853.671C342.112 853.391 341.596 853.242 341.07 853.241C340.544 853.24 340.028 853.387 339.581 853.665C339.134 853.943 338.774 854.34 338.542 854.813Z" fill="#D7E8F0"/>
<path d="M452.992 893.331H395.532" stroke="#CCDDE2" stroke-width="4.35" stroke-miterlimit="10"/>
<path d="M684.602 927.072H660.662C656.81 927.07 653.01 926.187 649.551 924.49C646.093 922.794 643.068 920.33 640.708 917.286C638.348 914.241 636.715 910.698 635.934 906.926C635.153 903.154 635.245 899.254 636.202 895.522L644.722 862.522H730.902L679.472 703.252H691.202C696.126 703.264 700.955 701.895 705.142 699.302C706.608 698.413 707.979 697.374 709.232 696.202C709.552 695.912 709.872 695.602 710.162 695.312C710.762 694.702 711.312 694.062 711.862 693.422C712.382 692.762 712.862 692.092 713.372 691.422C717.085 685.872 718.583 679.133 717.572 672.532C715.892 661.466 714.192 650.676 712.472 640.162C659.412 313.722 598.072 244.322 567.472 229.572L570.172 194.942C574.81 193.282 578.708 190.029 581.172 185.762C581.872 185.962 582.592 186.222 583.352 186.512C589.812 188.862 597.632 190.332 604.272 187.812C612.442 184.712 607.632 176.162 607.082 169.992C606.902 168.542 605.542 159.442 608.352 159.422H614.552C614.923 159.443 615.292 159.359 615.618 159.181C615.944 159.003 616.214 158.738 616.398 158.415C616.582 158.092 616.672 157.724 616.659 157.353C616.645 156.981 616.529 156.621 616.322 156.312C610.775 146.788 608.043 135.887 608.442 124.872C608.101 125.364 607.723 125.828 607.312 126.262C607.692 125.802 608.062 125.342 608.412 124.872C608.612 124.582 608.822 124.312 609.022 124.022C609.222 123.732 609.402 123.422 609.602 123.102C609.978 122.458 610.312 121.79 610.602 121.102C611.23 119.749 611.706 118.33 612.022 116.872C612.941 112.911 612.712 108.769 611.362 104.932C611.362 104.932 611.362 104.872 611.362 104.842C611.292 104.583 611.195 104.331 611.072 104.092C610.8 103.294 610.465 102.518 610.072 101.772C609.842 101.342 609.612 100.902 609.352 100.472C609.156 100.128 608.942 99.7947 608.712 99.4724C608.252 98.8024 607.792 98.1724 607.292 97.5324C606.547 96.5599 605.735 95.641 604.862 94.7824C598.862 88.7824 590.452 84.4324 582.952 81.7824C582.202 81.5224 581.412 81.2624 580.662 81.0324C579.912 80.8024 579.442 80.6524 578.842 80.4824C577.392 80.0524 575.942 79.6724 574.462 79.3524C573.682 79.1824 572.902 79.0024 572.112 78.8924C571.112 78.6824 570.112 78.5124 569.012 78.3724C568.232 78.2524 567.452 78.1624 566.662 78.0824C565.872 78.0024 565.072 77.9324 564.292 77.8724H564.092C550.442 76.9724 536.762 80.3624 526.242 89.9824C525.692 90.5124 525.142 90.9824 524.592 91.6124C524.852 91.2324 525.142 90.8224 525.372 90.4224C526.145 89.1974 526.814 87.9096 527.372 86.5724C527.631 85.9762 527.855 85.3651 528.042 84.7424C528.242 84.1324 528.412 83.4924 528.592 82.8624C529.08 80.9001 529.322 78.8846 529.312 76.8624C529.313 74.041 528.843 71.2391 527.922 68.5724C527.782 68.1924 527.662 67.8224 527.522 67.4724C527.142 66.5102 526.705 65.5718 526.212 64.6624C525.609 63.5895 524.941 62.5542 524.212 61.5624C521.844 58.3616 518.757 55.7625 515.199 53.975C511.641 52.1875 507.713 51.2617 503.732 51.2724C503.092 51.2724 502.482 51.2724 501.842 51.3624C501.134 51.3929 500.429 51.4697 499.732 51.5924C493.379 52.6066 487.641 55.9768 483.66 61.0316C479.68 66.0864 477.75 72.4549 478.255 78.8688C478.759 85.2827 481.661 91.2712 486.382 95.6417C491.104 100.012 497.298 102.444 503.732 102.452C508.031 102.413 512.248 101.274 515.982 99.1424H516.042C516.878 98.6817 517.689 98.1777 518.472 97.6324C518.655 97.5193 518.832 97.3957 519.002 97.2624C519.602 96.7924 520.152 96.3324 520.712 95.8424C509.712 109.692 505.842 128.842 509.432 146.052C510.735 152.196 512.559 158.218 514.882 164.052C517.342 170.282 521.782 174.802 522.592 181.672C523.202 186.972 512.592 217.052 509.202 230.272C502.482 236.212 496.742 244.582 492.202 254.672C492.412 254.092 492.642 253.542 492.842 252.962C492.292 254.112 491.772 255.302 491.242 256.522C490.14 259.069 489.176 261.673 488.352 264.322C486.257 270.905 484.754 277.662 483.862 284.512C483.542 286.802 483.252 289.092 483.022 291.412L482.932 292.412C482.926 292.587 482.906 292.761 482.872 292.932C482.762 294.142 482.672 295.362 482.582 296.582C482.462 298.112 482.352 299.652 482.292 301.192C482.232 302.732 482.152 304.082 482.062 305.562V305.852C481.972 307.532 481.912 309.212 481.892 310.922V311.532C481.742 317.592 481.772 323.702 481.892 329.792C482.032 339.442 482.322 349.062 482.322 358.332C482.322 359.752 482.322 361.172 482.322 362.562C482.322 363.952 482.322 365.372 482.262 366.732C482.202 368.092 482.202 369.372 482.152 370.652C482.152 372.102 482.032 373.522 481.972 374.942C481.972 375.082 481.972 375.202 481.972 375.342C481.982 375.489 481.982 375.636 481.972 375.782V375.982C481.912 377.112 481.822 378.242 481.732 379.372C478.581 422.839 471.648 465.949 461.012 508.212C446.382 565.582 422.942 620.552 411.202 678.602C408.422 692.252 406.832 707.662 410.942 720.472C411.381 721.863 411.895 723.228 412.482 724.562C412.772 725.222 413.082 725.892 413.402 726.562C413.922 727.562 414.482 728.472 415.032 729.402C415.582 730.332 416.242 731.222 416.912 732.092C417.342 732.672 417.842 733.222 418.332 733.802C418.822 734.382 419.332 734.902 419.872 735.422C427.152 742.612 437.152 745.862 447.352 747.742L403.712 807.642L430.602 820.562L432.542 821.492L432.162 822.072L431.032 821.522L377.032 891.912L467.422 936.452C469.247 937.377 471.293 937.778 473.332 937.612C475.638 937.782 477.941 937.255 479.945 936.102C481.948 934.949 483.56 933.221 484.572 931.142C485.381 929.543 485.799 927.775 485.792 925.982C485.788 923.804 485.176 921.671 484.024 919.822C482.872 917.974 481.226 916.485 479.272 915.522L459.222 905.642C455.767 903.942 452.747 901.473 450.393 898.425C448.039 895.377 446.414 891.831 445.642 888.058C444.87 884.285 444.971 880.386 445.938 876.658C446.905 872.931 448.713 869.474 451.222 866.552L470.172 842.732L474.862 841.832L531.112 868.832L568.582 823.682V862.602H599.822L582.282 950.372H684.602C687.692 950.372 690.655 949.145 692.84 946.96C695.024 944.775 696.252 941.812 696.252 938.722C696.252 935.633 695.024 932.669 692.84 930.485C690.655 928.3 687.692 927.072 684.602 927.072Z" fill="white"/>
<path d="M580.472 276.754C595.192 341.224 602.112 437.004 605.302 523.754C602.082 437.074 595.132 341.504 580.472 277.144C573.082 244.984 562.612 229.714 550.302 223.624C551.432 224.084 552.592 224.624 553.752 225.194C553.813 225.24 553.88 225.277 553.952 225.304C564.702 232.534 573.832 247.774 580.472 276.754Z" fill="#2E2E2E"/>
<path d="M607.622 626.313C607.102 625.623 606.622 625.123 606.622 625.123C607.015 623.939 607.326 622.729 607.552 621.503C607.622 623.123 607.622 624.723 607.622 626.313Z" fill="#2E2E2E"/>
<path d="M584.262 174.953C584.263 179.123 582.98 183.192 580.588 186.607C578.196 190.022 574.811 192.618 570.892 194.043C568.678 194.867 566.334 195.283 563.972 195.273C562.746 195.28 561.523 195.16 560.322 194.913C557.03 193.511 554.168 191.264 552.025 188.399C549.881 185.535 548.534 182.154 548.119 178.6C547.703 175.047 548.235 171.446 549.66 168.165C551.085 164.883 553.352 162.036 556.232 159.913C559.716 157.3 563.957 155.896 568.312 155.913C569.538 155.906 570.761 156.027 571.962 156.273C575.617 157.839 578.732 160.444 580.918 163.765C583.105 167.086 584.268 170.977 584.262 174.953Z" fill="black"/>
<path d="M607.822 653.263C607.822 651.933 607.822 650.573 607.762 649.203C613.822 648.393 607.822 651.953 607.822 653.263Z" fill="#878787"/>
<path d="M658.332 674.331C656.072 656.191 654.332 637.931 652.712 619.671C651.322 603.961 649.932 588.251 648.222 572.581C639.702 493.841 630.162 415.051 617.502 336.871C611.502 299.871 600.432 261.471 570.582 236.371C565.471 232.089 559.892 228.399 553.952 225.371C564.702 232.591 573.832 247.831 580.472 276.811C590.122 319.121 596.472 374.901 600.472 432.811C596.332 375.051 590.042 319.441 580.472 277.221C573.082 245.061 562.612 229.791 550.302 223.701C551.432 224.161 552.592 224.701 553.752 225.271C552.657 224.531 551.514 223.863 550.332 223.271L550.152 223.191C550.135 223.184 550.116 223.18 550.097 223.18C550.078 223.18 550.059 223.184 550.042 223.191C546.526 221.689 542.828 220.656 539.042 220.121H538.982C535.752 219.651 532.472 219.651 529.242 220.121C530.142 220.121 531.072 220.121 532.002 220.121C576.912 222.461 576.222 263.211 578.162 348.341C579.522 408.391 596.962 524.591 607.162 587.791C607.102 585.851 607.072 583.911 607.012 581.941C607.912 587.791 608.462 593.011 608.722 597.611C612.112 618.331 614.342 631.321 614.342 631.321L584.342 630.911L587.992 647.511H601.992C602.098 647.5 602.206 647.5 602.312 647.511C603.807 647.504 605.244 648.086 606.312 649.131C606.922 649.011 607.472 648.931 607.932 648.871C607.932 650.371 607.932 651.871 607.932 653.361V656.891C607.992 688.601 607.702 715.231 607.552 724.361C607.534 725.53 607.055 726.644 606.22 727.462C605.385 728.281 604.261 728.736 603.092 728.731H486.522C485.938 728.73 485.359 728.613 484.82 728.388C484.28 728.164 483.791 727.835 483.378 727.421C482.966 727.006 482.639 726.515 482.417 725.975C482.195 725.434 482.081 724.855 482.082 724.271V716.951H479.562V653.751C479.576 652.809 479.811 651.884 480.249 651.05C480.687 650.216 481.315 649.497 482.082 648.951V375.041C482.002 376.401 481.912 377.771 481.822 379.101C478.672 422.571 471.739 465.685 461.102 507.951C446.472 565.291 423.032 620.291 411.292 678.311C407.292 697.901 405.732 721.051 419.982 735.111C429.372 744.411 443.312 747.111 456.412 748.841C515.509 756.805 575.496 755.337 634.132 744.491C639.232 743.541 644.542 742.491 648.712 739.311C667.982 724.891 660.822 694.321 658.332 674.331ZM560.702 647.461L531.782 646.361L528.982 628.801H529.772C491.772 509.801 483.772 316.941 483.772 316.941C483.172 305.731 484.182 276.231 493.022 252.701C492.472 253.851 491.952 255.041 491.432 256.261C490.323 258.806 489.355 261.41 488.532 264.061C485.736 273.051 483.929 282.319 483.142 291.701C482.562 297.791 482.242 303.961 482.142 310.221V330.731C482.382 345.861 482.872 360.841 482.142 374.641V648.541C483.134 647.841 484.318 647.464 485.532 647.461H560.702Z" fill="#2E2E2E"/>
<path d="M580.472 276.754C595.192 341.224 602.112 437.004 605.302 523.754C602.082 437.074 595.132 341.504 580.472 277.144C573.082 244.984 562.612 229.714 550.302 223.624C551.432 224.084 552.592 224.624 553.752 225.194C553.813 225.24 553.88 225.277 553.952 225.304C564.702 232.534 573.832 247.774 580.472 276.754Z" fill="#2E2E2E"/>
<path d="M607.622 626.313C607.102 625.623 606.622 625.123 606.622 625.123C607.015 623.939 607.326 622.729 607.552 621.503C607.622 623.123 607.622 624.723 607.622 626.313Z" fill="#2E2E2E"/>
<path d="M691.392 703.022H679.652L652.702 619.672C651.312 603.962 649.922 588.252 648.212 572.582C639.692 493.842 630.162 415.052 617.492 336.872C611.492 299.872 600.432 261.472 570.582 236.372C565.469 232.088 559.887 228.398 553.942 225.372C553.942 225.372 559.052 225.142 567.742 229.372C599.302 244.592 663.662 318.072 717.822 672.372C718.382 676.171 718.117 680.045 717.046 683.733C715.976 687.42 714.123 690.833 711.616 693.741C709.109 696.649 706.005 698.983 702.515 700.584C699.025 702.186 695.232 703.017 691.392 703.022Z" fill="#878787"/>
<path d="M694.902 938.49C694.901 940.022 694.597 941.539 694.01 942.954C693.422 944.369 692.561 945.654 691.476 946.736C690.392 947.818 689.104 948.675 687.688 949.259C686.272 949.843 684.754 950.143 683.222 950.14H582.462L599.982 862.28H644.982L636.462 895.28C635.505 899.011 635.413 902.912 636.194 906.684C636.975 910.456 638.608 913.999 640.968 917.043C643.328 920.087 646.353 922.552 649.811 924.248C653.27 925.944 657.07 926.827 660.922 926.83H683.292C686.385 926.83 689.351 928.057 691.54 930.241C693.73 932.424 694.964 935.388 694.972 938.48L694.902 938.49Z" fill="#878787"/>
<path d="M484.342 925.65C484.349 927.443 483.931 929.211 483.122 930.81C482.452 932.187 481.515 933.417 480.367 934.43C479.219 935.443 477.882 936.219 476.433 936.712C474.983 937.206 473.451 937.408 471.923 937.306C470.396 937.204 468.903 936.801 467.532 936.12L377.152 891.58L431.152 821.19L471.742 840.69L449.742 866.22C447.233 869.142 445.425 872.599 444.458 876.326C443.491 880.054 443.39 883.953 444.162 887.726C444.934 891.499 446.559 895.045 448.913 898.093C451.267 901.141 454.287 903.609 457.742 905.31L477.742 915.22C479.708 916.167 481.368 917.647 482.535 919.49C483.702 921.334 484.328 923.468 484.342 925.65Z" fill="#878787"/>
<path d="M480.132 715.433C480.132 715.433 482.062 718.433 482.062 724.203C482.062 729.973 499.982 728.953 502.352 728.953L594.602 728.713C594.602 728.713 607.602 732.063 607.602 719.053C607.602 706.043 611.602 652.113 606.132 649.483C600.662 646.853 566.812 648.953 566.812 648.953L490.262 647.853C490.262 647.853 478.972 640.853 479.542 662.543C480.112 684.233 480.132 715.433 480.132 715.433Z" fill="#D7E8F0"/>
<path d="M612.282 116.532C611.65 119.423 610.416 122.148 608.662 124.532C605.705 128.401 601.804 131.445 597.332 133.372C587.012 138.152 573.682 138.882 564.332 136.672C561.835 136.048 559.283 135.673 556.712 135.552C553.712 135.552 550.862 136.102 548.662 138.122C542.052 144.212 545.562 152.062 550.772 158.032C548.12 159.983 545.966 162.532 544.483 165.471C543.001 168.411 542.233 171.659 542.242 174.952C541.559 176.993 540.396 178.842 538.852 180.342C537.982 180.342 535.852 183.412 535.112 183.342C529.032 182.272 526.572 185.282 524.572 180.342C520.422 169.725 517.818 158.568 516.842 147.212C515.552 134.102 515.042 119.352 520.842 107.212C524.936 99.0732 531.218 92.2373 538.982 87.4715C546.716 82.4297 555.401 79.0264 564.502 77.4715C570.862 77.9211 577.13 79.24 583.132 81.3915C597.852 86.6215 616.222 98.2715 612.282 116.532Z" fill="#878787"/>
<path d="M529.462 76.542C529.472 81.827 527.832 86.9833 524.772 91.292C523.402 92.6528 522.117 94.0954 520.922 95.612C519.501 96.8928 517.934 98.0005 516.252 98.912C510.313 99.8462 504.234 98.6578 499.084 95.5555C493.934 92.4532 490.042 87.6354 488.092 81.9484C486.141 76.2614 486.257 70.069 488.419 64.4589C490.58 58.8487 494.65 54.1797 499.912 51.272C501.235 51.0634 502.572 50.9564 503.912 50.952C510.692 50.9626 517.191 53.6634 521.981 58.4613C526.771 63.2592 529.462 69.762 529.462 76.542Z" fill="#878787"/>
<path d="M488.472 264.45C477.262 299.33 484.472 343.55 481.822 379.09C478.672 422.565 471.736 465.681 461.092 507.95C446.462 565.28 422.982 620.27 411.282 678.29C407.282 697.9 405.722 721.05 419.962 735.11C429.372 744.4 443.302 747.11 456.402 748.84C515.509 756.808 575.507 755.333 634.152 744.47C639.272 743.52 644.572 742.41 648.742 739.29C667.972 724.9 660.822 694.29 658.312 674.29C654.082 640.51 651.872 606.38 648.212 572.52C639.692 493.79 630.162 414.98 617.492 336.8C611.492 299.8 600.422 261.41 570.572 236.32C565.46 232.035 559.877 228.345 553.932 225.32C526.232 211.17 503.932 227.09 491.372 256.67C490.292 259.2 489.332 261.8 488.472 264.45Z" stroke="black" stroke-width="4.35" stroke-miterlimit="10"/>
<path d="M483.092 292.1C482.642 297.47 493.252 473.75 514.912 569.53C520.012 592.144 524.475 612.364 528.302 630.19C559.302 629.87 614.842 631.27 614.842 631.27C614.842 631.27 577.122 406.47 578.192 325.58" stroke="black" stroke-width="4.35" stroke-miterlimit="10"/>
<path d="M482.062 310.624V330.734V375.704V648.954" stroke="black" stroke-width="4.35" stroke-miterlimit="10"/>
<path d="M607.802 653.28C607.902 686.53 607.572 714.81 607.422 724.28C607.409 725.447 606.935 726.562 606.103 727.38C605.271 728.199 604.149 728.655 602.982 728.65H486.512C485.333 728.647 484.202 728.178 483.368 727.344C482.534 726.51 482.065 725.38 482.062 724.2V716.95" stroke="black" stroke-width="4.35" stroke-miterlimit="10"/>
<path d="M538.922 220.432C542.782 220.782 546.549 221.822 550.042 223.502C550.042 223.502 550.092 223.502 550.112 223.502C562.502 229.502 573.052 244.792 580.442 277.112C603.302 377.322 607.442 553.113 607.802 653.233" stroke="black" stroke-width="4.35" stroke-miterlimit="10"/>
<path d="M602.032 647.862H485.472C483.905 647.865 482.404 648.488 481.296 649.596C480.188 650.704 479.565 652.206 479.562 653.772V716.952H596.562V658.032" stroke="black" stroke-width="4.35" stroke-miterlimit="10"/>
<path d="M596.512 658.071V653.381C596.531 651.901 597.134 650.488 598.191 649.452C599.248 648.416 600.672 647.84 602.152 647.851C603.648 647.848 605.084 648.434 606.152 649.481C607.182 650.48 607.775 651.846 607.802 653.281" stroke="black" stroke-width="4.35" stroke-miterlimit="10"/>
<path d="M607.822 656.811H596.512" stroke="black" stroke-width="4.35" stroke-miterlimit="10"/>
<path d="M528.302 630.19L531.982 647.85H586.622L583.122 630.74" stroke="black" stroke-width="4.35" stroke-miterlimit="10"/>
<path d="M447.442 747.432L403.822 807.322L531.232 868.533L568.702 823.362" stroke="black" stroke-width="4.35" stroke-miterlimit="10"/>
<path d="M634.152 744.461L568.702 823.361V862.281H731.092L679.652 703.021L652.692 619.651" stroke="black" stroke-width="4.35" stroke-miterlimit="10"/>
<path d="M601.502 862.272L583.982 950.152H684.792C687.883 950.15 690.846 948.92 693.03 946.734C695.215 944.547 696.442 941.583 696.442 938.492C696.442 935.402 695.215 932.437 693.03 930.251C690.846 928.065 687.883 926.835 684.792 926.832H662.402C658.553 926.829 654.755 925.945 651.3 924.249C647.844 922.552 644.822 920.088 642.466 917.044C640.109 914.001 638.48 910.458 637.703 906.688C636.926 902.918 637.021 899.02 637.982 895.292L646.492 862.292" stroke="black" stroke-width="4.35" stroke-miterlimit="10"/>
<path d="M433.242 820.472L378.702 891.572L469.082 936.132C471.858 937.498 475.062 937.706 477.991 936.71C480.92 935.714 483.334 933.596 484.702 930.822C486.068 928.047 486.276 924.844 485.28 921.917C484.284 918.99 482.166 916.578 479.392 915.212L459.322 905.311C455.865 903.611 452.844 901.142 450.489 898.093C448.134 895.044 446.508 891.497 445.736 887.723C444.964 883.949 445.066 880.048 446.034 876.319C447.002 872.591 448.811 869.133 451.322 866.212L473.562 840.361" stroke="black" stroke-width="4.35" stroke-miterlimit="10"/>
<path d="M553.982 225.314C553.982 225.314 648.792 220.314 717.862 672.264C718.441 676.069 718.191 679.955 717.129 683.654C716.068 687.354 714.219 690.781 711.71 693.7C709.201 696.619 706.091 698.962 702.593 700.567C699.095 702.173 695.291 703.004 691.442 703.004H679.642" stroke="black" stroke-width="4.35" stroke-miterlimit="10"/>
<path d="M509.392 230.024C512.792 216.814 523.392 186.704 522.782 181.414C521.982 174.544 517.562 170.014 515.092 163.794C512.764 157.961 510.94 151.938 509.642 145.794C505.492 125.934 511.242 103.524 526.452 89.6335C541.922 75.4935 564.152 74.6935 583.142 81.3935C597.882 86.5835 616.242 98.2235 612.292 116.494C608.152 135.654 580.392 140.424 564.292 136.704C559.292 135.554 552.772 134.324 548.622 138.154C542.032 144.224 545.532 152.064 550.722 158.034" stroke="black" stroke-width="4.35" stroke-miterlimit="10"/>
<path d="M581.422 185.47C582.122 185.67 582.842 185.93 583.592 186.22C590.062 188.57 597.882 190.04 604.522 187.52C612.692 184.42 607.882 175.87 607.332 169.7C607.152 168.25 605.792 159.15 608.602 159.13H614.802C615.173 159.15 615.542 159.067 615.868 158.889C616.194 158.711 616.465 158.445 616.648 158.122C616.832 157.799 616.922 157.432 616.909 157.06C616.895 156.689 616.779 156.329 616.572 156.02C611.014 146.482 608.281 135.561 608.692 124.53" stroke="black" stroke-width="4.35" stroke-miterlimit="10"/>
<path d="M563.262 195.952C574.86 195.952 584.262 186.55 584.262 174.952C584.262 163.354 574.86 153.952 563.262 153.952C551.664 153.952 542.262 163.354 542.262 174.952C542.262 186.55 551.664 195.952 563.262 195.952Z" stroke="black" stroke-width="4.35" stroke-miterlimit="10"/>
<path d="M503.912 102.124C518.04 102.124 529.492 90.6712 529.492 76.5437C529.492 62.4163 518.04 50.9637 503.912 50.9637C489.785 50.9637 478.332 62.4163 478.332 76.5437C478.332 90.6712 489.785 102.124 503.912 102.124Z" stroke="black" stroke-width="4.35" stroke-miterlimit="10"/>
<path d="M570.422 194.671L567.752 229.281" stroke="black" stroke-width="4.35" stroke-miterlimit="10"/>
<path d="M522.782 181.412C522.782 181.412 537.262 188.542 542.262 174.952" stroke="black" stroke-width="4.35" stroke-miterlimit="10"/>
<path d="M516.372 128.061C516.372 129.891 516.282 131.571 516.192 133.161C516.222 131.451 516.252 129.771 516.372 128.061Z" fill="#878787"/>
<path d="M208.412 950.143H800.582" stroke="black" stroke-width="4.35" stroke-miterlimit="10"/>
</svg>
